<svg version="1.1" xmlns="http://www.w3.org/2000/svg" xmlns:xlink="http://www.w3.org/1999/xlink" width="800" height="800"><defs/><g transform="scale(2,2)"><g id="background-5eb58663"><rect fill="white" stroke="none" x="0" y="0" width="400" height="400" class="dcg-svg-background"/></g><g id="graphpaper-5eb58663"><g id="grid-5eb58663"><g><path fill="none" stroke="rgb(0,0,0)" class="dcg-svg-minor-gridline" paint-order="fill stroke markers" d=" M 29.5 0 L 29.5 400" stroke-opacity="0.3" stroke-miterlimit="10" stroke-dasharray=""/><path fill="none" stroke="rgb(0,0,0)" class="dcg-svg-minor-gridline" paint-order="fill stroke markers" d=" M 59.5 0 L 59.5 400" stroke-opacity="0.3" stroke-miterlimit="10" stroke-dasharray=""/><path fill="none" stroke="rgb(0,0,0)" class="dcg-svg-minor-gridline" paint-order="fill stroke markers" d=" M 118.5 0 L 118.5 400" stroke-opacity="0.3" stroke-miterlimit="10" stroke-dasharray=""/><path fill="none" stroke="rgb(0,0,0)" class="dcg-svg-minor-gridline" paint-order="fill stroke markers" d=" M 147.5 0 L 147.5 400" stroke-opacity="0.3" stroke-miterlimit="10" stroke-dasharray=""/><path fill="none" stroke="rgb(0,0,0)" class="dcg-svg-minor-gridline" paint-order="fill stroke markers" d=" M 177.5 0 L 177.5 400" stroke-opacity="0.3" stroke-miterlimit="10" stroke-dasharray=""/><path fill="none" stroke="rgb(0,0,0)" class="dcg-svg-minor-gridline" paint-order="fill stroke markers" d=" M 206.5 0 L 206.5 400" stroke-opacity="0.3" stroke-miterlimit="10" stroke-dasharray=""/><path fill="none" stroke="rgb(0,0,0)" class="dcg-svg-minor-gridline" paint-order="fill stroke markers" d=" M 236.5 0 L 236.5 400" stroke-opacity="0.3" stroke-miterlimit="10" stroke-dasharray=""/><path fill="none" stroke="rgb(0,0,0)" class="dcg-svg-minor-gridline" paint-order="fill stroke markers" d=" M 266.5 0 L 266.5 400" stroke-opacity="0.3" stroke-miterlimit="10" stroke-dasharray=""/><path fill="none" stroke="rgb(0,0,0)" class="dcg-svg-minor-gridline" paint-order="fill stroke markers" d=" M 295.5 0 L 295.5 400" stroke-opacity="0.3" stroke-miterlimit="10" stroke-dasharray=""/><path fill="none" stroke="rgb(0,0,0)" class="dcg-svg-minor-gridline" paint-order="fill stroke markers" d=" M 325.5 0 L 325.5 400" stroke-opacity="0.3" stroke-miterlimit="10" stroke-dasharray=""/><path fill="none" stroke="rgb(0,0,0)" class="dcg-svg-minor-gridline" paint-order="fill stroke markers" d=" M 354.5 0 L 354.5 400" stroke-opacity="0.3" stroke-miterlimit="10" stroke-dasharray=""/><path fill="none" stroke="rgb(0,0,0)" class="dcg-svg-minor-gridline" paint-order="fill stroke markers" d=" M 384.5 0 L 384.5 400" stroke-opacity="0.3" stroke-miterlimit="10" stroke-dasharray=""/><path fill="none" stroke="rgb(0,0,0)" class="dcg-svg-minor-gridline" paint-order="fill stroke markers" d=" M 0 371.5 L 400 371.5" stroke-opacity="0.3" stroke-miterlimit="10" stroke-dasharray=""/><path fill="none" stroke="rgb(0,0,0)" class="dcg-svg-minor-gridline" paint-order="fill stroke markers" d=" M 0 341.5 L 400 341.5" stroke-opacity="0.3" stroke-miterlimit="10" stroke-dasharray=""/><path fill="none" stroke="rgb(0,0,0)" class="dcg-svg-minor-gridline" paint-order="fill stroke markers" d=" M 0 282.5 L 400 282.5" stroke-opacity="0.3" stroke-miterlimit="10" stroke-dasharray=""/><path fill="none" stroke="rgb(0,0,0)" class="dcg-svg-minor-gridline" paint-order="fill stroke markers" d=" M 0 253.5 L 400 253.5" stroke-opacity="0.3" stroke-miterlimit="10" stroke-dasharray=""/><path fill="none" stroke="rgb(0,0,0)" class="dcg-svg-minor-gridline" paint-order="fill stroke markers" d=" M 0 223.5 L 400 223.5" stroke-opacity="0.3" stroke-miterlimit="10" stroke-dasharray=""/><path fill="none" stroke="rgb(0,0,0)" class="dcg-svg-minor-gridline" paint-order="fill stroke markers" d=" M 0 194.5 L 400 194.5" stroke-opacity="0.3" stroke-miterlimit="10" stroke-dasharray=""/><path fill="none" stroke="rgb(0,0,0)" class="dcg-svg-minor-gridline" paint-order="fill stroke markers" d=" M 0 164.5 L 400 164.5" stroke-opacity="0.3" stroke-miterlimit="10" stroke-dasharray=""/><path fill="none" stroke="rgb(0,0,0)" class="dcg-svg-minor-gridline" paint-order="fill stroke markers" d=" M 0 134.5 L 400 134.5" stroke-opacity="0.3" stroke-miterlimit="10" stroke-dasharray=""/><path fill="none" stroke="rgb(0,0,0)" class="dcg-svg-minor-gridline" paint-order="fill stroke markers" d=" M 0 105.5 L 400 105.5" stroke-opacity="0.3" stroke-miterlimit="10" stroke-dasharray=""/><path fill="none" stroke="rgb(0,0,0)" class="dcg-svg-minor-gridline" paint-order="fill stroke markers" d=" M 0 75.5 L 400 75.5" stroke-opacity="0.3" stroke-miterlimit="10" stroke-dasharray=""/><path fill="none" stroke="rgb(0,0,0)" class="dcg-svg-minor-gridline" paint-order="fill stroke markers" d=" M 0 46.5 L 400 46.5" stroke-opacity="0.3" stroke-miterlimit="10" stroke-dasharray=""/><path fill="none" stroke="rgb(0,0,0)" class="dcg-svg-minor-gridline" paint-order="fill stroke markers" d=" M 0 16.5 L 400 16.5" stroke-opacity="0.3" stroke-miterlimit="10" stroke-dasharray=""/><path fill="none" stroke="rgb(0,0,0)" class="dcg-svg-major-gridline" paint-order="fill stroke markers" d=" M 236.5 0 L 236.5 400" stroke-opacity="0.4285714285714285" stroke-miterlimit="10" stroke-dasharray=""/><path fill="none" stroke="rgb(0,0,0)" class="dcg-svg-major-gridline" paint-order="fill stroke markers" d=" M 384.5 0 L 384.5 400" stroke-opacity="0.4285714285714285" stroke-miterlimit="10" stroke-dasharray=""/><path fill="none" stroke="rgb(0,0,0)" class="dcg-svg-major-gridline" paint-order="fill stroke markers" d=" M 0 164.5 L 400 164.5" stroke-opacity="0.4285714285714285" stroke-miterlimit="10" stroke-dasharray=""/><path fill="none" stroke="rgb(0,0,0)" class="dcg-svg-major-gridline" paint-order="fill stroke markers" d=" M 0 16.5 L 400 16.5" stroke-opacity="0.4285714285714285" stroke-miterlimit="10" stroke-dasharray=""/></g></g><g id="axis-5eb58663"><g id="yaxis-5eb58663"><title>Y axis</title><g><path fill="none" stroke="rgb(0,0,0)" class="dcg-svg-axis-line" paint-order="fill stroke markers" d=" M 89 0 L 89 400" stroke-opacity="0.9" stroke-miterlimit="10" stroke-width="2" stroke-dasharray=""/></g></g><g id="xaxis-5eb58663"><title>X axis</title><g><path fill="none" stroke="rgb(0,0,0)" class="dcg-svg-axis-line" paint-order="fill stroke markers" d=" M 0 312 L 400 312" stroke-opacity="0.9" stroke-miterlimit="10" stroke-width="2" stroke-dasharray=""/></g></g><g><g class="dcg-svg-axis-value"><text fill="none" stroke="#ffffff" font-family="Arial" font-size="17px" font-style="normal" font-weight="normal" text-decoration="normal" x="78.95679766743298" y="330.4838069244998" text-anchor="middle" stroke-miterlimit="2" stroke-width="3" stroke-dasharray="">0</text><text fill="#000000" stroke="none" font-family="Arial" font-size="17px" font-style="normal" font-weight="normal" text-decoration="normal" x="78.95679766743298" y="330.4838069244998" text-anchor="middle">0</text></g><g class="dcg-svg-axis-value"><text fill="none" stroke="#ffffff" font-family="Arial" font-size="17px" font-style="normal" font-weight="normal" text-decoration="normal" x="236.55576118020696" y="330.4838069244998" text-anchor="middle" stroke-miterlimit="2" stroke-width="3" stroke-dasharray="">1</text><text fill="#000000" stroke="none" font-family="Arial" font-size="17px" font-style="normal" font-weight="normal" text-decoration="normal" x="236.55576118020696" y="330.4838069244998" text-anchor="middle">1</text></g><g class="dcg-svg-axis-value"><text fill="none" stroke="#ffffff" font-family="Arial" font-size="17px" font-style="normal" font-weight="normal" text-decoration="normal" x="384.42742977110595" y="330.4838069244998" text-anchor="middle" stroke-miterlimit="2" stroke-width="3" stroke-dasharray="">2</text><text fill="#000000" stroke="none" font-family="Arial" font-size="17px" font-style="normal" font-weight="normal" text-decoration="normal" x="384.42742977110595" y="330.4838069244998" text-anchor="middle">2</text></g><g class="dcg-svg-axis-value"><text fill="none" stroke="#ffffff" font-family="Arial" font-size="17px" font-style="normal" font-weight="normal" text-decoration="normal" x="78.95679766743298" y="169.11213833360017" text-anchor="middle" stroke-miterlimit="2" stroke-width="3" stroke-dasharray="">1</text><text fill="#000000" stroke="none" font-family="Arial" font-size="17px" font-style="normal" font-weight="normal" text-decoration="normal" x="78.95679766743298" y="169.11213833360017" text-anchor="middle">1</text></g><g class="dcg-svg-axis-value"><text fill="none" stroke="#ffffff" font-family="Arial" font-size="17px" font-style="normal" font-weight="normal" text-decoration="normal" x="78.95679766743298" y="21.24046974270059" text-anchor="middle" stroke-miterlimit="2" stroke-width="3" stroke-dasharray="">2</text><text fill="#000000" stroke="none" font-family="Arial" font-size="17px" font-style="normal" font-weight="normal" text-decoration="normal" x="78.95679766743298" y="21.24046974270059" text-anchor="middle">2</text></g></g></g></g><g id="expressions-5eb58663"><g id="sketch-5eb58663"><title>Expression 2</title><path fill="#2d70b3" stroke="none" paint-order="stroke fill markers" d="" fill-opacity="0.4"/><g><path fill="none" stroke="#2d70b3" class="dcg-svg-curve" paint-order="fill stroke markers" d=" M 88.4612080858694 406.5 L 88.4612080858694 406.5 L 88.76953125 271.34546258277044 L 89.06249999999999 161.62150169413994 L 89.29204500369453 134.56355501770298 L 89.35546874999999 136.32645656463063 L 89.55078125 158.28053182327776 L 89.94140625 208.35641289874698 L 90.05525549348282 211.53625091458667 L 90.13671875 210.056376960504 L 90.33203125 197.57380739933092 L 90.72265624999999 172.87532485628267 L 90.77813561145217 172.3976537711922 L 90.91796874999999 175.2508650628923 L 91.21093749999999 193.3726641220452 L 91.50390624999999 209.44720638957025 L 91.64178813956056 211.53625091458667 L 91.69921874999999 211.18014810435585 L 91.89453125 205.15541222450685 L 92.3828125 174.24187531472933 L 92.77343749999999 154.5775390632016 L 93.06640624999999 147.17754482693002 L 93.26171875 145.05697381243613 L 93.40650028233182 144.62050543543845 L 93.45703125 144.67177673749592 L 93.65234374999999 145.8177968713639 L 93.84765625 148.48216801261785 L 94.140625 155.38640550275895 L 94.62890625 172.84963535274645 L 95.21484375 192.68299214974002 L 95.60546874999999 199.4001325349891 L 95.80078125 200.64468588432445 L 95.89501873847044 200.78848609677084 L 95.99609375 200.62498167694042 L 96.19140625 199.38448510835246 L 96.484375 195.2018412936371 L 96.875 185.51982963504003 L 98.04687499999999 151.65553715216134 L 98.4375 146.42842328993098 L 98.73046875 144.79570185253027 L 98.92578124999999 144.653850952302 L 99.12109374999999 145.23049068204125 L 99.4140625 147.47651300017628 L 99.70703125 151.4997360032588 L 100.09765624999999 159.73192954055605 L 100.78125 179.97901214836807 L 101.56249999999999 201.84134215264214 L 101.953125 208.32860011420388 L 102.24609375 210.8218242742533 L 102.44140625 211.47155162878664 L 102.63671875 211.44825340157195 L 102.83203125 210.89173978583935 L 103.22265625 208.74998567573854 L 104.19921874999999 202.6673255994104 L 104.58984374999999 201.36209976188505 L 104.92743766627062 201.00059281312988 L 105.07812499999999 201.07144733944045 L 105.37109375 201.60068161059382 L 105.76171874999999 203.0234835654243 L 106.34765624999999 206.21550581556198 L 107.12890625 210.45225693020933 L 107.421875 211.32951820596065 L 107.71484375 211.50497007766182 L 107.91015625 211.15644126033965 L 108.203125 209.86721157682595 L 108.59375 206.70045870090252 L 109.08203125 200.697603295737 L 110.05859375 185.17696967552277 L 110.9375 172.30804917358998 L 111.62109375 165.10431941454894 L 112.20703125 161.05095687636384 L 112.6953125 159.00495313217377 L 113.0859375 158.13502406158625 L 113.4403307864869 157.88641088065674 L 113.76953124999999 158.09835268779432 L 114.16015625 158.9036178782761 L 114.55078125 160.33235794634498 L 115.0390625 163.05513820819542 L 115.62499999999999 167.79437015516947 L 116.30859375 175.35275481190078 L 117.28515624999999 188.85775493671974 L 118.359375 203.06840682137377 L 118.9453125 208.33818716468372 L 119.3359375 210.45374453990044 L 119.62890625 211.29194350670798 L 119.90454678775754 211.53625091458673 L 120.1171875 211.40338910495853 L 120.41015625 210.83385025610974 L 120.8984375 209.1582378799842 L 122.65624999999999 202.13169232217857 L 123.14453125 201.22122149057475 L 123.52638911225455 201.00059281313003 L 123.828125 201.1373916167944 L 124.21874999999999 201.70911615323075 L 124.70703125 202.99088654639047 L 125.39062499999999 205.57918508560357 L 126.66015625 210.5735450818302 L 127.05078125 211.3762169765791 L 127.30183194276219 211.53625091458673 L 127.5390625 211.38092446065485 L 127.83203125 210.72931500407327 L 128.22265625 209.00383963356796 L 128.61328125 206.26900072645333 L 129.19921875 200.39166128863945 L 129.98046875 190.05582252552722 L 131.93359375 162.94878729175002 L 132.71484375 155.2444808875989 L 133.3984375 150.48074236265177 L 133.984375 147.70366860769423 L 134.5703125 145.9244719608534 L 135.05859375 145.06435344428442 L 135.546875 144.66867543528048 L 135.9375 144.63475780116315 L 136.42578125 144.89304698483468 L 137.01171875 145.57442519373203 L 137.79296875 146.9774848488227 L 138.96484375 149.74482073211664 L 141.015625 154.6902150440059 L 141.9921875 156.3784777652188 L 142.7734375 157.22632621319906 L 143.45703125 157.56095228530504 L 144.04296875 157.5384997888269 L 144.62890625 157.23705323334093 L 145.3125 156.5546546866842 L 146.19140625 155.21985910765952 L 147.36328125 152.85154908750505 L 150.29296875 146.59527099730624 L 151.171875 145.37026501645832 L 151.953125 144.74900319358306 L 152.5390625 144.62198894709013 L 153.02734375 144.7652443178145 L 153.515625 145.15797871871973 L 154.1015625 145.99289405380688 L 154.78515625 147.52664418893218 L 155.46875 149.73242160696654 L 156.15234375 152.6678149472177 L 156.93359375 156.9413514747403 L 157.91015625 163.56117137717413 L 159.27734375 174.4888515294494 L 161.42578125 191.6524989352351 L 162.5 198.51028038767834 L 163.37890625 202.8688790257636 L 164.16015625 205.79861437173568 L 164.94140625 207.93123410547045 L 165.72265625 209.3995937316094 L 166.6015625 210.44055082351176 L 167.48046875 211.02504181372376 L 168.45703125 211.3396404946667 L 169.82421875 211.48321911901468 L 172.16796875 211.4442560669101 L 173.4375 211.20792667705442 L 174.31640625 210.80327649871415 L 175.09765625 210.15694984470423 L 175.87890625 209.11986751285116 L 176.66015625 207.5622504000454 L 177.44140625 205.35468085315995 L 178.22265625 202.38778215259322 L 179.00390625 198.59653099479118 L 179.98046875 192.71245622692234 L 181.15234375 184.26740918632325 L 184.47265625 159.38655011132647 L 185.44921875 153.93951840148657 L 186.328125 150.18488493733688 L 187.109375 147.74235993070326 L 187.79296875 146.23766008891795 L 188.4765625 145.25784742572802 L 189.16015625 144.74012753738162 L 189.70357753457512 144.62050543543845 L 190.33203125 144.76929076475642 L 191.015625 145.24230759152314 L 191.89453125 146.2593698309367 L 193.06640625 148.16951706918306 L 195.01953125 152.0373692037281 L 196.67968749999997 155.06893156381818 L 197.75390625 156.51115719552197 L 198.6328125 157.2628692884788 L 199.4140625 157.56517951523523 L 200.09765625 157.53424217908216 L 200.78125 157.2276327231907 L 201.5625 156.5531291976524 L 202.5390625 155.27180991328618 L 203.80859374999997 153.03952150414645 L 207.51953125 146.0619505039501 L 208.49609375 145.0150279023137 L 209.1796875 144.66114639235633 L 209.76562499999997 144.65345699838792 L 210.25390625 144.88487670894278 L 210.83984375 145.48722634273162 L 211.5234375 146.70561820842636 L 212.20703125 148.57247033912057 L 212.890625 151.19020587496783 L 213.57421875 154.64807327658283 L 214.35546875 159.6901018138714 L 215.234375 166.69828033283306 L 216.50390625 178.66668630537828 L 218.45703125 197.1855821460967 L 219.33593749999994 203.66864872860054 L 220.01953125 207.4084308119384 L 220.60546875 209.6319991540076 L 221.09375 210.80765881291427 L 221.58203125 211.41456333026835 L 221.9353449380264 211.53625091458673 L 222.36328125 211.37502612009922 L 222.8515625 210.84915254249978 L 223.6328125 209.46519146841516 L 225.09765625 206.1146352787315 L 226.3671875 203.47507661599144 L 227.34375 202.0257336117657 L 228.125 201.31592441655545 L 228.80859374999994 201.03028265266624 L 229.4921875 201.04357996426154 L 230.17578125 201.32971998461062 L 230.95703125 201.9453911183574 L 232.03125 203.1810740047319 L 233.984375 206.0134433099826 L 235.9375 208.69101728780214 L 237.3046875 210.07107593043236 L 238.4765625 210.8519905516897 L 239.6484375 211.29707011046457 L 241.015625 211.5058227534313 L 243.359375 211.52440054310398 L 247.75390625 211.37141293042217 L 248.828125 210.98509576020598 L 249.70703125 210.39482175584237 L 250.68359375 209.3731688398867 L 251.7578125 207.77869619478676 L 253.22265624999994 205.01591248528462 L 254.78515625 202.17644083242175 L 255.56640625 201.27174895210084 L 256.15234375 201.0039229957392 L 256.54296875 201.07225691410014 L 257.03125 201.47667395678647 L 257.6171875 202.47066484114833 L 258.203125 204.02497093367037 L 258.984375 206.8024482673325 L 260.05859375 210.65199183174684 L 260.44921875 211.4158988302628 L 260.7421875 211.51438455886432 L 260.9375 211.28622110571752 L 261.23046875 210.41549815883747 L 261.5234375 208.8182640634695 L 261.9140625 205.4306798848096 L 262.40234375 199.11741795394545 L 263.0859375 187.02731810082952 L 264.6484375 157.67874662545026 L 265.234375 150.5964512342869 L 265.72265625 146.92837757478588 L 266.11328125 145.29350391063952 L 266.40625 144.7224344729762 L 266.69921875 144.64757461793863 L 266.9921875 145.02083779233436 L 267.3828125 146.13984828011243 L 267.87109375 148.36033908036418 L 269.53125 156.9712970821791 L 269.82421875 157.52162866185017 L 270.01953125 157.5733672776226 L 270.21484375 157.347832123026 L 270.5078125 156.463638041615 L 270.8984375 154.28716146071872 L 271.58203125 148.66514832641576 L 272.0703125 145.24697591518978 L 272.265625 144.6583821360363 L 272.3247141951573 144.62050543543845 L 272.4609375 144.84810533390547 L 272.65625 146.16449464740387 L 272.8515625 149.14496473341293 L 273.14453125 158.421696233248 L 273.4375 175.2888715393269 L 274.0234375 210.55648106512757 L 274.1219562805519 211.53625091458673 L 274.21875 210.70083798120226 L 274.6711864687959 201.00059281312988 L 274.8046875 202.87265571980777 L 275.04892378270006 211.53625091458667 L 275.09765624999994 210.2835353133081 L 275.1953125 196.7953835226852 L 275.41702501221584 144.62050543543856 L 275.53267629572514 211.53625091458662 L 275.53861679911284 -6.5" stroke-linecap="round" stroke-linejoin="round" stroke-miterlimit="10" stroke-width="3.5" stroke-dasharray=""/></g></g></g><g id="labels-5eb58663"/><g id="labels-5eb58663"/></g></svg>