<svg version="1.1" xmlns="http://www.w3.org/2000/svg" xmlns:xlink="http://www.w3.org/1999/xlink" width="800" height="800"><defs/><g transform="scale(2,2)"><g id="background-30869746"><rect fill="white" stroke="none" x="0" y="0" width="400" height="400" class="dcg-svg-background"/></g><g id="graphpaper-30869746"><g id="grid-30869746"><g><path fill="none" stroke="rgb(0,0,0)" class="dcg-svg-minor-gridline" paint-order="fill stroke markers" d=" M 33.5 0 L 33.5 400" stroke-opacity="0.3" stroke-miterlimit="10" stroke-dasharray=""/><path fill="none" stroke="rgb(0,0,0)" class="dcg-svg-minor-gridline" paint-order="fill stroke markers" d=" M 66.5 0 L 66.5 400" stroke-opacity="0.3" stroke-miterlimit="10" stroke-dasharray=""/><path fill="none" stroke="rgb(0,0,0)" class="dcg-svg-minor-gridline" paint-order="fill stroke markers" d=" M 100.5 0 L 100.5 400" stroke-opacity="0.3" stroke-miterlimit="10" stroke-dasharray=""/><path fill="none" stroke="rgb(0,0,0)" class="dcg-svg-minor-gridline" paint-order="fill stroke markers" d=" M 133.5 0 L 133.5 400" stroke-opacity="0.3" stroke-miterlimit="10" stroke-dasharray=""/><path fill="none" stroke="rgb(0,0,0)" class="dcg-svg-minor-gridline" paint-order="fill stroke markers" d=" M 166.5 0 L 166.5 400" stroke-opacity="0.3" stroke-miterlimit="10" stroke-dasharray=""/><path fill="none" stroke="rgb(0,0,0)" class="dcg-svg-minor-gridline" paint-order="fill stroke markers" d=" M 233.5 0 L 233.5 400" stroke-opacity="0.3" stroke-miterlimit="10" stroke-dasharray=""/><path fill="none" stroke="rgb(0,0,0)" class="dcg-svg-minor-gridline" paint-order="fill stroke markers" d=" M 266.5 0 L 266.5 400" stroke-opacity="0.3" stroke-miterlimit="10" stroke-dasharray=""/><path fill="none" stroke="rgb(0,0,0)" class="dcg-svg-minor-gridline" paint-order="fill stroke markers" d=" M 300.5 0 L 300.5 400" stroke-opacity="0.3" stroke-miterlimit="10" stroke-dasharray=""/><path fill="none" stroke="rgb(0,0,0)" class="dcg-svg-minor-gridline" paint-order="fill stroke markers" d=" M 333.5 0 L 333.5 400" stroke-opacity="0.3" stroke-miterlimit="10" stroke-dasharray=""/><path fill="none" stroke="rgb(0,0,0)" class="dcg-svg-minor-gridline" paint-order="fill stroke markers" d=" M 366.5 0 L 366.5 400" stroke-opacity="0.3" stroke-miterlimit="10" stroke-dasharray=""/><path fill="none" stroke="rgb(0,0,0)" class="dcg-svg-minor-gridline" paint-order="fill stroke markers" d=" M 0 366.5 L 400 366.5" stroke-opacity="0.3" stroke-miterlimit="10" stroke-dasharray=""/><path fill="none" stroke="rgb(0,0,0)" class="dcg-svg-minor-gridline" paint-order="fill stroke markers" d=" M 0 333.5 L 400 333.5" stroke-opacity="0.3" stroke-miterlimit="10" stroke-dasharray=""/><path fill="none" stroke="rgb(0,0,0)" class="dcg-svg-minor-gridline" paint-order="fill stroke markers" d=" M 0 300.5 L 400 300.5" stroke-opacity="0.3" stroke-miterlimit="10" stroke-dasharray=""/><path fill="none" stroke="rgb(0,0,0)" class="dcg-svg-minor-gridline" paint-order="fill stroke markers" d=" M 0 266.5 L 400 266.5" stroke-opacity="0.3" stroke-miterlimit="10" stroke-dasharray=""/><path fill="none" stroke="rgb(0,0,0)" class="dcg-svg-minor-gridline" paint-order="fill stroke markers" d=" M 0 233.5 L 400 233.5" stroke-opacity="0.3" stroke-miterlimit="10" stroke-dasharray=""/><path fill="none" stroke="rgb(0,0,0)" class="dcg-svg-minor-gridline" paint-order="fill stroke markers" d=" M 0 166.5 L 400 166.5" stroke-opacity="0.3" stroke-miterlimit="10" stroke-dasharray=""/><path fill="none" stroke="rgb(0,0,0)" class="dcg-svg-minor-gridline" paint-order="fill stroke markers" d=" M 0 133.5 L 400 133.5" stroke-opacity="0.3" stroke-miterlimit="10" stroke-dasharray=""/><path fill="none" stroke="rgb(0,0,0)" class="dcg-svg-minor-gridline" paint-order="fill stroke markers" d=" M 0 100.5 L 400 100.5" stroke-opacity="0.3" stroke-miterlimit="10" stroke-dasharray=""/><path fill="none" stroke="rgb(0,0,0)" class="dcg-svg-minor-gridline" paint-order="fill stroke markers" d=" M 0 66.5 L 400 66.5" stroke-opacity="0.3" stroke-miterlimit="10" stroke-dasharray=""/><path fill="none" stroke="rgb(0,0,0)" class="dcg-svg-minor-gridline" paint-order="fill stroke markers" d=" M 0 33.5 L 400 33.5" stroke-opacity="0.3" stroke-miterlimit="10" stroke-dasharray=""/><path fill="none" stroke="rgb(0,0,0)" class="dcg-svg-major-gridline" paint-order="fill stroke markers" d=" M 66.5 0 L 66.5 400" stroke-opacity="0.4285714285714285" stroke-miterlimit="10" stroke-dasharray=""/><path fill="none" stroke="rgb(0,0,0)" class="dcg-svg-major-gridline" paint-order="fill stroke markers" d=" M 333.5 0 L 333.5 400" stroke-opacity="0.4285714285714285" stroke-miterlimit="10" stroke-dasharray=""/><path fill="none" stroke="rgb(0,0,0)" class="dcg-svg-major-gridline" paint-order="fill stroke markers" d=" M 0 333.5 L 400 333.5" stroke-opacity="0.4285714285714285" stroke-miterlimit="10" stroke-dasharray=""/><path fill="none" stroke="rgb(0,0,0)" class="dcg-svg-major-gridline" paint-order="fill stroke markers" d=" M 0 66.5 L 400 66.5" stroke-opacity="0.4285714285714285" stroke-miterlimit="10" stroke-dasharray=""/></g></g><g id="axis-30869746"><g id="yaxis-30869746"><title>Y axis</title><g><path fill="none" stroke="rgb(0,0,0)" class="dcg-svg-axis-line" paint-order="fill stroke markers" d=" M 200 0 L 200 400" stroke-opacity="0.9" stroke-miterlimit="10" stroke-width="2" stroke-dasharray=""/></g></g><g id="xaxis-30869746"><title>X axis</title><g><path fill="none" stroke="rgb(0,0,0)" class="dcg-svg-axis-line" paint-order="fill stroke markers" d=" M 0 200 L 400 200" stroke-opacity="0.9" stroke-miterlimit="10" stroke-width="2" stroke-dasharray=""/></g></g><g><g class="dcg-svg-axis-value"><text fill="none" stroke="#ffffff" font-family="Arial" font-size="17px" font-style="normal" font-weight="normal" text-decoration="normal" x="190.272705078125" y="218.124" text-anchor="middle" stroke-miterlimit="2" stroke-width="3" stroke-dasharray="">0</text><text fill="#000000" stroke="none" font-family="Arial" font-size="17px" font-style="normal" font-weight="normal" text-decoration="normal" x="190.272705078125" y="218.124" text-anchor="middle">0</text></g><g class="dcg-svg-axis-value"><text fill="none" stroke="#ffffff" font-family="Arial" font-size="17px" font-style="normal" font-weight="normal" text-decoration="normal" x="63.83610026041666" y="218.124" text-anchor="middle" stroke-miterlimit="2" stroke-width="3" stroke-dasharray="">-2</text><text fill="#000000" stroke="none" font-family="Arial" font-size="17px" font-style="normal" font-weight="normal" text-decoration="normal" x="63.83610026041666" y="218.124" text-anchor="middle">-2</text></g><g class="dcg-svg-axis-value"><text fill="none" stroke="#ffffff" font-family="Arial" font-size="17px" font-style="normal" font-weight="normal" text-decoration="normal" x="333.33333333333337" y="218.124" text-anchor="middle" stroke-miterlimit="2" stroke-width="3" stroke-dasharray="">2</text><text fill="#000000" stroke="none" font-family="Arial" font-size="17px" font-style="normal" font-weight="normal" text-decoration="normal" x="333.33333333333337" y="218.124" text-anchor="middle">2</text></g><g class="dcg-svg-axis-value"><text fill="none" stroke="#ffffff" font-family="Arial" font-size="17px" font-style="normal" font-weight="normal" text-decoration="normal" x="187.442138671875" y="337.9573333333334" text-anchor="middle" stroke-miterlimit="2" stroke-width="3" stroke-dasharray="">-2</text><text fill="#000000" stroke="none" font-family="Arial" font-size="17px" font-style="normal" font-weight="normal" text-decoration="normal" x="187.442138671875" y="337.9573333333334" text-anchor="middle">-2</text></g><g class="dcg-svg-axis-value"><text fill="none" stroke="#ffffff" font-family="Arial" font-size="17px" font-style="normal" font-weight="normal" text-decoration="normal" x="190.272705078125" y="71.29066666666665" text-anchor="middle" stroke-miterlimit="2" stroke-width="3" stroke-dasharray="">2</text><text fill="#000000" stroke="none" font-family="Arial" font-size="17px" font-style="normal" font-weight="normal" text-decoration="normal" x="190.272705078125" y="71.29066666666665" text-anchor="middle">2</text></g></g></g></g><g id="expressions-30869746"><g id="sketch-30869746"><title>Expression 1</title><path fill="#fa7e19" stroke="none" paint-order="stroke fill markers" d="" fill-opacity="0.4"/><g><path fill="none" stroke="#fa7e19" class="dcg-svg-curve" paint-order="fill stroke markers" d=" M 42.058165099966146 -6.5 L 42.058165099966146 -6.5 L 43.359375 2.5807909667491913 L 46.97265625 26.39753419207409 L 50.5859375 48.86569855734706 L 54.1015625 69.46250395849347 L 57.51953125 88.31996914232148 L 60.9375 106.05387687683105 L 64.2578125 122.23080107942224 L 67.578125 137.3975969851017 L 70.80078125 151.17570707807317 L 74.02343749999999 164.04810203239322 L 77.14843749999999 175.68681938573718 L 80.27343749999999 186.51572419330478 L 83.30078124999999 196.2534169317223 L 86.32812499999999 205.26917949318886 L 89.35546874999999 213.58173977350816 L 92.28515624999999 220.97425042884424 L 95.21484374999999 227.7427074383013 L 98.14453124999999 233.90408415580168 L 100.9765625 239.29897295311093 L 103.80859375 244.1577715682797 L 106.640625 248.49581196904182 L 109.5703125 252.45175594463944 L 112.40234375 255.77764947665855 L 115.13671875 258.53870356222615 L 117.7734375 260.7953722588718 L 120.3125 262.60361671447754 L 122.75390625 264.01515976758674 L 125.1953125 265.1159175671637 L 127.5390625 265.8893761225045 L 129.8828125 266.39415780082345 L 132.2265625 266.6389529593289 L 134.66796875 266.62685595219955 L 137.109375 266.3519077003002 L 139.6484375 265.7976876012981 L 142.28515625 264.9443286587484 L 145.01953125 263.77344873035327 L 147.8515625 262.2684051282704 L 150.87890625 260.3477586177178 L 154.1015625 257.96972708776593 L 157.51953125 255.09647127473727 L 161.23046875 251.59851986682042 L 165.234375 247.42125198245049 L 169.62890625 242.4050208297558 L 174.51171875 236.36958779534325 L 180.078125 228.9933182299137 L 186.71875 219.65832114219666 L 195.41015625 206.87388769583777 L 215.0390625 177.82406779006124 L 221.6796875 168.62680381163955 L 227.44140625 161.1626157653518 L 232.421875 155.20131811499596 L 236.81640625 150.38944614352658 L 240.8203125 146.42164641991258 L 244.53125 143.13765168190002 L 247.94921875 140.47832613578066 L 251.171875 138.31681236624718 L 254.19921875 136.61265721311793 L 257.03125 135.32162308692932 L 259.765625 134.3679077923298 L 262.3046875 133.75210082158446 L 264.84375 133.40741991996765 L 267.28515625 133.34196686046198 L 269.62890625 133.53369199903682 L 271.97265625 133.98359316634014 L 274.31640625 134.7003607195802 L 276.66015625 135.69268501596525 L 279.00390625 136.96925641270354 L 281.4453125 138.6106469668448 L 283.88671875 140.57971754809842 L 286.42578125 142.98571260878816 L 289.0625 145.8824634552002 L 291.796875 149.32812079787254 L 294.7265625 153.53436516597867 L 297.55859375 158.12189186690375 L 300.390625 163.23757842183113 L 303.22265625 168.8967567984946 L 306.0546875 175.11475896462798 L 308.984375 182.1515552699566 L 311.9140625 189.81976034119725 L 314.84375 198.13634753227234 L 317.87109375 207.42934531299397 L 320.8984375 217.45152277871966 L 323.92578125 228.22160782525316 L 327.05078125 240.14345580944791 L 330.17578125 252.90279673645273 L 333.3984375 266.95982618257403 L 336.62109375 281.9520082208328 L 339.94140625 298.4004551661201 L 343.26171875 315.8902789815329 L 346.6796875 335.00834172591567 L 350.09765625 355.28307567583397 L 353.61328125 377.3721896694042 L 357.12890625 400.7428597775288 L 357.9483359962007 406.5" stroke-linecap="round" stroke-linejoin="round" stroke-miterlimit="10" stroke-width="3.5" stroke-dasharray=""/></g></g></g><g id="labels-30869746"/><g id="labels-30869746"/></g></svg>