<svg version="1.1" xmlns="http://www.w3.org/2000/svg" xmlns:xlink="http://www.w3.org/1999/xlink" width="800" height="800"><defs/><g transform="scale(2,2)"><g id="background-51e5a3d5"><rect fill="white" stroke="none" x="0" y="0" width="400" height="400" class="dcg-svg-background"/></g><g id="graphpaper-51e5a3d5"><g id="grid-51e5a3d5"><g><path fill="none" stroke="rgb(0,0,0)" class="dcg-svg-minor-gridline" paint-order="fill stroke markers" d=" M 27.5 0 L 27.5 400" stroke-opacity="0.3" stroke-miterlimit="10" stroke-dasharray=""/><path fill="none" stroke="rgb(0,0,0)" class="dcg-svg-minor-gridline" paint-order="fill stroke markers" d=" M 86.5 0 L 86.5 400" stroke-opacity="0.3" stroke-miterlimit="10" stroke-dasharray=""/><path fill="none" stroke="rgb(0,0,0)" class="dcg-svg-minor-gridline" paint-order="fill stroke markers" d=" M 115.5 0 L 115.5 400" stroke-opacity="0.3" stroke-miterlimit="10" stroke-dasharray=""/><path fill="none" stroke="rgb(0,0,0)" class="dcg-svg-minor-gridline" paint-order="fill stroke markers" d=" M 145.5 0 L 145.5 400" stroke-opacity="0.3" stroke-miterlimit="10" stroke-dasharray=""/><path fill="none" stroke="rgb(0,0,0)" class="dcg-svg-minor-gridline" paint-order="fill stroke markers" d=" M 174.5 0 L 174.5 400" stroke-opacity="0.3" stroke-miterlimit="10" stroke-dasharray=""/><path fill="none" stroke="rgb(0,0,0)" class="dcg-svg-minor-gridline" paint-order="fill stroke markers" d=" M 204.5 0 L 204.5 400" stroke-opacity="0.3" stroke-miterlimit="10" stroke-dasharray=""/><path fill="none" stroke="rgb(0,0,0)" class="dcg-svg-minor-gridline" paint-order="fill stroke markers" d=" M 234.5 0 L 234.5 400" stroke-opacity="0.3" stroke-miterlimit="10" stroke-dasharray=""/><path fill="none" stroke="rgb(0,0,0)" class="dcg-svg-minor-gridline" paint-order="fill stroke markers" d=" M 263.5 0 L 263.5 400" stroke-opacity="0.3" stroke-miterlimit="10" stroke-dasharray=""/><path fill="none" stroke="rgb(0,0,0)" class="dcg-svg-minor-gridline" paint-order="fill stroke markers" d=" M 293.5 0 L 293.5 400" stroke-opacity="0.3" stroke-miterlimit="10" stroke-dasharray=""/><path fill="none" stroke="rgb(0,0,0)" class="dcg-svg-minor-gridline" paint-order="fill stroke markers" d=" M 322.5 0 L 322.5 400" stroke-opacity="0.3" stroke-miterlimit="10" stroke-dasharray=""/><path fill="none" stroke="rgb(0,0,0)" class="dcg-svg-minor-gridline" paint-order="fill stroke markers" d=" M 352.5 0 L 352.5 400" stroke-opacity="0.3" stroke-miterlimit="10" stroke-dasharray=""/><path fill="none" stroke="rgb(0,0,0)" class="dcg-svg-minor-gridline" paint-order="fill stroke markers" d=" M 381.5 0 L 381.5 400" stroke-opacity="0.3" stroke-miterlimit="10" stroke-dasharray=""/><path fill="none" stroke="rgb(0,0,0)" class="dcg-svg-minor-gridline" paint-order="fill stroke markers" d=" M 0 372.5 L 400 372.5" stroke-opacity="0.3" stroke-miterlimit="10" stroke-dasharray=""/><path fill="none" stroke="rgb(0,0,0)" class="dcg-svg-minor-gridline" paint-order="fill stroke markers" d=" M 0 313.5 L 400 313.5" stroke-opacity="0.3" stroke-miterlimit="10" stroke-dasharray=""/><path fill="none" stroke="rgb(0,0,0)" class="dcg-svg-minor-gridline" paint-order="fill stroke markers" d=" M 0 283.5 L 400 283.5" stroke-opacity="0.3" stroke-miterlimit="10" stroke-dasharray=""/><path fill="none" stroke="rgb(0,0,0)" class="dcg-svg-minor-gridline" paint-order="fill stroke markers" d=" M 0 253.5 L 400 253.5" stroke-opacity="0.3" stroke-miterlimit="10" stroke-dasharray=""/><path fill="none" stroke="rgb(0,0,0)" class="dcg-svg-minor-gridline" paint-order="fill stroke markers" d=" M 0 224.5 L 400 224.5" stroke-opacity="0.3" stroke-miterlimit="10" stroke-dasharray=""/><path fill="none" stroke="rgb(0,0,0)" class="dcg-svg-minor-gridline" paint-order="fill stroke markers" d=" M 0 194.5 L 400 194.5" stroke-opacity="0.3" stroke-miterlimit="10" stroke-dasharray=""/><path fill="none" stroke="rgb(0,0,0)" class="dcg-svg-minor-gridline" paint-order="fill stroke markers" d=" M 0 165.5 L 400 165.5" stroke-opacity="0.3" stroke-miterlimit="10" stroke-dasharray=""/><path fill="none" stroke="rgb(0,0,0)" class="dcg-svg-minor-gridline" paint-order="fill stroke markers" d=" M 0 135.5 L 400 135.5" stroke-opacity="0.3" stroke-miterlimit="10" stroke-dasharray=""/><path fill="none" stroke="rgb(0,0,0)" class="dcg-svg-minor-gridline" paint-order="fill stroke markers" d=" M 0 106.5 L 400 106.5" stroke-opacity="0.3" stroke-miterlimit="10" stroke-dasharray=""/><path fill="none" stroke="rgb(0,0,0)" class="dcg-svg-minor-gridline" paint-order="fill stroke markers" d=" M 0 76.5 L 400 76.5" stroke-opacity="0.3" stroke-miterlimit="10" stroke-dasharray=""/><path fill="none" stroke="rgb(0,0,0)" class="dcg-svg-minor-gridline" paint-order="fill stroke markers" d=" M 0 46.5 L 400 46.5" stroke-opacity="0.3" stroke-miterlimit="10" stroke-dasharray=""/><path fill="none" stroke="rgb(0,0,0)" class="dcg-svg-minor-gridline" paint-order="fill stroke markers" d=" M 0 17.5 L 400 17.5" stroke-opacity="0.3" stroke-miterlimit="10" stroke-dasharray=""/><path fill="none" stroke="rgb(0,0,0)" class="dcg-svg-major-gridline" paint-order="fill stroke markers" d=" M 204.5 0 L 204.5 400" stroke-opacity="0.4285714285714285" stroke-miterlimit="10" stroke-dasharray=""/><path fill="none" stroke="rgb(0,0,0)" class="dcg-svg-major-gridline" paint-order="fill stroke markers" d=" M 352.5 0 L 352.5 400" stroke-opacity="0.4285714285714285" stroke-miterlimit="10" stroke-dasharray=""/><path fill="none" stroke="rgb(0,0,0)" class="dcg-svg-major-gridline" paint-order="fill stroke markers" d=" M 0 194.5 L 400 194.5" stroke-opacity="0.4285714285714285" stroke-miterlimit="10" stroke-dasharray=""/><path fill="none" stroke="rgb(0,0,0)" class="dcg-svg-major-gridline" paint-order="fill stroke markers" d=" M 0 46.5 L 400 46.5" stroke-opacity="0.4285714285714285" stroke-miterlimit="10" stroke-dasharray=""/></g></g><g id="axis-51e5a3d5"><g id="yaxis-51e5a3d5"><title>Y axis</title><g><path fill="none" stroke="rgb(0,0,0)" class="dcg-svg-axis-line" paint-order="fill stroke markers" d=" M 57 0 L 57 400" stroke-opacity="0.9" stroke-miterlimit="10" stroke-width="2" stroke-dasharray=""/></g></g><g id="xaxis-51e5a3d5"><title>X axis</title><g><path fill="none" stroke="rgb(0,0,0)" class="dcg-svg-axis-line" paint-order="fill stroke markers" d=" M 0 343 L 400 343" stroke-opacity="0.9" stroke-miterlimit="10" stroke-width="2" stroke-dasharray=""/></g></g><g><g class="dcg-svg-axis-value"><text fill="none" stroke="#ffffff" font-family="Arial" font-size="17px" font-style="normal" font-weight="normal" text-decoration="normal" x="46.8833194329562" y="360.82905204369365" text-anchor="middle" stroke-miterlimit="2" stroke-width="3" stroke-dasharray="">0</text><text fill="#000000" stroke="none" font-family="Arial" font-size="17px" font-style="normal" font-weight="normal" text-decoration="normal" x="46.8833194329562" y="360.82905204369365" text-anchor="middle">0</text></g><g class="dcg-svg-axis-value"><text fill="none" stroke="#ffffff" font-family="Arial" font-size="17px" font-style="normal" font-weight="normal" text-decoration="normal" x="204.48228294572766" y="360.82905204369365" text-anchor="middle" stroke-miterlimit="2" stroke-width="3" stroke-dasharray="">1</text><text fill="#000000" stroke="none" font-family="Arial" font-size="17px" font-style="normal" font-weight="normal" text-decoration="normal" x="204.48228294572766" y="360.82905204369365" text-anchor="middle">1</text></g><g class="dcg-svg-axis-value"><text fill="none" stroke="#ffffff" font-family="Arial" font-size="17px" font-style="normal" font-weight="normal" text-decoration="normal" x="352.3539515366241" y="360.82905204369365" text-anchor="middle" stroke-miterlimit="2" stroke-width="3" stroke-dasharray="">2</text><text fill="#000000" stroke="none" font-family="Arial" font-size="17px" font-style="normal" font-weight="normal" text-decoration="normal" x="352.3539515366241" y="360.82905204369365" text-anchor="middle">2</text></g><g class="dcg-svg-axis-value"><text fill="none" stroke="#ffffff" font-family="Arial" font-size="17px" font-style="normal" font-weight="normal" text-decoration="normal" x="46.8833194329562" y="199.4573834527944" text-anchor="middle" stroke-miterlimit="2" stroke-width="3" stroke-dasharray="">1</text><text fill="#000000" stroke="none" font-family="Arial" font-size="17px" font-style="normal" font-weight="normal" text-decoration="normal" x="46.8833194329562" y="199.4573834527944" text-anchor="middle">1</text></g><g class="dcg-svg-axis-value"><text fill="none" stroke="#ffffff" font-family="Arial" font-size="17px" font-style="normal" font-weight="normal" text-decoration="normal" x="46.8833194329562" y="51.58571486189519" text-anchor="middle" stroke-miterlimit="2" stroke-width="3" stroke-dasharray="">2</text><text fill="#000000" stroke="none" font-family="Arial" font-size="17px" font-style="normal" font-weight="normal" text-decoration="normal" x="46.8833194329562" y="51.58571486189519" text-anchor="middle">2</text></g></g></g></g><g id="expressions-51e5a3d5"><g id="sketch-51e5a3d5"><title>Expression 10</title><path fill="#348543" stroke="none" paint-order="stroke fill markers" d="" fill-opacity="0.4"/><g><path fill="none" stroke="#348543" class="dcg-svg-curve" paint-order="fill stroke markers" d=" M 0 389.9665627896334 L 0 389.9665627896334 L 11.5234375 379.8589720395654 L 24.316406250000007 369.01932794933106 L 39.74609375000001 356.32674119556117 L 72.4609375 329.90749473340105 L 89.6484375 315.7698506284151 L 102.83203125 304.57211371386455 L 114.453125 294.3403304786912 L 125.1953125 284.51023755428605 L 135.3515625 274.83374700754183 L 145.1171875 265.13580465591093 L 154.58984375 255.32500520671059 L 163.96484375 245.19429379969455 L 173.2421875 234.7320573039028 L 182.421875 223.93198963216807 L 191.69921875 212.54837039023184 L 200.9765625 200.6821941496454 L 210.44921875 188.0615666881268 L 220.01953124999997 174.7918369562075 L 229.6875 160.86226250759603 L 239.453125 146.26941482674528 L 249.51171875 130.711340942471 L 259.9609375 114.0159143047488 L 270.99609375 95.84557753278628 L 282.91015625 75.68594702711329 L 296.58203125 51.996311806888684 L 314.94140625 19.595748423965063 L 329.73224446495453 -6.5" stroke-linecap="round" stroke-linejoin="round" stroke-miterlimit="10" stroke-width="3.5" stroke-dasharray=""/></g></g><g id="sketch-51e5a3d5"><title>Expression 11</title><path fill="#fa7e19" stroke="none" paint-order="stroke fill markers" d="" fill-opacity="0.4"/><g><path fill="none" stroke="#fa7e19" class="dcg-svg-curve" paint-order="fill stroke markers" d=" M 0 380.8327429524189 L 0 380.8327429524189 L 12.109375000000007 372.27755948392286 L 25.87890625 362.89220985949953 L 43.06640625 351.52548951743773 L 92.48046875 319.05190129091324 L 106.05468749999999 309.6791574315338 L 118.06640625 301.0578550417676 L 129.1015625 292.80371455448375 L 139.55078125 284.64503343701296 L 149.51171875 276.5184904817394 L 159.1796875 268.27283706435844 L 168.65234375 259.8240352877625 L 177.9296875 251.17116190489548 L 187.109375 242.22069545380288 L 196.2890625 232.86613841189927 L 205.46875 223.09268108004989 L 214.64843749999997 212.8882893612275 L 223.92578125 202.1282591904505 L 233.30078125 190.79220989482118 L 242.87109375 178.7374074198423 L 252.63671875 165.93531447235299 L 262.59765625 152.36178542199096 L 272.75390625 137.9983264984587 L 283.10546875 122.83352643870182 L 293.75 106.7144755179317 L 304.8828125 89.32623365016178 L 316.69921875 70.33534773921673 L 329.58984375 49.077356598546714 L 344.53125 23.88353668340477 L 362.25309508665595 -6.5" stroke-linecap="round" stroke-linejoin="round" stroke-miterlimit="10" stroke-width="3.5" stroke-dasharray=""/></g></g><g id="sketch-51e5a3d5"><title>Expression 12</title><path fill="#c74440" stroke="none" paint-order="stroke fill markers" d="" fill-opacity="0.4"/><g><path fill="none" stroke="#c74440" class="dcg-svg-curve" paint-order="fill stroke markers" d=" M 21.109494803420823 406.5 L 21.109494803420823 406.5 L 30.175781250000004 390.3899831942312 L 53.22265625 348.8377775389615 L 87.98828125 286.1857650170229 L 104.39453125 257.1987515930583 L 118.1640625 233.3980758356447 L 130.56640625 212.4924232701208 L 141.9921875 193.76467802974278 L 152.63671875 176.84169894122834 L 162.79296875 161.2191417702554 L 172.4609375 146.8663902580485 L 181.8359375 133.46842409604335 L 190.91796875 121.00862572606479 L 199.80468749999997 109.33895225129586 L 208.30078125 98.68799808052347 L 216.40624999999997 89.00613885549853 L 224.21874999999997 80.13238577335409 L 231.8359375 71.92603294684841 L 239.16015625 64.46036218121128 L 246.2890625 57.60225504675134 L 253.22265625 51.32523373419201 L 259.9609375 45.601754810987416 L 266.50390625 40.40350107555679 L 272.94921875 35.63195291337581 L 279.296875 31.273437358513604 L 285.44921875 27.37295340266155 L 291.6015625 23.79184720898212 L 297.65625 20.579231440259377 L 303.61328125 17.719347130598976 L 309.47265625 15.196136005844494 L 315.33203125 12.958352975102855 L 321.19140625 11.003422381089706 L 327.05078125 9.328137048867575 L 332.91015625 7.928643983594611 L 338.76953125 6.8004300682730445 L 344.62890625 5.938307761497242 L 350.5859375 5.3285371404780335 L 356.54296875 4.98080589361507 L 362.59765625 4.887969254677614 L 368.75 5.053616700886039 L 375.09765625 5.488396880821654 L 381.54296875 6.191569287025743 L 388.18359375 7.1771464108977625 L 395.1171875 8.471184054267724 L 400 9.534095213439286" stroke-linecap="round" stroke-linejoin="round" stroke-miterlimit="10" stroke-width="3.5" stroke-dasharray=""/></g></g><g id="sketch-51e5a3d5"><title>Expression 13</title><path fill="#2d70b3" stroke="none" paint-order="stroke fill markers" d="" fill-opacity="0.4"/><g><path fill="none" stroke="#2d70b3" class="dcg-svg-curve" paint-order="fill stroke markers" d=" M 0 398.05894865205653 L 0 398.05894865205653 L 12.3046875 386.48052226553364 L 26.562499999999996 372.65797187188303 L 44.921875 354.4316401540485 L 91.2109375 308.2991486926475 L 105.56640625 294.5107494511643 L 117.87109375 283.079226451166 L 129.00390625 273.1181882218503 L 139.2578125 264.31654474228264 L 148.828125 256.4630800791834 L 157.91015625 249.36284087257388 L 166.6015625 242.91301877997677 L 175 237.0200866856589 L 183.10546875 231.66417758267406 L 190.91796875 226.82171562741462 L 198.53515625 222.4116590600732 L 206.0546875 218.3665613741306 L 213.37890624999997 214.72599923858 L 220.60546875 211.42670285891322 L 227.734375 208.4583010156397 L 234.86328125 205.77410071557424 L 241.9921875 203.3723383580952 L 249.12109375 201.24958492406495 L 256.25 199.40067937030494 L 263.4765625 197.7988046575187 L 270.80078125 196.44566981687368 L 278.22265625 195.34018825200056 L 285.83984375 194.4685143821864 L 293.75 193.8256066070299 L 302.05078125 193.41257008655626 L 311.03515625 193.23143695407592 L 320.99609375 193.29972691267815 L 332.8125 193.65261271292457 L 374.0234375 195.1332038214159 L 382.421875 195.02054956620924 L 389.74609375 194.6687992581575 L 396.38671875 194.09544287085345 L 400 193.66517667885645" stroke-linecap="round" stroke-linejoin="round" stroke-miterlimit="10" stroke-width="3.5" stroke-dasharray=""/></g></g></g><g id="labels-51e5a3d5"/><g id="labels-51e5a3d5"/></g></svg>