<svg version="1.1" xmlns="http://www.w3.org/2000/svg" xmlns:xlink="http://www.w3.org/1999/xlink" width="800" height="800"><defs/><g transform="scale(2,2)"><g id="background-14e87c08"><rect fill="white" stroke="none" x="0" y="0" width="400" height="400" class="dcg-svg-background"/></g><g id="graphpaper-14e87c08"><g id="grid-14e87c08"><g><path fill="none" stroke="rgb(0,0,0)" class="dcg-svg-minor-gridline" paint-order="fill stroke markers" d=" M 33.5 0 L 33.5 400" stroke-opacity="0.3" stroke-miterlimit="10" stroke-dasharray=""/><path fill="none" stroke="rgb(0,0,0)" class="dcg-svg-minor-gridline" paint-order="fill stroke markers" d=" M 66.5 0 L 66.5 400" stroke-opacity="0.3" stroke-miterlimit="10" stroke-dasharray=""/><path fill="none" stroke="rgb(0,0,0)" class="dcg-svg-minor-gridline" paint-order="fill stroke markers" d=" M 100.5 0 L 100.5 400" stroke-opacity="0.3" stroke-miterlimit="10" stroke-dasharray=""/><path fill="none" stroke="rgb(0,0,0)" class="dcg-svg-minor-gridline" paint-order="fill stroke markers" d=" M 133.5 0 L 133.5 400" stroke-opacity="0.3" stroke-miterlimit="10" stroke-dasharray=""/><path fill="none" stroke="rgb(0,0,0)" class="dcg-svg-minor-gridline" paint-order="fill stroke markers" d=" M 166.5 0 L 166.5 400" stroke-opacity="0.3" stroke-miterlimit="10" stroke-dasharray=""/><path fill="none" stroke="rgb(0,0,0)" class="dcg-svg-minor-gridline" paint-order="fill stroke markers" d=" M 233.5 0 L 233.5 400" stroke-opacity="0.3" stroke-miterlimit="10" stroke-dasharray=""/><path fill="none" stroke="rgb(0,0,0)" class="dcg-svg-minor-gridline" paint-order="fill stroke markers" d=" M 266.5 0 L 266.5 400" stroke-opacity="0.3" stroke-miterlimit="10" stroke-dasharray=""/><path fill="none" stroke="rgb(0,0,0)" class="dcg-svg-minor-gridline" paint-order="fill stroke markers" d=" M 300.5 0 L 300.5 400" stroke-opacity="0.3" stroke-miterlimit="10" stroke-dasharray=""/><path fill="none" stroke="rgb(0,0,0)" class="dcg-svg-minor-gridline" paint-order="fill stroke markers" d=" M 333.5 0 L 333.5 400" stroke-opacity="0.3" stroke-miterlimit="10" stroke-dasharray=""/><path fill="none" stroke="rgb(0,0,0)" class="dcg-svg-minor-gridline" paint-order="fill stroke markers" d=" M 366.5 0 L 366.5 400" stroke-opacity="0.3" stroke-miterlimit="10" stroke-dasharray=""/><path fill="none" stroke="rgb(0,0,0)" class="dcg-svg-minor-gridline" paint-order="fill stroke markers" d=" M 0 366.5 L 400 366.5" stroke-opacity="0.3" stroke-miterlimit="10" stroke-dasharray=""/><path fill="none" stroke="rgb(0,0,0)" class="dcg-svg-minor-gridline" paint-order="fill stroke markers" d=" M 0 333.5 L 400 333.5" stroke-opacity="0.3" stroke-miterlimit="10" stroke-dasharray=""/><path fill="none" stroke="rgb(0,0,0)" class="dcg-svg-minor-gridline" paint-order="fill stroke markers" d=" M 0 300.5 L 400 300.5" stroke-opacity="0.3" stroke-miterlimit="10" stroke-dasharray=""/><path fill="none" stroke="rgb(0,0,0)" class="dcg-svg-minor-gridline" paint-order="fill stroke markers" d=" M 0 266.5 L 400 266.5" stroke-opacity="0.3" stroke-miterlimit="10" stroke-dasharray=""/><path fill="none" stroke="rgb(0,0,0)" class="dcg-svg-minor-gridline" paint-order="fill stroke markers" d=" M 0 233.5 L 400 233.5" stroke-opacity="0.3" stroke-miterlimit="10" stroke-dasharray=""/><path fill="none" stroke="rgb(0,0,0)" class="dcg-svg-minor-gridline" paint-order="fill stroke markers" d=" M 0 166.5 L 400 166.5" stroke-opacity="0.3" stroke-miterlimit="10" stroke-dasharray=""/><path fill="none" stroke="rgb(0,0,0)" class="dcg-svg-minor-gridline" paint-order="fill stroke markers" d=" M 0 133.5 L 400 133.5" stroke-opacity="0.3" stroke-miterlimit="10" stroke-dasharray=""/><path fill="none" stroke="rgb(0,0,0)" class="dcg-svg-minor-gridline" paint-order="fill stroke markers" d=" M 0 100.5 L 400 100.5" stroke-opacity="0.3" stroke-miterlimit="10" stroke-dasharray=""/><path fill="none" stroke="rgb(0,0,0)" class="dcg-svg-minor-gridline" paint-order="fill stroke markers" d=" M 0 66.5 L 400 66.5" stroke-opacity="0.3" stroke-miterlimit="10" stroke-dasharray=""/><path fill="none" stroke="rgb(0,0,0)" class="dcg-svg-minor-gridline" paint-order="fill stroke markers" d=" M 0 33.5 L 400 33.5" stroke-opacity="0.3" stroke-miterlimit="10" stroke-dasharray=""/><path fill="none" stroke="rgb(0,0,0)" class="dcg-svg-major-gridline" paint-order="fill stroke markers" d=" M 66.5 0 L 66.5 400" stroke-opacity="0.4285714285714285" stroke-miterlimit="10" stroke-dasharray=""/><path fill="none" stroke="rgb(0,0,0)" class="dcg-svg-major-gridline" paint-order="fill stroke markers" d=" M 333.5 0 L 333.5 400" stroke-opacity="0.4285714285714285" stroke-miterlimit="10" stroke-dasharray=""/><path fill="none" stroke="rgb(0,0,0)" class="dcg-svg-major-gridline" paint-order="fill stroke markers" d=" M 0 333.5 L 400 333.5" stroke-opacity="0.4285714285714285" stroke-miterlimit="10" stroke-dasharray=""/><path fill="none" stroke="rgb(0,0,0)" class="dcg-svg-major-gridline" paint-order="fill stroke markers" d=" M 0 66.5 L 400 66.5" stroke-opacity="0.4285714285714285" stroke-miterlimit="10" stroke-dasharray=""/></g></g><g id="axis-14e87c08"><g id="yaxis-14e87c08"><title>Y axis</title><g><path fill="none" stroke="rgb(0,0,0)" class="dcg-svg-axis-line" paint-order="fill stroke markers" d=" M 200 0 L 200 400" stroke-opacity="0.9" stroke-miterlimit="10" stroke-width="2" stroke-dasharray=""/></g></g><g id="xaxis-14e87c08"><title>X axis</title><g><path fill="none" stroke="rgb(0,0,0)" class="dcg-svg-axis-line" paint-order="fill stroke markers" d=" M 0 200 L 400 200" stroke-opacity="0.9" stroke-miterlimit="10" stroke-width="2" stroke-dasharray=""/></g></g><g><g class="dcg-svg-axis-value"><text fill="none" stroke="#ffffff" font-family="Arial" font-size="17px" font-style="normal" font-weight="normal" text-decoration="normal" x="190.272705078125" y="218.124" text-anchor="middle" stroke-miterlimit="2" stroke-width="3" stroke-dasharray="">0</text><text fill="#000000" stroke="none" font-family="Arial" font-size="17px" font-style="normal" font-weight="normal" text-decoration="normal" x="190.272705078125" y="218.124" text-anchor="middle">0</text></g><g class="dcg-svg-axis-value"><text fill="none" stroke="#ffffff" font-family="Arial" font-size="17px" font-style="normal" font-weight="normal" text-decoration="normal" x="63.83610026041666" y="218.124" text-anchor="middle" stroke-miterlimit="2" stroke-width="3" stroke-dasharray="">-2</text><text fill="#000000" stroke="none" font-family="Arial" font-size="17px" font-style="normal" font-weight="normal" text-decoration="normal" x="63.83610026041666" y="218.124" text-anchor="middle">-2</text></g><g class="dcg-svg-axis-value"><text fill="none" stroke="#ffffff" font-family="Arial" font-size="17px" font-style="normal" font-weight="normal" text-decoration="normal" x="333.33333333333337" y="218.124" text-anchor="middle" stroke-miterlimit="2" stroke-width="3" stroke-dasharray="">2</text><text fill="#000000" stroke="none" font-family="Arial" font-size="17px" font-style="normal" font-weight="normal" text-decoration="normal" x="333.33333333333337" y="218.124" text-anchor="middle">2</text></g><g class="dcg-svg-axis-value"><text fill="none" stroke="#ffffff" font-family="Arial" font-size="17px" font-style="normal" font-weight="normal" text-decoration="normal" x="187.442138671875" y="337.9573333333334" text-anchor="middle" stroke-miterlimit="2" stroke-width="3" stroke-dasharray="">-2</text><text fill="#000000" stroke="none" font-family="Arial" font-size="17px" font-style="normal" font-weight="normal" text-decoration="normal" x="187.442138671875" y="337.9573333333334" text-anchor="middle">-2</text></g><g class="dcg-svg-axis-value"><text fill="none" stroke="#ffffff" font-family="Arial" font-size="17px" font-style="normal" font-weight="normal" text-decoration="normal" x="190.272705078125" y="71.29066666666665" text-anchor="middle" stroke-miterlimit="2" stroke-width="3" stroke-dasharray="">2</text><text fill="#000000" stroke="none" font-family="Arial" font-size="17px" font-style="normal" font-weight="normal" text-decoration="normal" x="190.272705078125" y="71.29066666666665" text-anchor="middle">2</text></g></g></g></g><g id="expressions-14e87c08"><g id="sketch-14e87c08"><title>Expression 7</title><path fill="#6042a6" stroke="none" paint-order="stroke fill markers" d="" fill-opacity="0.4"/><g><path fill="none" stroke="#6042a6" class="dcg-svg-curve" paint-order="fill stroke markers" d=" M 127.83203125 406.5 L 127.83203125 406.5 L 127.83203125 266.4306587246157 L 127.93246341786926 266.37259377840854 L 127.97532093339088 266.5952782919623 L 128.22265625 266.39148255463573 L 128.41318606733287 266.6162544294821 L 128.61328125 266.4536659577019 L 128.80859375 266.5679873088836 L 129.1015625 266.3753295022252 L 130.2734375 266.4751894402465 L 130.56640625 266.6072836723254 L 131.0546875 266.42960308001597 L 131.32210280671347 266.61625442948207 L 131.640625 266.45229870918337 L 131.8359375 266.57354876654256 L 131.99188405845615 266.3785767111714 L 132.32421875 266.5540443491405 L 132.6171875 266.4164408485188 L 132.9564059022842 266.5952782919623 L 134.765625 266.5443037159859 L 135.05859375 266.6167176498617 L 136.1328125 266.4241077661406 L 137.40234375 266.5466817479738 L 146.875 266.523957050914 L 147.4609375 266.61249578997297 L 148.73046875 266.46769506597104 L 149.51171875 266.5930505552233 L 152.24609375 266.55471454162364 L 152.5390625 266.6067127455601 L 153.125 266.41906985696465 L 153.61328125 266.59228553668555 L 154.1015625 266.3869614008941 L 154.78515625 266.5862914744009 L 155.6640625 266.4121640076372 L 156.54296875 266.57510834508446 L 157.12890625 266.5930832821053 L 158.88671875 266.3748005247531 L 163.76953125 266.46403141220594 L 165.13671875 266.5909469948294 L 166.9921875 266.4198162650511 L 172.16796875 266.5967562895904 L 174.70703125 266.4640824716589 L 176.171875 266.57151450906167 L 177.83203125 266.37621049781984 L 182.2265625 266.45844266212634 L 183.203125 266.5874958631741 L 184.27734375 266.4296126062143 L 185.05859375 266.53667496518887 L 185.33415167256766 266.37259377840854 L 185.9375 266.5038392897282 L 186.23046875 266.40812817712265 L 186.62109375 266.6051168510185 L 187.109375 266.3936952547853 L 187.79296875 266.5871639458155 L 189.6484375 266.5041443867614 L 189.90780571599356 266.62230599182635 L 190.91796875 266.4800504253351 L 191.50390625 266.5399799491738 L 192.48046875 266.50185823653567 L 192.73139293198633 266.62230599182635 L 193.45703125 266.48583667899914 L 193.84765625 266.59177511766967 L 195.21484375 266.5374360496091 L 195.41015625 266.5696263094595 L 195.5854885133322 266.3785767111714 L 195.8984375 266.5604890110199 L 196.0525124684424 266.37259377840854 L 196.38671875 266.5746295698927 L 196.6810076101391 266.4113968488804 L 196.97265625 266.56198183092306 L 197.16796875 266.5821594302808 L 197.57234216960094 266.3731438057883 L 197.8515625 266.47272046134026 L 198.0274658669417 266.61625442948207 L 198.4375 266.43091619331193 L 198.62893220422902 266.61625442948207 L 198.78682858534086 266.37259377840854 L 198.91614391793811 266.62230599182635 L 199.03196995979303 266.3785767111714 L 199.13785692765958 266.62230599182635 L 199.23519376625407 266.37259377840854 L 199.3219498549541 266.5952782919623 L 199.40506575036602 266.37259377840854 L 199.49007883732483 266.62230599182635 L 199.72335404991068 266.37259377840854 L 199.7859133955005 266.6162544294821 L 199.90234375 265.5607844131888 L 200.21408659665204 133.38374557051787 L 200.27664595008932 133.62740622159146 L 200.50992116267517 133.37769400817368 L 200.59493424963398 133.62740622159146 L 200.6780501450459 133.4047217080377 L 200.76480623374593 133.62740622159146 L 200.86214307234042 133.37769400817365 L 200.96803004020697 133.6214232888286 L 201.08385608206189 133.37769400817368 L 201.21317141465914 133.62740622159146 L 201.46484375 133.47432656448976 L 201.64205971907734 133.58860315111968 L 202.1484375 133.5272795386597 L 202.42765783039906 133.6268561942117 L 202.734375 133.5118416966438 L 202.91511957767318 133.3837455705179 L 203.41796875 133.57162445628865 L 203.80859375 133.47495586484536 L 204.00390625 133.5927111111044 L 204.17801430312957 133.37769400817368 L 204.4921875 133.567305290412 L 204.6721648550696 133.37769400817365 L 205.078125 133.58645692984823 L 205.43360089018628 133.4047217080377 L 207.03125 133.50257037873465 L 207.32421875 133.38550228404614 L 208.0078125 133.58645966210713 L 208.7890625 133.46023701708526 L 209.765625 133.5291481143264 L 210.15625 133.38620751714575 L 210.83984375 133.56424112455193 L 211.32068580331244 133.4047217080377 L 212.79296875 133.5574733933079 L 213.0859375 133.6059943087168 L 213.57421875 133.42608590344327 L 213.860367379515 133.62142328882862 L 214.453125 133.4982284714458 L 214.74609375 133.60707366164718 L 215.234375 133.39740777182797 L 216.015625 133.58756967195654 L 216.796875 133.41250413682587 L 217.28515625 133.41443737275284 L 218.65234375 133.6235740548105 L 223.14453125 133.55997281698484 L 224.70703125 133.42724836304845 L 226.26953125 133.5852184643141 L 232.12890625 133.48094003469203 L 233.59375 133.58424041438946 L 236.5234375 133.57788210490412 L 238.18359375 133.62682336586096 L 242.3828125 133.51727974427584 L 243.359375 133.40507827105884 L 244.7265625 133.5630007723572 L 245.60546875 133.44487582515222 L 246.09375 133.60154401211065 L 246.58203125 133.39243571787523 L 247.16796875 133.57289011123657 L 247.65625 133.39762763265816 L 248.33984375 133.59714414569268 L 249.12109375 133.40540287925495 L 252.34375 133.43867380109592 L 252.83203125 133.39374389330672 L 254.19921875 133.59669607006626 L 256.25 133.45627047761357 L 262.109375 133.4693873982282 L 263.57421875 133.51961839000603 L 264.453125 133.58732258365427 L 265.13671875 133.40496729433528 L 265.72265625 133.59947428650065 L 266.30859375 133.407959781114 L 267.67578125 133.4459556508595 L 267.87109375 133.46701391220142 L 268.06640625 133.58322327294496 L 268.2273080933737 133.37769400817365 L 268.44185856481636 133.62740622159146 L 268.75 133.4183478677913 L 269.04762030506015 133.58860315111966 L 269.3359375 133.4526200395154 L 269.48290977805937 133.3837455705179 L 270.2712191501675 133.6268561942117 L 271.09375 133.55479748343174 L 271.2558424933375 133.3837455705179 L 271.4531770687568 133.58860315111966 L 271.5868139264662 133.38374557051787 L 271.77734375 133.60851744536427 L 271.87344329431795 133.62740622159146 L 271.9392980107296 133.4047217080377 L 272.16796875 133.56934127538432 L 272.16796875 -6.5" stroke-linecap="round" stroke-linejoin="round" stroke-miterlimit="10" stroke-width="3.5" stroke-dasharray=""/></g></g></g><g id="labels-14e87c08"/><g id="labels-14e87c08"/></g></svg>