<svg version="1.1" xmlns="http://www.w3.org/2000/svg" xmlns:xlink="http://www.w3.org/1999/xlink" width="800" height="800"><defs/><g transform="scale(2,2)"><g id="background-1b884f8c"><rect fill="white" stroke="none" x="0" y="0" width="400" height="400" class="dcg-svg-background"/></g><g id="graphpaper-1b884f8c"><g id="grid-1b884f8c"><g><path fill="none" stroke="rgb(0,0,0)" class="dcg-svg-minor-gridline" paint-order="fill stroke markers" d=" M 33.5 0 L 33.5 400" stroke-opacity="0.3" stroke-miterlimit="10" stroke-dasharray=""/><path fill="none" stroke="rgb(0,0,0)" class="dcg-svg-minor-gridline" paint-order="fill stroke markers" d=" M 66.5 0 L 66.5 400" stroke-opacity="0.3" stroke-miterlimit="10" stroke-dasharray=""/><path fill="none" stroke="rgb(0,0,0)" class="dcg-svg-minor-gridline" paint-order="fill stroke markers" d=" M 100.5 0 L 100.5 400" stroke-opacity="0.3" stroke-miterlimit="10" stroke-dasharray=""/><path fill="none" stroke="rgb(0,0,0)" class="dcg-svg-minor-gridline" paint-order="fill stroke markers" d=" M 133.5 0 L 133.5 400" stroke-opacity="0.3" stroke-miterlimit="10" stroke-dasharray=""/><path fill="none" stroke="rgb(0,0,0)" class="dcg-svg-minor-gridline" paint-order="fill stroke markers" d=" M 166.5 0 L 166.5 400" stroke-opacity="0.3" stroke-miterlimit="10" stroke-dasharray=""/><path fill="none" stroke="rgb(0,0,0)" class="dcg-svg-minor-gridline" paint-order="fill stroke markers" d=" M 233.5 0 L 233.5 400" stroke-opacity="0.3" stroke-miterlimit="10" stroke-dasharray=""/><path fill="none" stroke="rgb(0,0,0)" class="dcg-svg-minor-gridline" paint-order="fill stroke markers" d=" M 266.5 0 L 266.5 400" stroke-opacity="0.3" stroke-miterlimit="10" stroke-dasharray=""/><path fill="none" stroke="rgb(0,0,0)" class="dcg-svg-minor-gridline" paint-order="fill stroke markers" d=" M 300.5 0 L 300.5 400" stroke-opacity="0.3" stroke-miterlimit="10" stroke-dasharray=""/><path fill="none" stroke="rgb(0,0,0)" class="dcg-svg-minor-gridline" paint-order="fill stroke markers" d=" M 333.5 0 L 333.5 400" stroke-opacity="0.3" stroke-miterlimit="10" stroke-dasharray=""/><path fill="none" stroke="rgb(0,0,0)" class="dcg-svg-minor-gridline" paint-order="fill stroke markers" d=" M 366.5 0 L 366.5 400" stroke-opacity="0.3" stroke-miterlimit="10" stroke-dasharray=""/><path fill="none" stroke="rgb(0,0,0)" class="dcg-svg-minor-gridline" paint-order="fill stroke markers" d=" M 0 366.5 L 400 366.5" stroke-opacity="0.3" stroke-miterlimit="10" stroke-dasharray=""/><path fill="none" stroke="rgb(0,0,0)" class="dcg-svg-minor-gridline" paint-order="fill stroke markers" d=" M 0 333.5 L 400 333.5" stroke-opacity="0.3" stroke-miterlimit="10" stroke-dasharray=""/><path fill="none" stroke="rgb(0,0,0)" class="dcg-svg-minor-gridline" paint-order="fill stroke markers" d=" M 0 300.5 L 400 300.5" stroke-opacity="0.3" stroke-miterlimit="10" stroke-dasharray=""/><path fill="none" stroke="rgb(0,0,0)" class="dcg-svg-minor-gridline" paint-order="fill stroke markers" d=" M 0 266.5 L 400 266.5" stroke-opacity="0.3" stroke-miterlimit="10" stroke-dasharray=""/><path fill="none" stroke="rgb(0,0,0)" class="dcg-svg-minor-gridline" paint-order="fill stroke markers" d=" M 0 233.5 L 400 233.5" stroke-opacity="0.3" stroke-miterlimit="10" stroke-dasharray=""/><path fill="none" stroke="rgb(0,0,0)" class="dcg-svg-minor-gridline" paint-order="fill stroke markers" d=" M 0 166.5 L 400 166.5" stroke-opacity="0.3" stroke-miterlimit="10" stroke-dasharray=""/><path fill="none" stroke="rgb(0,0,0)" class="dcg-svg-minor-gridline" paint-order="fill stroke markers" d=" M 0 133.5 L 400 133.5" stroke-opacity="0.3" stroke-miterlimit="10" stroke-dasharray=""/><path fill="none" stroke="rgb(0,0,0)" class="dcg-svg-minor-gridline" paint-order="fill stroke markers" d=" M 0 100.5 L 400 100.5" stroke-opacity="0.3" stroke-miterlimit="10" stroke-dasharray=""/><path fill="none" stroke="rgb(0,0,0)" class="dcg-svg-minor-gridline" paint-order="fill stroke markers" d=" M 0 66.5 L 400 66.5" stroke-opacity="0.3" stroke-miterlimit="10" stroke-dasharray=""/><path fill="none" stroke="rgb(0,0,0)" class="dcg-svg-minor-gridline" paint-order="fill stroke markers" d=" M 0 33.5 L 400 33.5" stroke-opacity="0.3" stroke-miterlimit="10" stroke-dasharray=""/><path fill="none" stroke="rgb(0,0,0)" class="dcg-svg-major-gridline" paint-order="fill stroke markers" d=" M 66.5 0 L 66.5 400" stroke-opacity="0.4285714285714285" stroke-miterlimit="10" stroke-dasharray=""/><path fill="none" stroke="rgb(0,0,0)" class="dcg-svg-major-gridline" paint-order="fill stroke markers" d=" M 333.5 0 L 333.5 400" stroke-opacity="0.4285714285714285" stroke-miterlimit="10" stroke-dasharray=""/><path fill="none" stroke="rgb(0,0,0)" class="dcg-svg-major-gridline" paint-order="fill stroke markers" d=" M 0 333.5 L 400 333.5" stroke-opacity="0.4285714285714285" stroke-miterlimit="10" stroke-dasharray=""/><path fill="none" stroke="rgb(0,0,0)" class="dcg-svg-major-gridline" paint-order="fill stroke markers" d=" M 0 66.5 L 400 66.5" stroke-opacity="0.4285714285714285" stroke-miterlimit="10" stroke-dasharray=""/></g></g><g id="axis-1b884f8c"><g id="yaxis-1b884f8c"><title>Y axis</title><g><path fill="none" stroke="rgb(0,0,0)" class="dcg-svg-axis-line" paint-order="fill stroke markers" d=" M 200 0 L 200 400" stroke-opacity="0.9" stroke-miterlimit="10" stroke-width="2" stroke-dasharray=""/></g></g><g id="xaxis-1b884f8c"><title>X axis</title><g><path fill="none" stroke="rgb(0,0,0)" class="dcg-svg-axis-line" paint-order="fill stroke markers" d=" M 0 200 L 400 200" stroke-opacity="0.9" stroke-miterlimit="10" stroke-width="2" stroke-dasharray=""/></g></g><g><g class="dcg-svg-axis-value"><text fill="none" stroke="#ffffff" font-family="Arial" font-size="17px" font-style="normal" font-weight="normal" text-decoration="normal" x="190.272705078125" y="218.124" text-anchor="middle" stroke-miterlimit="2" stroke-width="3" stroke-dasharray="">0</text><text fill="#000000" stroke="none" font-family="Arial" font-size="17px" font-style="normal" font-weight="normal" text-decoration="normal" x="190.272705078125" y="218.124" text-anchor="middle">0</text></g><g class="dcg-svg-axis-value"><text fill="none" stroke="#ffffff" font-family="Arial" font-size="17px" font-style="normal" font-weight="normal" text-decoration="normal" x="63.83610026041666" y="218.124" text-anchor="middle" stroke-miterlimit="2" stroke-width="3" stroke-dasharray="">-2</text><text fill="#000000" stroke="none" font-family="Arial" font-size="17px" font-style="normal" font-weight="normal" text-decoration="normal" x="63.83610026041666" y="218.124" text-anchor="middle">-2</text></g><g class="dcg-svg-axis-value"><text fill="none" stroke="#ffffff" font-family="Arial" font-size="17px" font-style="normal" font-weight="normal" text-decoration="normal" x="333.33333333333337" y="218.124" text-anchor="middle" stroke-miterlimit="2" stroke-width="3" stroke-dasharray="">2</text><text fill="#000000" stroke="none" font-family="Arial" font-size="17px" font-style="normal" font-weight="normal" text-decoration="normal" x="333.33333333333337" y="218.124" text-anchor="middle">2</text></g><g class="dcg-svg-axis-value"><text fill="none" stroke="#ffffff" font-family="Arial" font-size="17px" font-style="normal" font-weight="normal" text-decoration="normal" x="187.442138671875" y="337.9573333333334" text-anchor="middle" stroke-miterlimit="2" stroke-width="3" stroke-dasharray="">-2</text><text fill="#000000" stroke="none" font-family="Arial" font-size="17px" font-style="normal" font-weight="normal" text-decoration="normal" x="187.442138671875" y="337.9573333333334" text-anchor="middle">-2</text></g><g class="dcg-svg-axis-value"><text fill="none" stroke="#ffffff" font-family="Arial" font-size="17px" font-style="normal" font-weight="normal" text-decoration="normal" x="190.272705078125" y="71.29066666666665" text-anchor="middle" stroke-miterlimit="2" stroke-width="3" stroke-dasharray="">2</text><text fill="#000000" stroke="none" font-family="Arial" font-size="17px" font-style="normal" font-weight="normal" text-decoration="normal" x="190.272705078125" y="71.29066666666665" text-anchor="middle">2</text></g></g></g></g><g id="expressions-1b884f8c"><g id="sketch-1b884f8c"><title>Expression 2</title><path fill="#2d70b3" stroke="none" paint-order="stroke fill markers" d="" fill-opacity="0.4"/><g><path fill="none" stroke="#2d70b3" class="dcg-svg-curve" paint-order="fill stroke markers" d=" M 50.96783089155544 -6.5 L 50.96783089155544 -6.5 L 51.0036568492871 266.6666666666667 L 51.26953125 134.50555682161396 L 51.37765173136981 133.33333333333331 L 51.46484375 133.6071870917307 L 51.5625 137.19627662493536 L 51.7578125 165.0643691367859 L 52.24609375 250.91396275857772 L 52.44140625 261.9970258277161 L 52.63671875 265.63864014846155 L 52.83203125 266.51163004932874 L 53.125 266.66379417473615 L 54.4921875 266.592411112382 L 54.6875 266.3805790904596 L 54.8828125 265.83179995718837 L 55.078125 264.6731125024366 L 55.37109375 261.07838512656105 L 55.6640625 254.3848881012075 L 56.0546875 239.96107859997392 L 56.73828125 204.27375232049147 L 57.51953125 166.0060476540655 L 58.0078125 150.4352201758027 L 58.3984375 142.6861809503269 L 58.7890625 138.08585845172396 L 59.1796875 135.58050722110235 L 59.5703125 134.3224559032841 L 59.9609375 133.73826088819402 L 60.44921875 133.45263456326893 L 61.328125 133.342893610298 L 66.69921875 133.33333333333331 L 75.19531249999999 133.45549988303512 L 76.17187499999999 133.7554856230962 L 76.85546874999999 134.22950762318908 L 77.53906249999999 135.08525196527788 L 78.12499999999999 136.26725656825064 L 78.71093749999999 138.00970854728155 L 79.29687499999999 140.45636969034962 L 79.98046874999999 144.37549771845295 L 80.66406249999999 149.5872312939903 L 81.44531249999999 157.20290722948474 L 82.32421874999999 167.75979433137724 L 83.59374999999999 185.7782275882184 L 86.32812499999999 225.61905861775253 L 87.40234374999999 238.09153185024775 L 88.28124999999999 246.2547923722462 L 89.16015624999999 252.59468865775165 L 89.94140624999999 256.8476540199435 L 90.72265624999999 259.9976362884723 L 91.50390624999999 262.25524188528647 L 92.28515624999999 263.82318754927974 L 93.16406249999999 264.98356470175787 L 94.04296874999999 265.7012996738075 L 95.01953124999999 266.1646854014987 L 96.28906249999999 266.46387773549714 L 98.24218749999999 266.62220065090645 L 103.22265625 266.66620070602346 L 177.734375 266.571308455391 L 180.56640625 266.302635774108 L 182.421875 265.86531415373526 L 183.88671875 265.24201022587465 L 185.15625 264.3971704418396 L 186.328125 263.27028352146067 L 187.5 261.7099051325339 L 188.57421875 259.80729926290695 L 189.6484375 257.36587798007315 L 190.72265625 254.3055718647552 L 191.796875 250.5582437445502 L 192.96875 245.63091053825264 L 194.23828125 239.27958215668795 L 195.60546875 231.30384005108502 L 197.16796875 220.93346289690442 L 199.31640625 205.18280445538304 L 203.22265625 176.36519844873666 L 204.8828125 165.71906647571655 L 206.25 158.15354441966906 L 207.51953125 152.20720645494953 L 208.69140625 147.64962385168084 L 209.86328125 143.94398529079984 L 210.9375 141.23064588082235 L 212.01171875 139.09349599721787 L 213.18359375 137.32119082176027 L 214.453125 135.93658352107428 L 215.72265625 134.98277120395554 L 217.08984375 134.3085819579888 L 218.65234375 133.845070922734 L 220.703125 133.5371854210439 L 223.73046875 133.37792474169524 L 231.15234375 133.33376301353036 L 302.83203125 133.43768175886174 L 304.4921875 133.69022596054958 L 305.6640625 134.12989909338287 L 306.54296875 134.7366158959332 L 307.32421875 135.59452783659913 L 308.10546875 136.8864213639119 L 308.7890625 138.5000589698355 L 309.47265625 140.69793790164363 L 310.15625 143.61940249684997 L 310.83984375 147.40531134224835 L 311.62109375 152.95301455064316 L 312.40234375 159.93240253507292 L 313.28125 169.54193886895246 L 314.35546875 183.58056778217747 L 316.11328125 209.79594840511544 L 317.7734375 233.5064453933392 L 318.75 244.86530203642653 L 319.62890625 252.8112136751105 L 320.41015625 258.01400724660306 L 321.09375 261.2599161146703 L 321.77734375 263.48516038502044 L 322.4609375 264.91474803472215 L 323.14453125 265.7704923768109 L 323.92578125 266.2903215901338 L 324.8046875 266.54450011696485 L 326.26953125 266.65454494728226 L 333.30078125 266.6666666666667 L 339.55078125 266.54736543673107 L 340.0390625 266.261739111806 L 340.4296875 265.6775440967159 L 340.72265625 264.8239412259182 L 341.015625 263.3693074102714 L 341.30859375 260.99933637691333 L 341.69921875 255.71459987230241 L 342.08984375 247.01193249567797 L 342.48046875 233.9939523459345 L 343.06640625 206.39053883706563 L 344.140625 152.059073247985 L 344.53125 140.7706632813493 L 344.82421875 136.23629878644522 L 345.1171875 134.16820004281163 L 345.41015625 133.48522945184246 L 345.80078125 133.33752665945516 L 347.0703125 133.38309560810035 L 347.265625 133.75519702651977 L 347.36328125 134.36135985153845 L 347.55859375 138.00297417228396 L 347.75390625 149.08603724142228 L 347.94921875 174.0487640337804 L 348.4375 262.80372337506464 L 348.62234826863016 266.6666666666667 L 348.73046875 265.49444317838606 L 348.828125 248.34899933817715 L 348.9963431507129 133.33333333333331 L 349.0321691084446 406.5" stroke-linecap="round" stroke-linejoin="round" stroke-miterlimit="10" stroke-width="3.5" stroke-dasharray=""/></g></g></g><g id="labels-1b884f8c"/><g id="labels-1b884f8c"/></g></svg>