<svg version="1.1" xmlns="http://www.w3.org/2000/svg" xmlns:xlink="http://www.w3.org/1999/xlink" width="800" height="800"><defs/><g transform="scale(2,2)"><g id="background-54f0e51f"><rect fill="white" stroke="none" x="0" y="0" width="400" height="400" class="dcg-svg-background"/></g><g id="graphpaper-54f0e51f"><g id="grid-54f0e51f"><g><path fill="none" stroke="rgb(0,0,0)" class="dcg-svg-minor-gridline" paint-order="fill stroke markers" d=" M 37.5 0 L 37.5 400" stroke-opacity="0.3" stroke-miterlimit="10" stroke-dasharray=""/><path fill="none" stroke="rgb(0,0,0)" class="dcg-svg-minor-gridline" paint-order="fill stroke markers" d=" M 113.5 0 L 113.5 400" stroke-opacity="0.3" stroke-miterlimit="10" stroke-dasharray=""/><path fill="none" stroke="rgb(0,0,0)" class="dcg-svg-minor-gridline" paint-order="fill stroke markers" d=" M 151.5 0 L 151.5 400" stroke-opacity="0.3" stroke-miterlimit="10" stroke-dasharray=""/><path fill="none" stroke="rgb(0,0,0)" class="dcg-svg-minor-gridline" paint-order="fill stroke markers" d=" M 189.5 0 L 189.5 400" stroke-opacity="0.3" stroke-miterlimit="10" stroke-dasharray=""/><path fill="none" stroke="rgb(0,0,0)" class="dcg-svg-minor-gridline" paint-order="fill stroke markers" d=" M 227.5 0 L 227.5 400" stroke-opacity="0.3" stroke-miterlimit="10" stroke-dasharray=""/><path fill="none" stroke="rgb(0,0,0)" class="dcg-svg-minor-gridline" paint-order="fill stroke markers" d=" M 265.5 0 L 265.5 400" stroke-opacity="0.3" stroke-miterlimit="10" stroke-dasharray=""/><path fill="none" stroke="rgb(0,0,0)" class="dcg-svg-minor-gridline" paint-order="fill stroke markers" d=" M 303.5 0 L 303.5 400" stroke-opacity="0.3" stroke-miterlimit="10" stroke-dasharray=""/><path fill="none" stroke="rgb(0,0,0)" class="dcg-svg-minor-gridline" paint-order="fill stroke markers" d=" M 341.5 0 L 341.5 400" stroke-opacity="0.3" stroke-miterlimit="10" stroke-dasharray=""/><path fill="none" stroke="rgb(0,0,0)" class="dcg-svg-minor-gridline" paint-order="fill stroke markers" d=" M 379.5 0 L 379.5 400" stroke-opacity="0.3" stroke-miterlimit="10" stroke-dasharray=""/><path fill="none" stroke="rgb(0,0,0)" class="dcg-svg-minor-gridline" paint-order="fill stroke markers" d=" M 0 366.5 L 400 366.5" stroke-opacity="0.3" stroke-miterlimit="10" stroke-dasharray=""/><path fill="none" stroke="rgb(0,0,0)" class="dcg-svg-minor-gridline" paint-order="fill stroke markers" d=" M 0 290.5 L 400 290.5" stroke-opacity="0.3" stroke-miterlimit="10" stroke-dasharray=""/><path fill="none" stroke="rgb(0,0,0)" class="dcg-svg-minor-gridline" paint-order="fill stroke markers" d=" M 0 252.5 L 400 252.5" stroke-opacity="0.3" stroke-miterlimit="10" stroke-dasharray=""/><path fill="none" stroke="rgb(0,0,0)" class="dcg-svg-minor-gridline" paint-order="fill stroke markers" d=" M 0 214.5 L 400 214.5" stroke-opacity="0.3" stroke-miterlimit="10" stroke-dasharray=""/><path fill="none" stroke="rgb(0,0,0)" class="dcg-svg-minor-gridline" paint-order="fill stroke markers" d=" M 0 176.5 L 400 176.5" stroke-opacity="0.3" stroke-miterlimit="10" stroke-dasharray=""/><path fill="none" stroke="rgb(0,0,0)" class="dcg-svg-minor-gridline" paint-order="fill stroke markers" d=" M 0 138.5 L 400 138.5" stroke-opacity="0.3" stroke-miterlimit="10" stroke-dasharray=""/><path fill="none" stroke="rgb(0,0,0)" class="dcg-svg-minor-gridline" paint-order="fill stroke markers" d=" M 0 100.5 L 400 100.5" stroke-opacity="0.3" stroke-miterlimit="10" stroke-dasharray=""/><path fill="none" stroke="rgb(0,0,0)" class="dcg-svg-minor-gridline" paint-order="fill stroke markers" d=" M 0 62.5 L 400 62.5" stroke-opacity="0.3" stroke-miterlimit="10" stroke-dasharray=""/><path fill="none" stroke="rgb(0,0,0)" class="dcg-svg-minor-gridline" paint-order="fill stroke markers" d=" M 0 24.5 L 400 24.5" stroke-opacity="0.3" stroke-miterlimit="10" stroke-dasharray=""/><path fill="none" stroke="rgb(0,0,0)" class="dcg-svg-major-gridline" paint-order="fill stroke markers" d=" M 227.5 0 L 227.5 400" stroke-opacity="0.4285714285714285" stroke-miterlimit="10" stroke-dasharray=""/><path fill="none" stroke="rgb(0,0,0)" class="dcg-svg-major-gridline" paint-order="fill stroke markers" d=" M 379.5 0 L 379.5 400" stroke-opacity="0.4285714285714285" stroke-miterlimit="10" stroke-dasharray=""/><path fill="none" stroke="rgb(0,0,0)" class="dcg-svg-major-gridline" paint-order="fill stroke markers" d=" M 0 176.5 L 400 176.5" stroke-opacity="0.4285714285714285" stroke-miterlimit="10" stroke-dasharray=""/><path fill="none" stroke="rgb(0,0,0)" class="dcg-svg-major-gridline" paint-order="fill stroke markers" d=" M 0 24.5 L 400 24.5" stroke-opacity="0.4285714285714285" stroke-miterlimit="10" stroke-dasharray=""/></g></g><g id="axis-54f0e51f"><g id="yaxis-54f0e51f"><title>Y axis</title><g><path fill="none" stroke="rgb(0,0,0)" class="dcg-svg-axis-line" paint-order="fill stroke markers" d=" M 76 0 L 76 400" stroke-opacity="0.9" stroke-miterlimit="10" stroke-width="2" stroke-dasharray=""/></g></g><g id="xaxis-54f0e51f"><title>X axis</title><g><path fill="none" stroke="rgb(0,0,0)" class="dcg-svg-axis-line" paint-order="fill stroke markers" d=" M 0 328 L 400 328" stroke-opacity="0.9" stroke-miterlimit="10" stroke-width="2" stroke-dasharray=""/></g></g><g><g class="dcg-svg-axis-value"><text fill="none" stroke="#ffffff" font-family="Arial" font-size="17px" font-style="normal" font-weight="normal" text-decoration="normal" x="65.8337311338224" y="346.2991111455159" text-anchor="middle" stroke-miterlimit="2" stroke-width="3" stroke-dasharray="">0</text><text fill="#000000" stroke="none" font-family="Arial" font-size="17px" font-style="normal" font-weight="normal" text-decoration="normal" x="65.8337311338224" y="346.2991111455159" text-anchor="middle">0</text></g><g class="dcg-svg-axis-value"><text fill="none" stroke="#ffffff" font-family="Arial" font-size="17px" font-style="normal" font-weight="normal" text-decoration="normal" x="227.36971975613667" y="346.2991111455159" text-anchor="middle" stroke-miterlimit="2" stroke-width="3" stroke-dasharray="">2</text><text fill="#000000" stroke="none" font-family="Arial" font-size="17px" font-style="normal" font-weight="normal" text-decoration="normal" x="227.36971975613667" y="346.2991111455159" text-anchor="middle">2</text></g><g class="dcg-svg-axis-value"><text fill="none" stroke="#ffffff" font-family="Arial" font-size="17px" font-style="normal" font-weight="normal" text-decoration="normal" x="379.178413456576" y="346.2991111455159" text-anchor="middle" stroke-miterlimit="2" stroke-width="3" stroke-dasharray="">4</text><text fill="#000000" stroke="none" font-family="Arial" font-size="17px" font-style="normal" font-weight="normal" text-decoration="normal" x="379.178413456576" y="346.2991111455159" text-anchor="middle">4</text></g><g class="dcg-svg-axis-value"><text fill="none" stroke="#ffffff" font-family="Arial" font-size="17px" font-style="normal" font-weight="normal" text-decoration="normal" x="65.8337311338224" y="180.99041744507704" text-anchor="middle" stroke-miterlimit="2" stroke-width="3" stroke-dasharray="">2</text><text fill="#000000" stroke="none" font-family="Arial" font-size="17px" font-style="normal" font-weight="normal" text-decoration="normal" x="65.8337311338224" y="180.99041744507704" text-anchor="middle">2</text></g><g class="dcg-svg-axis-value"><text fill="none" stroke="#ffffff" font-family="Arial" font-size="17px" font-style="normal" font-weight="normal" text-decoration="normal" x="65.8337311338224" y="29.181723744638226" text-anchor="middle" stroke-miterlimit="2" stroke-width="3" stroke-dasharray="">4</text><text fill="#000000" stroke="none" font-family="Arial" font-size="17px" font-style="normal" font-weight="normal" text-decoration="normal" x="65.8337311338224" y="29.181723744638226" text-anchor="middle">4</text></g></g></g></g><g id="expressions-54f0e51f"><g id="sketch-54f0e51f"><title>Expression 4</title><path fill="#6042a6" stroke="none" paint-order="stroke fill markers" d="" fill-opacity="0.4"/><g><path fill="none" stroke="#6042a6" class="dcg-svg-curve" paint-order="fill stroke markers" d=" M 0 403.73613720121307 L 0 403.73613720121307 L 400 3.7361372012142624" stroke-linecap="round" stroke-linejoin="round" stroke-miterlimit="10" stroke-width="3.5" stroke-dasharray=""/></g></g><g id="sketch-54f0e51f"><title>Expression 5</title><path fill="#348543" stroke="none" paint-order="stroke fill markers" d="" fill-opacity="0.4"/><g><path fill="none" stroke="#348543" class="dcg-svg-curve" paint-order="fill stroke markers" d=" M 0 403.2067328042956 L 0 403.2067328042956 L 16.69921875 386.88202293019606 L 43.55468749999999 360.1739281401286 L 143.359375 260.68768364121786 L 159.1796875 245.4251931568823 L 171.38671875 234.03339755297316 L 181.640625 224.84374363581193 L 190.52734375 217.24601418874306 L 198.53515625 210.75777382534517 L 205.85937499999997 205.17362690149037 L 212.59765625 200.37456658870724 L 218.9453125 196.18613894833928 L 224.90234374999997 192.57878410682054 L 230.46875 189.51563576683964 L 235.83984375 186.86299248341723 L 240.91796875 184.6466498710536 L 245.80078125 182.79815684791564 L 250.58593749999997 181.268972815705 L 255.17578125 180.0764620204333 L 259.66796875 179.1795427603988 L 264.0625 178.56967066606416 L 268.359375 178.23691805486536 L 272.55859375 178.17011009245059 L 276.7578125 178.3644950373672 L 280.859375 178.81136346221666 L 284.9609375 179.51630577287006 L 289.0625 180.4826922378719 L 293.1640625 181.7131751781809 L 297.36328125 183.24854690819308 L 301.5625 185.0639567912342 L 305.859375 187.21184336710124 L 310.25390625 189.71165295017076 L 314.74609375 192.5821585289184 L 319.3359375 195.84123956416926 L 324.0234375 199.50566406265787 L 328.90625 203.67783166511424 L 333.984375 208.39315985924304 L 339.2578125 213.6854996271286 L 344.7265625 219.5867028271859 L 350.48828125 226.24281635112453 L 356.54296875 233.70341060641812 L 362.890625 242.0160521584675 L 369.53125 251.22738696961426 L 376.26953125 261.09224100472045 L 383.10546875 271.6199413418232 L 389.94140625 282.66973801522937 L 396.6796875 294.08735690424595 L 400 299.9152822373895" stroke-linecap="round" stroke-linejoin="round" stroke-miterlimit="10" stroke-width="3.5" stroke-dasharray=""/></g></g><g id="sketch-54f0e51f"><title>Expression 6</title><path fill="#c74440" stroke="none" paint-order="stroke fill markers" d="" fill-opacity="0.4"/><g><path fill="none" stroke="#c74440" class="dcg-svg-curve" paint-order="fill stroke markers" d=" M 0 401.72335458036576 L 0 401.72335458036576 L 8.10546875 394.4654886095607 L 17.773437500000007 385.413396210706 L 30.2734375 373.29658849013447 L 50.09765625 353.6289147958599 L 127.83203125 276.24030825557656 L 139.6484375 264.99675672475183 L 148.828125 256.64384645508136 L 156.54296875 249.99618611364184 L 163.28125 244.54997751676254 L 169.3359375 240.00451802511355 L 174.90234375 236.165467845075 L 179.98046875 232.98559514321198 L 184.765625 230.30207806942616 L 189.2578125 228.08482131827503 L 193.5546875 226.25919077319784 L 197.65625 224.80394064099812 L 201.5625 223.69398927103973 L 205.37109375000003 222.88383109629336 L 209.08203124999997 222.36373233662297 L 212.6953125 222.1219570762014 L 216.21093750000003 222.14499640913073 L 219.72656249999997 222.42928899814882 L 223.2421875 222.98031857880605 L 226.7578125 223.80253855247597 L 230.2734375 224.899312699519 L 233.7890625 226.27286725540574 L 237.40234375 227.97409566403866 L 241.01562499999997 229.96863494529137 L 244.7265625 232.32080652617987 L 248.53515625 235.05170649116803 L 252.53906249999997 238.26340899440098 L 256.73828125 241.9990838753928 L 261.1328125 246.30008255279114 L 265.72265625 251.20513722418738 L 270.60546875 256.867402793139 L 275.78125 263.34577313281636 L 281.25 270.6964776592548 L 286.9140625 278.83085187291726 L 292.67578125 287.6300436410373 L 298.4375 296.9539511305453 L 304.1015625 306.6496143907571 L 309.47265625 316.37279065382563 L 314.55078125 326.1067484790392 L 319.23828125 335.6426323424946 L 323.53515625 344.9400829635701 L 327.5390625 354.1784886843384 L 331.25 363.3323582580625 L 334.765625 372.6266184036341 L 338.0859375 382.0575327821744 L 341.2109375 391.60820709445176 L 344.23828125 401.58032493199244 L 345.62106900452324 406.5" stroke-linecap="round" stroke-linejoin="round" stroke-miterlimit="10" stroke-width="3.5" stroke-dasharray=""/></g></g><g id="sketch-54f0e51f"><title>Expression 7</title><path fill="#2d70b3" stroke="none" paint-order="stroke fill markers" d="" fill-opacity="0.4"/><g><path fill="none" stroke="#2d70b3" class="dcg-svg-curve" paint-order="fill stroke markers" d=" M 0 396.47996458631565 L 0 396.47996458631565 L 4.003906249999986 394.08401312679644 L 8.3984375 391.13061683318347 L 13.183593749999993 387.5789819076969 L 18.5546875 383.2413718000357 L 24.707031249999993 377.9066494870894 L 32.12890624999999 371.0843276345581 L 41.79687499999999 361.78682400732924 L 57.421875 346.3072439385028 L 114.35546875 289.68202145774575 L 123.53515625 281.0481916849957 L 130.6640625 274.7218105345521 L 136.62109375 269.8033867627237 L 141.796875 265.8817311424506 L 146.38671875 262.7353683126317 L 150.5859375 260.1735041749429 L 154.4921875 258.09671384798094 L 158.203125 256.4257156022895 L 161.62109375 255.16915430402054 L 164.94140625 254.2263108311668 L 168.06640625 253.60366577156609 L 171.09375 253.25720553587956 L 174.12109375 253.17358405970774 L 177.05078125 253.3511859831874 L 179.98046875 253.78981281904623 L 182.91015625 254.49472837249994 L 185.83984375 255.46971139424056 L 188.76953125 256.7169805149433 L 191.796875 258.29250972865816 L 194.921875 260.2232558503978 L 198.14453125 262.5346984324445 L 201.5625 265.33515786407037 L 205.078125 268.5804410214725 L 208.7890625 272.3932163058896 L 212.79296874999997 276.93319404507463 L 217.08984375 282.271260375288 L 221.67968749999997 288.4745855147864 L 226.46484375 295.46247444814077 L 231.34765625000003 303.12181491843467 L 236.13281249999997 311.15284198937184 L 240.72265625 319.3855715295716 L 245.01953124999997 327.6388336806938 L 248.92578125000003 335.7003072571463 L 252.44140625 343.5208814932444 L 255.66406249999997 351.2739492236074 L 258.59375 358.91759295267343 L 261.328125 366.67125467646275 L 263.96484375 374.82558441100747 L 266.40625 383.07677721995844 L 268.75 391.73921415607003 L 270.99609375 400.82896441791905 L 272.27288289394176 406.5" stroke-linecap="round" stroke-linejoin="round" stroke-miterlimit="10" stroke-width="3.5" stroke-dasharray=""/></g></g></g><g id="labels-54f0e51f"/><g id="labels-54f0e51f"/></g></svg>