<svg version="1.1" xmlns="http://www.w3.org/2000/svg" xmlns:xlink="http://www.w3.org/1999/xlink" width="800" height="800"><defs/><g transform="scale(2,2)"><g id="background-c49d1d97"><rect fill="white" stroke="none" x="0" y="0" width="400" height="400" class="dcg-svg-background"/></g><g id="graphpaper-c49d1d97"><g id="grid-c49d1d97"><g><path fill="none" stroke="rgb(0,0,0)" class="dcg-svg-minor-gridline" paint-order="fill stroke markers" d=" M 7.5 0 L 7.5 400" stroke-opacity="0.3" stroke-miterlimit="10" stroke-dasharray=""/><path fill="none" stroke="rgb(0,0,0)" class="dcg-svg-minor-gridline" paint-order="fill stroke markers" d=" M 36.5 0 L 36.5 400" stroke-opacity="0.3" stroke-miterlimit="10" stroke-dasharray=""/><path fill="none" stroke="rgb(0,0,0)" class="dcg-svg-minor-gridline" paint-order="fill stroke markers" d=" M 66.5 0 L 66.5 400" stroke-opacity="0.3" stroke-miterlimit="10" stroke-dasharray=""/><path fill="none" stroke="rgb(0,0,0)" class="dcg-svg-minor-gridline" paint-order="fill stroke markers" d=" M 125.5 0 L 125.5 400" stroke-opacity="0.3" stroke-miterlimit="10" stroke-dasharray=""/><path fill="none" stroke="rgb(0,0,0)" class="dcg-svg-minor-gridline" paint-order="fill stroke markers" d=" M 155.5 0 L 155.5 400" stroke-opacity="0.3" stroke-miterlimit="10" stroke-dasharray=""/><path fill="none" stroke="rgb(0,0,0)" class="dcg-svg-minor-gridline" paint-order="fill stroke markers" d=" M 184.5 0 L 184.5 400" stroke-opacity="0.3" stroke-miterlimit="10" stroke-dasharray=""/><path fill="none" stroke="rgb(0,0,0)" class="dcg-svg-minor-gridline" paint-order="fill stroke markers" d=" M 214.5 0 L 214.5 400" stroke-opacity="0.3" stroke-miterlimit="10" stroke-dasharray=""/><path fill="none" stroke="rgb(0,0,0)" class="dcg-svg-minor-gridline" paint-order="fill stroke markers" d=" M 243.5 0 L 243.5 400" stroke-opacity="0.3" stroke-miterlimit="10" stroke-dasharray=""/><path fill="none" stroke="rgb(0,0,0)" class="dcg-svg-minor-gridline" paint-order="fill stroke markers" d=" M 273.5 0 L 273.5 400" stroke-opacity="0.3" stroke-miterlimit="10" stroke-dasharray=""/><path fill="none" stroke="rgb(0,0,0)" class="dcg-svg-minor-gridline" paint-order="fill stroke markers" d=" M 302.5 0 L 302.5 400" stroke-opacity="0.3" stroke-miterlimit="10" stroke-dasharray=""/><path fill="none" stroke="rgb(0,0,0)" class="dcg-svg-minor-gridline" paint-order="fill stroke markers" d=" M 332.5 0 L 332.5 400" stroke-opacity="0.3" stroke-miterlimit="10" stroke-dasharray=""/><path fill="none" stroke="rgb(0,0,0)" class="dcg-svg-minor-gridline" paint-order="fill stroke markers" d=" M 362.5 0 L 362.5 400" stroke-opacity="0.3" stroke-miterlimit="10" stroke-dasharray=""/><path fill="none" stroke="rgb(0,0,0)" class="dcg-svg-minor-gridline" paint-order="fill stroke markers" d=" M 391.5 0 L 391.5 400" stroke-opacity="0.3" stroke-miterlimit="10" stroke-dasharray=""/><path fill="none" stroke="rgb(0,0,0)" class="dcg-svg-minor-gridline" paint-order="fill stroke markers" d=" M 0 392.5 L 400 392.5" stroke-opacity="0.3" stroke-miterlimit="10" stroke-dasharray=""/><path fill="none" stroke="rgb(0,0,0)" class="dcg-svg-minor-gridline" paint-order="fill stroke markers" d=" M 0 363.5 L 400 363.5" stroke-opacity="0.3" stroke-miterlimit="10" stroke-dasharray=""/><path fill="none" stroke="rgb(0,0,0)" class="dcg-svg-minor-gridline" paint-order="fill stroke markers" d=" M 0 333.5 L 400 333.5" stroke-opacity="0.3" stroke-miterlimit="10" stroke-dasharray=""/><path fill="none" stroke="rgb(0,0,0)" class="dcg-svg-minor-gridline" paint-order="fill stroke markers" d=" M 0 274.5 L 400 274.5" stroke-opacity="0.3" stroke-miterlimit="10" stroke-dasharray=""/><path fill="none" stroke="rgb(0,0,0)" class="dcg-svg-minor-gridline" paint-order="fill stroke markers" d=" M 0 244.5 L 400 244.5" stroke-opacity="0.3" stroke-miterlimit="10" stroke-dasharray=""/><path fill="none" stroke="rgb(0,0,0)" class="dcg-svg-minor-gridline" paint-order="fill stroke markers" d=" M 0 215.5 L 400 215.5" stroke-opacity="0.3" stroke-miterlimit="10" stroke-dasharray=""/><path fill="none" stroke="rgb(0,0,0)" class="dcg-svg-minor-gridline" paint-order="fill stroke markers" d=" M 0 185.5 L 400 185.5" stroke-opacity="0.3" stroke-miterlimit="10" stroke-dasharray=""/><path fill="none" stroke="rgb(0,0,0)" class="dcg-svg-minor-gridline" paint-order="fill stroke markers" d=" M 0 155.5 L 400 155.5" stroke-opacity="0.3" stroke-miterlimit="10" stroke-dasharray=""/><path fill="none" stroke="rgb(0,0,0)" class="dcg-svg-minor-gridline" paint-order="fill stroke markers" d=" M 0 126.5 L 400 126.5" stroke-opacity="0.3" stroke-miterlimit="10" stroke-dasharray=""/><path fill="none" stroke="rgb(0,0,0)" class="dcg-svg-minor-gridline" paint-order="fill stroke markers" d=" M 0 96.5 L 400 96.5" stroke-opacity="0.3" stroke-miterlimit="10" stroke-dasharray=""/><path fill="none" stroke="rgb(0,0,0)" class="dcg-svg-minor-gridline" paint-order="fill stroke markers" d=" M 0 67.5 L 400 67.5" stroke-opacity="0.3" stroke-miterlimit="10" stroke-dasharray=""/><path fill="none" stroke="rgb(0,0,0)" class="dcg-svg-minor-gridline" paint-order="fill stroke markers" d=" M 0 37.5 L 400 37.5" stroke-opacity="0.3" stroke-miterlimit="10" stroke-dasharray=""/><path fill="none" stroke="rgb(0,0,0)" class="dcg-svg-minor-gridline" paint-order="fill stroke markers" d=" M 0 8.5 L 400 8.5" stroke-opacity="0.3" stroke-miterlimit="10" stroke-dasharray=""/><path fill="none" stroke="rgb(0,0,0)" class="dcg-svg-major-gridline" paint-order="fill stroke markers" d=" M 243.5 0 L 243.5 400" stroke-opacity="0.4285714285714285" stroke-miterlimit="10" stroke-dasharray=""/><path fill="none" stroke="rgb(0,0,0)" class="dcg-svg-major-gridline" paint-order="fill stroke markers" d=" M 391.5 0 L 391.5 400" stroke-opacity="0.4285714285714285" stroke-miterlimit="10" stroke-dasharray=""/><path fill="none" stroke="rgb(0,0,0)" class="dcg-svg-major-gridline" paint-order="fill stroke markers" d=" M 0 155.5 L 400 155.5" stroke-opacity="0.4285714285714285" stroke-miterlimit="10" stroke-dasharray=""/><path fill="none" stroke="rgb(0,0,0)" class="dcg-svg-major-gridline" paint-order="fill stroke markers" d=" M 0 8.5 L 400 8.5" stroke-opacity="0.4285714285714285" stroke-miterlimit="10" stroke-dasharray=""/></g></g><g id="axis-c49d1d97"><g id="yaxis-c49d1d97"><title>Y axis</title><g><path fill="none" stroke="rgb(0,0,0)" class="dcg-svg-axis-line" paint-order="fill stroke markers" d=" M 96 0 L 96 400" stroke-opacity="0.9" stroke-miterlimit="10" stroke-width="2" stroke-dasharray=""/></g></g><g id="xaxis-c49d1d97"><title>X axis</title><g><path fill="none" stroke="rgb(0,0,0)" class="dcg-svg-axis-line" paint-order="fill stroke markers" d=" M 0 304 L 400 304" stroke-opacity="0.9" stroke-miterlimit="10" stroke-width="2" stroke-dasharray=""/></g></g><g><g class="dcg-svg-axis-value"><text fill="none" stroke="#ffffff" font-family="Arial" font-size="17px" font-style="normal" font-weight="normal" text-decoration="normal" x="86.1269741333798" y="321.98285557983036" text-anchor="middle" stroke-miterlimit="2" stroke-width="3" stroke-dasharray="">0</text><text fill="#000000" stroke="none" font-family="Arial" font-size="17px" font-style="normal" font-weight="normal" text-decoration="normal" x="86.1269741333798" y="321.98285557983036" text-anchor="middle">0</text></g><g class="dcg-svg-axis-value"><text fill="none" stroke="#ffffff" font-family="Arial" font-size="17px" font-style="normal" font-weight="normal" text-decoration="normal" x="243.72593764615348" y="321.98285557983036" text-anchor="middle" stroke-miterlimit="2" stroke-width="3" stroke-dasharray="">1</text><text fill="#000000" stroke="none" font-family="Arial" font-size="17px" font-style="normal" font-weight="normal" text-decoration="normal" x="243.72593764615348" y="321.98285557983036" text-anchor="middle">1</text></g><g class="dcg-svg-axis-value"><text fill="none" stroke="#ffffff" font-family="Arial" font-size="17px" font-style="normal" font-weight="normal" text-decoration="normal" x="391.59760623705216" y="321.98285557983036" text-anchor="middle" stroke-miterlimit="2" stroke-width="3" stroke-dasharray="">2</text><text fill="#000000" stroke="none" font-family="Arial" font-size="17px" font-style="normal" font-weight="normal" text-decoration="normal" x="391.59760623705216" y="321.98285557983036" text-anchor="middle">2</text></g><g class="dcg-svg-axis-value"><text fill="none" stroke="#ffffff" font-family="Arial" font-size="17px" font-style="normal" font-weight="normal" text-decoration="normal" x="86.1269741333798" y="160.61118698893057" text-anchor="middle" stroke-miterlimit="2" stroke-width="3" stroke-dasharray="">1</text><text fill="#000000" stroke="none" font-family="Arial" font-size="17px" font-style="normal" font-weight="normal" text-decoration="normal" x="86.1269741333798" y="160.61118698893057" text-anchor="middle">1</text></g><g class="dcg-svg-axis-value dcg-svg-offcenter-axis-value"><text fill="none" stroke="#ffffff" font-family="Arial" font-size="17px" font-style="normal" font-weight="normal" text-decoration="normal" x="86.1269741333798" y="16.124000000000002" text-anchor="middle" stroke-miterlimit="2" stroke-width="3" stroke-dasharray="">2</text><text fill="#000000" stroke="none" font-family="Arial" font-size="17px" font-style="normal" font-weight="normal" text-decoration="normal" x="86.1269741333798" y="16.124000000000002" text-anchor="middle">2</text></g></g></g></g><g id="expressions-c49d1d97"><g id="sketch-c49d1d97"><title>Expression 4</title><path fill="#2d70b3" stroke="none" paint-order="stroke fill markers" d="" fill-opacity="0.4"/><g><path fill="none" stroke="#2d70b3" class="dcg-svg-curve" paint-order="fill stroke markers" d=" M 37.401127503663226 406.5 L 37.401127503663226 406.5 L 37.89062500000001 405.9896012890179 L 39.0625 405.1652132043472 L 40.03906249999999 404.7811393820483 L 41.01562500000001 404.68754593974796 L 41.89453125000001 404.8609934483907 L 42.7734375 405.2849380487203 L 43.75 406.05461618336443 L 44.1446416651633 406.5 L 86.55417836779992 406.5 L 87.98828125 392.5880167790639 L 90.33203125000001 367.76757651016317 L 93.26171875 334.4501987925065 L 102.34375000000001 229.46542547199698 L 104.6875 205.52607385571446 L 106.640625 187.4894401125918 L 108.3984375 172.99467993880657 L 109.96093750000001 161.63221369316545 L 111.42578125 152.362496499491 L 112.79296875 144.96325680036986 L 114.0625 139.19644415557568 L 115.234375 134.8219424843187 L 116.30859375 131.60784717563692 L 117.28515625000001 129.33766028641546 L 118.26171875 127.67559994399343 L 119.140625 126.68634272134409 L 119.921875 126.19785482834587 L 120.61050725243368 126.06260367303332 L 121.2890625 126.1909114540251 L 121.97265625 126.57319899859147 L 122.75390625000001 127.30786144418994 L 123.73046875 128.64855012120157 L 124.8046875 130.62658521095804 L 125.97656250000001 133.32952356787317 L 127.34375000000001 137.113634209502 L 128.90625 142.13146071234513 L 130.859375 149.1873438577042 L 133.7890625 160.69088624483743 L 137.98828125 177.08490085580462 L 140.13671875 184.58723044117556 L 141.89453125 189.97285080171986 L 143.45703125 194.07082879327174 L 144.82421875 197.06359701308898 L 146.19140625 199.4659935073115 L 147.4609375 201.14916326261365 L 148.6328125 202.2282783091948 L 149.609375 202.78056626565996 L 150.5859375 203.02225813568373 L 151.46484375 202.98065797391348 L 152.44140625 202.65638209017658 L 153.41796875 202.05248827969928 L 154.58984375 200.98158247923305 L 155.95703125 199.2963115486384 L 157.51953125 196.86851128041314 L 159.375 193.42254976062952 L 161.71875 188.46590544449884 L 168.65234375 173.41291967803787 L 170.60546875 169.97508459491127 L 172.265625 167.57550358871075 L 173.828125 165.8283372010955 L 175.09765625 164.80734577283462 L 176.26953125 164.19826914266216 L 177.34375 163.9279192500014 L 178.41796875 163.9349254079035 L 179.4921875 164.21721587674787 L 180.56640625 164.7689686323519 L 181.73828125 165.66701402472572 L 183.10546875 167.0829294977611 L 184.66796875 169.14357127084264 L 186.5234375 172.11806269872338 L 188.671875 176.11859231954466 L 191.796875 182.56018128283202 L 196.19140625 191.57969952269957 L 198.4375 195.6007080338327 L 200.29296875000003 198.3970078904456 L 201.95312500000003 200.40039744293142 L 203.41796875 201.725252239984 L 204.6875 202.5113069079839 L 205.859375 202.9248640241484 L 206.93359375 203.03450933301306 L 208.0078125 202.8840532340816 L 209.08203125 202.47424492918913 L 210.25390625 201.7357514260552 L 211.5234375 200.60231667528728 L 212.98828125 198.88399514351397 L 214.6484375 196.44382491069837 L 216.50390625 193.16547660031603 L 218.5546875 188.97520535071985 L 221.09375 183.16936462232337 L 224.90234375 173.76897474626966 L 229.78515625 161.82948896515455 L 232.51953125 155.75804685175476 L 234.86328125 151.1084369685189 L 237.109375 147.21331881957738 L 239.2578125 144.03791637146702 L 241.30859375 141.51933692293775 L 243.26171875000003 139.58159694993748 L 245.1171875 138.14679327002474 L 246.875 137.14241061816836 L 248.53515625 136.50519110707225 L 250.09765625 136.18223265460017 L 251.5625 136.13007973193763 L 253.02734375 136.334590689983 L 254.39453125 136.7771388514593 L 255.76171875000003 137.49008032059288 L 257.12890625 138.50917456486883 L 258.49609375 139.8795194161458 L 259.86328125 141.65546394793537 L 261.23046875 143.89964972985578 L 262.59765625 146.680765496417 L 263.96484375 150.06943950888825 L 265.33203125 154.13147793233193 L 266.69921875 158.91736955909943 L 268.1640625 164.86951532924388 L 269.82421875 172.58326486752352 L 272.0703125 184.15780725417417 L 274.21875 194.98435399945538 L 275.29296875 199.3871476634942 L 276.07421875 201.71007332129636 L 276.66015625 202.75325400984653 L 277.05078125 203.0268729216487 L 277.34375 202.97185127180353 L 277.63671875 202.66538774380535 L 278.02734375 201.8172925913928 L 278.41796875 200.4004478127045 L 278.90625 197.7072816462172 L 279.39453125 193.82577297038387 L 279.98046875 187.3198527025877 L 280.56640625 178.42758828005 L 281.15234375 166.6992644063239 L 281.8359375 148.73677166038686 L 282.51953125 125.2497338707766 L 283.203125 95.11634782081501 L 283.984375 50.84612547016272 L 284.765625 -6.141633832003322 L 284.7694887919407 -6.5" stroke-linecap="round" stroke-linejoin="round" stroke-miterlimit="10" stroke-width="3.5" stroke-dasharray=""/></g></g></g><g id="labels-c49d1d97"/><g id="labels-c49d1d97"/></g></svg>