<svg version="1.1" xmlns="http://www.w3.org/2000/svg" xmlns:xlink="http://www.w3.org/1999/xlink" width="800" height="800"><defs/><g transform="scale(2,2)"><g id="background-10039a75"><rect fill="white" stroke="none" x="0" y="0" width="400" height="400" class="dcg-svg-background"/></g><g id="graphpaper-10039a75"><g id="grid-10039a75"><g><path fill="none" stroke="rgb(0,0,0)" class="dcg-svg-minor-gridline" paint-order="fill stroke markers" d=" M 7.5 0 L 7.5 400" stroke-opacity="0.3" stroke-miterlimit="10" stroke-dasharray=""/><path fill="none" stroke="rgb(0,0,0)" class="dcg-svg-minor-gridline" paint-order="fill stroke markers" d=" M 36.5 0 L 36.5 400" stroke-opacity="0.3" stroke-miterlimit="10" stroke-dasharray=""/><path fill="none" stroke="rgb(0,0,0)" class="dcg-svg-minor-gridline" paint-order="fill stroke markers" d=" M 66.5 0 L 66.5 400" stroke-opacity="0.3" stroke-miterlimit="10" stroke-dasharray=""/><path fill="none" stroke="rgb(0,0,0)" class="dcg-svg-minor-gridline" paint-order="fill stroke markers" d=" M 125.5 0 L 125.5 400" stroke-opacity="0.3" stroke-miterlimit="10" stroke-dasharray=""/><path fill="none" stroke="rgb(0,0,0)" class="dcg-svg-minor-gridline" paint-order="fill stroke markers" d=" M 155.5 0 L 155.5 400" stroke-opacity="0.3" stroke-miterlimit="10" stroke-dasharray=""/><path fill="none" stroke="rgb(0,0,0)" class="dcg-svg-minor-gridline" paint-order="fill stroke markers" d=" M 184.5 0 L 184.5 400" stroke-opacity="0.3" stroke-miterlimit="10" stroke-dasharray=""/><path fill="none" stroke="rgb(0,0,0)" class="dcg-svg-minor-gridline" paint-order="fill stroke markers" d=" M 214.5 0 L 214.5 400" stroke-opacity="0.3" stroke-miterlimit="10" stroke-dasharray=""/><path fill="none" stroke="rgb(0,0,0)" class="dcg-svg-minor-gridline" paint-order="fill stroke markers" d=" M 243.5 0 L 243.5 400" stroke-opacity="0.3" stroke-miterlimit="10" stroke-dasharray=""/><path fill="none" stroke="rgb(0,0,0)" class="dcg-svg-minor-gridline" paint-order="fill stroke markers" d=" M 273.5 0 L 273.5 400" stroke-opacity="0.3" stroke-miterlimit="10" stroke-dasharray=""/><path fill="none" stroke="rgb(0,0,0)" class="dcg-svg-minor-gridline" paint-order="fill stroke markers" d=" M 302.5 0 L 302.5 400" stroke-opacity="0.3" stroke-miterlimit="10" stroke-dasharray=""/><path fill="none" stroke="rgb(0,0,0)" class="dcg-svg-minor-gridline" paint-order="fill stroke markers" d=" M 332.5 0 L 332.5 400" stroke-opacity="0.3" stroke-miterlimit="10" stroke-dasharray=""/><path fill="none" stroke="rgb(0,0,0)" class="dcg-svg-minor-gridline" paint-order="fill stroke markers" d=" M 362.5 0 L 362.5 400" stroke-opacity="0.3" stroke-miterlimit="10" stroke-dasharray=""/><path fill="none" stroke="rgb(0,0,0)" class="dcg-svg-minor-gridline" paint-order="fill stroke markers" d=" M 391.5 0 L 391.5 400" stroke-opacity="0.3" stroke-miterlimit="10" stroke-dasharray=""/><path fill="none" stroke="rgb(0,0,0)" class="dcg-svg-minor-gridline" paint-order="fill stroke markers" d=" M 0 392.5 L 400 392.5" stroke-opacity="0.3" stroke-miterlimit="10" stroke-dasharray=""/><path fill="none" stroke="rgb(0,0,0)" class="dcg-svg-minor-gridline" paint-order="fill stroke markers" d=" M 0 363.5 L 400 363.5" stroke-opacity="0.3" stroke-miterlimit="10" stroke-dasharray=""/><path fill="none" stroke="rgb(0,0,0)" class="dcg-svg-minor-gridline" paint-order="fill stroke markers" d=" M 0 333.5 L 400 333.5" stroke-opacity="0.3" stroke-miterlimit="10" stroke-dasharray=""/><path fill="none" stroke="rgb(0,0,0)" class="dcg-svg-minor-gridline" paint-order="fill stroke markers" d=" M 0 274.5 L 400 274.5" stroke-opacity="0.3" stroke-miterlimit="10" stroke-dasharray=""/><path fill="none" stroke="rgb(0,0,0)" class="dcg-svg-minor-gridline" paint-order="fill stroke markers" d=" M 0 244.5 L 400 244.5" stroke-opacity="0.3" stroke-miterlimit="10" stroke-dasharray=""/><path fill="none" stroke="rgb(0,0,0)" class="dcg-svg-minor-gridline" paint-order="fill stroke markers" d=" M 0 215.5 L 400 215.5" stroke-opacity="0.3" stroke-miterlimit="10" stroke-dasharray=""/><path fill="none" stroke="rgb(0,0,0)" class="dcg-svg-minor-gridline" paint-order="fill stroke markers" d=" M 0 185.5 L 400 185.5" stroke-opacity="0.3" stroke-miterlimit="10" stroke-dasharray=""/><path fill="none" stroke="rgb(0,0,0)" class="dcg-svg-minor-gridline" paint-order="fill stroke markers" d=" M 0 155.5 L 400 155.5" stroke-opacity="0.3" stroke-miterlimit="10" stroke-dasharray=""/><path fill="none" stroke="rgb(0,0,0)" class="dcg-svg-minor-gridline" paint-order="fill stroke markers" d=" M 0 126.5 L 400 126.5" stroke-opacity="0.3" stroke-miterlimit="10" stroke-dasharray=""/><path fill="none" stroke="rgb(0,0,0)" class="dcg-svg-minor-gridline" paint-order="fill stroke markers" d=" M 0 96.5 L 400 96.5" stroke-opacity="0.3" stroke-miterlimit="10" stroke-dasharray=""/><path fill="none" stroke="rgb(0,0,0)" class="dcg-svg-minor-gridline" paint-order="fill stroke markers" d=" M 0 67.5 L 400 67.5" stroke-opacity="0.3" stroke-miterlimit="10" stroke-dasharray=""/><path fill="none" stroke="rgb(0,0,0)" class="dcg-svg-minor-gridline" paint-order="fill stroke markers" d=" M 0 37.5 L 400 37.5" stroke-opacity="0.3" stroke-miterlimit="10" stroke-dasharray=""/><path fill="none" stroke="rgb(0,0,0)" class="dcg-svg-minor-gridline" paint-order="fill stroke markers" d=" M 0 8.5 L 400 8.5" stroke-opacity="0.3" stroke-miterlimit="10" stroke-dasharray=""/><path fill="none" stroke="rgb(0,0,0)" class="dcg-svg-major-gridline" paint-order="fill stroke markers" d=" M 243.5 0 L 243.5 400" stroke-opacity="0.4285714285714285" stroke-miterlimit="10" stroke-dasharray=""/><path fill="none" stroke="rgb(0,0,0)" class="dcg-svg-major-gridline" paint-order="fill stroke markers" d=" M 391.5 0 L 391.5 400" stroke-opacity="0.4285714285714285" stroke-miterlimit="10" stroke-dasharray=""/><path fill="none" stroke="rgb(0,0,0)" class="dcg-svg-major-gridline" paint-order="fill stroke markers" d=" M 0 155.5 L 400 155.5" stroke-opacity="0.4285714285714285" stroke-miterlimit="10" stroke-dasharray=""/><path fill="none" stroke="rgb(0,0,0)" class="dcg-svg-major-gridline" paint-order="fill stroke markers" d=" M 0 8.5 L 400 8.5" stroke-opacity="0.4285714285714285" stroke-miterlimit="10" stroke-dasharray=""/></g></g><g id="axis-10039a75"><g id="yaxis-10039a75"><title>Y axis</title><g><path fill="none" stroke="rgb(0,0,0)" class="dcg-svg-axis-line" paint-order="fill stroke markers" d=" M 96 0 L 96 400" stroke-opacity="0.9" stroke-miterlimit="10" stroke-width="2" stroke-dasharray=""/></g></g><g id="xaxis-10039a75"><title>X axis</title><g><path fill="none" stroke="rgb(0,0,0)" class="dcg-svg-axis-line" paint-order="fill stroke markers" d=" M 0 304 L 400 304" stroke-opacity="0.9" stroke-miterlimit="10" stroke-width="2" stroke-dasharray=""/></g></g><g><g class="dcg-svg-axis-value"><text fill="none" stroke="#ffffff" font-family="Arial" font-size="17px" font-style="normal" font-weight="normal" text-decoration="normal" x="86.1269741333798" y="321.98285557983036" text-anchor="middle" stroke-miterlimit="2" stroke-width="3" stroke-dasharray="">0</text><text fill="#000000" stroke="none" font-family="Arial" font-size="17px" font-style="normal" font-weight="normal" text-decoration="normal" x="86.1269741333798" y="321.98285557983036" text-anchor="middle">0</text></g><g class="dcg-svg-axis-value"><text fill="none" stroke="#ffffff" font-family="Arial" font-size="17px" font-style="normal" font-weight="normal" text-decoration="normal" x="243.72593764615348" y="321.98285557983036" text-anchor="middle" stroke-miterlimit="2" stroke-width="3" stroke-dasharray="">1</text><text fill="#000000" stroke="none" font-family="Arial" font-size="17px" font-style="normal" font-weight="normal" text-decoration="normal" x="243.72593764615348" y="321.98285557983036" text-anchor="middle">1</text></g><g class="dcg-svg-axis-value"><text fill="none" stroke="#ffffff" font-family="Arial" font-size="17px" font-style="normal" font-weight="normal" text-decoration="normal" x="391.59760623705216" y="321.98285557983036" text-anchor="middle" stroke-miterlimit="2" stroke-width="3" stroke-dasharray="">2</text><text fill="#000000" stroke="none" font-family="Arial" font-size="17px" font-style="normal" font-weight="normal" text-decoration="normal" x="391.59760623705216" y="321.98285557983036" text-anchor="middle">2</text></g><g class="dcg-svg-axis-value"><text fill="none" stroke="#ffffff" font-family="Arial" font-size="17px" font-style="normal" font-weight="normal" text-decoration="normal" x="86.1269741333798" y="160.61118698893057" text-anchor="middle" stroke-miterlimit="2" stroke-width="3" stroke-dasharray="">1</text><text fill="#000000" stroke="none" font-family="Arial" font-size="17px" font-style="normal" font-weight="normal" text-decoration="normal" x="86.1269741333798" y="160.61118698893057" text-anchor="middle">1</text></g><g class="dcg-svg-axis-value dcg-svg-offcenter-axis-value"><text fill="none" stroke="#ffffff" font-family="Arial" font-size="17px" font-style="normal" font-weight="normal" text-decoration="normal" x="86.1269741333798" y="16.124000000000002" text-anchor="middle" stroke-miterlimit="2" stroke-width="3" stroke-dasharray="">2</text><text fill="#000000" stroke="none" font-family="Arial" font-size="17px" font-style="normal" font-weight="normal" text-decoration="normal" x="86.1269741333798" y="16.124000000000002" text-anchor="middle">2</text></g></g></g></g><g id="expressions-10039a75"><g id="sketch-10039a75"><title>Expression 4</title><path fill="#2d70b3" stroke="none" paint-order="stroke fill markers" d="" fill-opacity="0.4"/><g><path fill="none" stroke="#2d70b3" class="dcg-svg-curve" paint-order="fill stroke markers" d=" M 59.517630739863854 406.5 L 59.517630739863854 406.5 L 59.66796875000001 406.1061239937216 L 60.25390625000001 405.1420431618665 L 60.74218750000001 404.74116395524334 L 61.1328125 404.6942613081105 L 61.5234375 404.8954162312764 L 62.01171875 405.49743687883 L 62.4892222267958 406.5 L 78.56712846766501 406.5 L 78.7109375 405.98321269128746 L 79.19921875000001 404.9624222113224 L 79.6109239782922 404.6824115897434 L 79.8828125 404.80844237164865 L 80.2734375 405.44112215752614 L 80.62424480384178 406.5 L 93.13938863673074 406.5 L 93.45703125000001 396.49283215904103 L 94.7265625 349.37805892925144 L 98.63281250000001 198.53641995936425 L 99.60937500000001 170.10485179831664 L 100.390625 152.16608779358222 L 101.07421875 140.28683417324538 L 101.66015625 133.0057176594926 L 102.14843750000001 128.95771647650042 L 102.5390625 126.99794799456885 L 102.83203125 126.24338002899918 L 103.12500000000001 126.07429171527934 L 103.3203125 126.27268579311936 L 103.61328125 127.013365607085 L 104.00390625000001 128.77360457239473 L 104.49218750000001 132.08845010268806 L 105.17578125 138.4645080240663 L 106.0546875 148.8058224954904 L 109.27734375 189.01876650422014 L 110.05859375000001 195.67645073832722 L 110.74218750000001 199.80571742984438 L 111.23046875 201.72770594619521 L 111.62109375000001 202.6452104699701 L 112.01171875 203.02281677525616 L 112.3046875 202.9637222557062 L 112.6953125 202.45113120721604 L 113.18359375000001 201.16388903514078 L 113.76953125000001 198.78345226992985 L 114.453125 195.07152837825518 L 115.52734375 187.91348209658472 L 117.7734375 172.61638638710423 L 118.65234375000001 168.16621719584836 L 119.3359375 165.72383379210086 L 119.921875 164.43065292479488 L 120.41015625 163.94171104441588 L 120.80078125000001 163.93703040427684 L 121.19140625000001 164.2690525352989 L 121.6796875 165.1384351696704 L 122.265625 166.80034611374342 L 122.94921875 169.48790599609836 L 123.82812500000001 173.8790090301389 L 125.1953125 181.92438856251314 L 127.1484375 193.24499509490852 L 128.125 197.73738098580694 L 128.90625 200.43329446653334 L 129.58984375 202.03662510679357 L 130.17578125 202.81444933826336 L 130.6965655782013 203.03529956991713 L 131.0546875 202.9319234867068 L 131.54296875 202.4634290286724 L 132.12890625 201.4223970677219 L 132.8125 199.59395756548764 L 133.59375 196.7846595201538 L 134.5703125 192.3822069556261 L 135.83984375 185.6043838843019 L 141.11328125 156.1988141340148 L 142.3828125 150.76022703491438 L 143.5546875 146.58527331990544 L 144.7265625 143.21037298942989 L 145.80078125 140.7759864043583 L 146.875 138.91562701849193 L 147.94921875 137.570331347315 L 149.0234375 136.6856109366233 L 150 136.24343925687623 L 150.87337489203168 136.11955409076884 L 151.7578125 136.24400784262974 L 152.734375 136.66780987805376 L 153.7109375 137.3926963727895 L 154.78515625 138.54441538159315 L 155.95703125 140.23561705345864 L 157.2265625 142.59035512371094 L 158.49609375 145.48580949814496 L 159.9609375 149.46115497672648 L 161.62109375 154.66935258757246 L 163.96484375 162.84870883446996 L 167.578125 175.45090347746827 L 169.23828125 180.46454213295897 L 170.703125 184.21732667916598 L 172.0703125 187.0767857665078 L 173.33984375 189.15694805550527 L 174.609375 190.69184313206088 L 175.68359375 191.5804961119229 L 176.66015625 192.0751197435124 L 177.63671875 192.2805607744539 L 178.61328125 192.20185422774375 L 179.58984375 191.83962438773113 L 180.56640625 191.19046864198896 L 181.640625 190.13770382261964 L 182.8125 188.57465093767496 L 184.08203125 186.38600413152136 L 185.44921875 183.46093239923084 L 186.9140625 179.7169202605932 L 188.671875 174.5253621865906 L 191.11328125 166.51641234818632 L 194.82421875 154.3690200125305 L 196.6796875 149.08028557409625 L 198.2421875 145.27959943128096 L 199.70703125 142.3245143380969 L 201.07421875 140.11020152919008 L 202.44140625 138.40862104182833 L 203.7109375 137.26624106309976 L 204.8828125 136.5663725252867 L 205.95703125 136.21126952857495 L 207.03125 136.12333802699996 L 208.10546875 136.3016047501416 L 209.1796875 136.75107590039838 L 210.25390625 137.4823688270501 L 211.42578125 138.61936833591503 L 212.6953125 140.27664192927404 L 214.0625 142.58867975755848 L 215.4296875 145.47433540861368 L 216.796875 148.94301017545027 L 218.26171875 153.2857940990833 L 219.921875 158.90831913288852 L 222.0703125 167.01184030934536 L 227.34375 187.2757616192285 L 228.90625 192.28290804485843 L 230.27343750000003 195.9650790038155 L 231.44531250000003 198.52687262397768 L 232.6171875 200.50684435168336 L 233.69140625 201.80637377505502 L 234.66796875000003 202.57213212020343 L 235.546875 202.94170925691571 L 236.42578125 203.03209990468147 L 237.30468750000003 202.87124790488838 L 238.28125 202.4366320092233 L 239.45312500000003 201.62444006157077 L 241.015625 200.18886256840543 L 247.4609375 193.84454082919348 L 248.828125 193.04852824596992 L 250.09765625 192.61398942495964 L 251.26953125 192.50145098505246 L 252.34375 192.65712872502758 L 253.41796875 193.06822903780656 L 254.58984375 193.80826439543802 L 255.859375 194.9383129388536 L 257.421875 196.7334270598596 L 262.20703125 202.58575155980657 L 262.98828125 202.97833878701275 L 263.57421875 203.0231470463603 L 264.16015625 202.80477199407295 L 264.74609375 202.27798093477764 L 265.4296875 201.21455544918618 L 266.11328125 199.60607951214251 L 266.796875 197.39845739085973 L 267.578125 194.0954271453814 L 268.45703125 189.36894755140014 L 269.43359375 182.93666408739733 L 270.703125 173.10794902496878 L 273.828125 148.17218944605156 L 274.70703125 142.889818355146 L 275.48828125 139.35661466488548 L 276.07421875 137.51004339821537 L 276.5625 136.53785409876002 L 277.05078125 136.1281492100267 L 277.34375 136.1843493989427 L 277.63671875 136.49985985632523 L 278.02734375 137.39467724959937 L 278.41796875 138.9588110863336 L 278.80859375 141.38678807209925 L 279.19921875 144.93994535243954 L 279.6875 151.45961657360547 L 280.17578125 160.90809652394384 L 280.76171875 176.52066425596533 L 281.640625 201.25055359638898 L 281.8413629347423 203.03529956991719 L 281.93359375 202.5575325470778 L 282.12890625 197.57268197880592 L 282.32421875 184.8579937014316 L 282.51953125 160.59275283514128 L 282.8125 90.33021726082549 L 283.0208401995266 -6.5" stroke-linecap="round" stroke-linejoin="round" stroke-miterlimit="10" stroke-width="3.5" stroke-dasharray=""/></g></g></g><g id="labels-10039a75"/><g id="labels-10039a75"/></g></svg>