<svg version="1.1" xmlns="http://www.w3.org/2000/svg" xmlns:xlink="http://www.w3.org/1999/xlink" width="800" height="800"><defs/><g transform="scale(2,2)"><g id="background-47eaf3a9"><rect fill="white" stroke="none" x="0" y="0" width="400" height="400" class="dcg-svg-background"/></g><g id="graphpaper-47eaf3a9"><g id="grid-47eaf3a9"><g><path fill="none" stroke="rgb(0,0,0)" class="dcg-svg-minor-gridline" paint-order="fill stroke markers" d=" M 7.5 0 L 7.5 400" stroke-opacity="0.3" stroke-miterlimit="10" stroke-dasharray=""/><path fill="none" stroke="rgb(0,0,0)" class="dcg-svg-minor-gridline" paint-order="fill stroke markers" d=" M 36.5 0 L 36.5 400" stroke-opacity="0.3" stroke-miterlimit="10" stroke-dasharray=""/><path fill="none" stroke="rgb(0,0,0)" class="dcg-svg-minor-gridline" paint-order="fill stroke markers" d=" M 66.5 0 L 66.5 400" stroke-opacity="0.3" stroke-miterlimit="10" stroke-dasharray=""/><path fill="none" stroke="rgb(0,0,0)" class="dcg-svg-minor-gridline" paint-order="fill stroke markers" d=" M 125.5 0 L 125.5 400" stroke-opacity="0.3" stroke-miterlimit="10" stroke-dasharray=""/><path fill="none" stroke="rgb(0,0,0)" class="dcg-svg-minor-gridline" paint-order="fill stroke markers" d=" M 155.5 0 L 155.5 400" stroke-opacity="0.3" stroke-miterlimit="10" stroke-dasharray=""/><path fill="none" stroke="rgb(0,0,0)" class="dcg-svg-minor-gridline" paint-order="fill stroke markers" d=" M 184.5 0 L 184.5 400" stroke-opacity="0.3" stroke-miterlimit="10" stroke-dasharray=""/><path fill="none" stroke="rgb(0,0,0)" class="dcg-svg-minor-gridline" paint-order="fill stroke markers" d=" M 214.5 0 L 214.5 400" stroke-opacity="0.3" stroke-miterlimit="10" stroke-dasharray=""/><path fill="none" stroke="rgb(0,0,0)" class="dcg-svg-minor-gridline" paint-order="fill stroke markers" d=" M 243.5 0 L 243.5 400" stroke-opacity="0.3" stroke-miterlimit="10" stroke-dasharray=""/><path fill="none" stroke="rgb(0,0,0)" class="dcg-svg-minor-gridline" paint-order="fill stroke markers" d=" M 273.5 0 L 273.5 400" stroke-opacity="0.3" stroke-miterlimit="10" stroke-dasharray=""/><path fill="none" stroke="rgb(0,0,0)" class="dcg-svg-minor-gridline" paint-order="fill stroke markers" d=" M 302.5 0 L 302.5 400" stroke-opacity="0.3" stroke-miterlimit="10" stroke-dasharray=""/><path fill="none" stroke="rgb(0,0,0)" class="dcg-svg-minor-gridline" paint-order="fill stroke markers" d=" M 332.5 0 L 332.5 400" stroke-opacity="0.3" stroke-miterlimit="10" stroke-dasharray=""/><path fill="none" stroke="rgb(0,0,0)" class="dcg-svg-minor-gridline" paint-order="fill stroke markers" d=" M 362.5 0 L 362.5 400" stroke-opacity="0.3" stroke-miterlimit="10" stroke-dasharray=""/><path fill="none" stroke="rgb(0,0,0)" class="dcg-svg-minor-gridline" paint-order="fill stroke markers" d=" M 391.5 0 L 391.5 400" stroke-opacity="0.3" stroke-miterlimit="10" stroke-dasharray=""/><path fill="none" stroke="rgb(0,0,0)" class="dcg-svg-minor-gridline" paint-order="fill stroke markers" d=" M 0 392.5 L 400 392.5" stroke-opacity="0.3" stroke-miterlimit="10" stroke-dasharray=""/><path fill="none" stroke="rgb(0,0,0)" class="dcg-svg-minor-gridline" paint-order="fill stroke markers" d=" M 0 363.5 L 400 363.5" stroke-opacity="0.3" stroke-miterlimit="10" stroke-dasharray=""/><path fill="none" stroke="rgb(0,0,0)" class="dcg-svg-minor-gridline" paint-order="fill stroke markers" d=" M 0 333.5 L 400 333.5" stroke-opacity="0.3" stroke-miterlimit="10" stroke-dasharray=""/><path fill="none" stroke="rgb(0,0,0)" class="dcg-svg-minor-gridline" paint-order="fill stroke markers" d=" M 0 274.5 L 400 274.5" stroke-opacity="0.3" stroke-miterlimit="10" stroke-dasharray=""/><path fill="none" stroke="rgb(0,0,0)" class="dcg-svg-minor-gridline" paint-order="fill stroke markers" d=" M 0 244.5 L 400 244.5" stroke-opacity="0.3" stroke-miterlimit="10" stroke-dasharray=""/><path fill="none" stroke="rgb(0,0,0)" class="dcg-svg-minor-gridline" paint-order="fill stroke markers" d=" M 0 215.5 L 400 215.5" stroke-opacity="0.3" stroke-miterlimit="10" stroke-dasharray=""/><path fill="none" stroke="rgb(0,0,0)" class="dcg-svg-minor-gridline" paint-order="fill stroke markers" d=" M 0 185.5 L 400 185.5" stroke-opacity="0.3" stroke-miterlimit="10" stroke-dasharray=""/><path fill="none" stroke="rgb(0,0,0)" class="dcg-svg-minor-gridline" paint-order="fill stroke markers" d=" M 0 155.5 L 400 155.5" stroke-opacity="0.3" stroke-miterlimit="10" stroke-dasharray=""/><path fill="none" stroke="rgb(0,0,0)" class="dcg-svg-minor-gridline" paint-order="fill stroke markers" d=" M 0 126.5 L 400 126.5" stroke-opacity="0.3" stroke-miterlimit="10" stroke-dasharray=""/><path fill="none" stroke="rgb(0,0,0)" class="dcg-svg-minor-gridline" paint-order="fill stroke markers" d=" M 0 96.5 L 400 96.5" stroke-opacity="0.3" stroke-miterlimit="10" stroke-dasharray=""/><path fill="none" stroke="rgb(0,0,0)" class="dcg-svg-minor-gridline" paint-order="fill stroke markers" d=" M 0 67.5 L 400 67.5" stroke-opacity="0.3" stroke-miterlimit="10" stroke-dasharray=""/><path fill="none" stroke="rgb(0,0,0)" class="dcg-svg-minor-gridline" paint-order="fill stroke markers" d=" M 0 37.5 L 400 37.5" stroke-opacity="0.3" stroke-miterlimit="10" stroke-dasharray=""/><path fill="none" stroke="rgb(0,0,0)" class="dcg-svg-minor-gridline" paint-order="fill stroke markers" d=" M 0 8.5 L 400 8.5" stroke-opacity="0.3" stroke-miterlimit="10" stroke-dasharray=""/><path fill="none" stroke="rgb(0,0,0)" class="dcg-svg-major-gridline" paint-order="fill stroke markers" d=" M 243.5 0 L 243.5 400" stroke-opacity="0.4285714285714285" stroke-miterlimit="10" stroke-dasharray=""/><path fill="none" stroke="rgb(0,0,0)" class="dcg-svg-major-gridline" paint-order="fill stroke markers" d=" M 391.5 0 L 391.5 400" stroke-opacity="0.4285714285714285" stroke-miterlimit="10" stroke-dasharray=""/><path fill="none" stroke="rgb(0,0,0)" class="dcg-svg-major-gridline" paint-order="fill stroke markers" d=" M 0 155.5 L 400 155.5" stroke-opacity="0.4285714285714285" stroke-miterlimit="10" stroke-dasharray=""/><path fill="none" stroke="rgb(0,0,0)" class="dcg-svg-major-gridline" paint-order="fill stroke markers" d=" M 0 8.5 L 400 8.5" stroke-opacity="0.4285714285714285" stroke-miterlimit="10" stroke-dasharray=""/></g></g><g id="axis-47eaf3a9"><g id="yaxis-47eaf3a9"><title>Y axis</title><g><path fill="none" stroke="rgb(0,0,0)" class="dcg-svg-axis-line" paint-order="fill stroke markers" d=" M 96 0 L 96 400" stroke-opacity="0.9" stroke-miterlimit="10" stroke-width="2" stroke-dasharray=""/></g></g><g id="xaxis-47eaf3a9"><title>X axis</title><g><path fill="none" stroke="rgb(0,0,0)" class="dcg-svg-axis-line" paint-order="fill stroke markers" d=" M 0 304 L 400 304" stroke-opacity="0.9" stroke-miterlimit="10" stroke-width="2" stroke-dasharray=""/></g></g><g><g class="dcg-svg-axis-value"><text fill="none" stroke="#ffffff" font-family="Arial" font-size="17px" font-style="normal" font-weight="normal" text-decoration="normal" x="86.1269741333798" y="321.98285557983036" text-anchor="middle" stroke-miterlimit="2" stroke-width="3" stroke-dasharray="">0</text><text fill="#000000" stroke="none" font-family="Arial" font-size="17px" font-style="normal" font-weight="normal" text-decoration="normal" x="86.1269741333798" y="321.98285557983036" text-anchor="middle">0</text></g><g class="dcg-svg-axis-value"><text fill="none" stroke="#ffffff" font-family="Arial" font-size="17px" font-style="normal" font-weight="normal" text-decoration="normal" x="243.72593764615348" y="321.98285557983036" text-anchor="middle" stroke-miterlimit="2" stroke-width="3" stroke-dasharray="">1</text><text fill="#000000" stroke="none" font-family="Arial" font-size="17px" font-style="normal" font-weight="normal" text-decoration="normal" x="243.72593764615348" y="321.98285557983036" text-anchor="middle">1</text></g><g class="dcg-svg-axis-value"><text fill="none" stroke="#ffffff" font-family="Arial" font-size="17px" font-style="normal" font-weight="normal" text-decoration="normal" x="391.59760623705216" y="321.98285557983036" text-anchor="middle" stroke-miterlimit="2" stroke-width="3" stroke-dasharray="">2</text><text fill="#000000" stroke="none" font-family="Arial" font-size="17px" font-style="normal" font-weight="normal" text-decoration="normal" x="391.59760623705216" y="321.98285557983036" text-anchor="middle">2</text></g><g class="dcg-svg-axis-value"><text fill="none" stroke="#ffffff" font-family="Arial" font-size="17px" font-style="normal" font-weight="normal" text-decoration="normal" x="86.1269741333798" y="160.61118698893057" text-anchor="middle" stroke-miterlimit="2" stroke-width="3" stroke-dasharray="">1</text><text fill="#000000" stroke="none" font-family="Arial" font-size="17px" font-style="normal" font-weight="normal" text-decoration="normal" x="86.1269741333798" y="160.61118698893057" text-anchor="middle">1</text></g><g class="dcg-svg-axis-value dcg-svg-offcenter-axis-value"><text fill="none" stroke="#ffffff" font-family="Arial" font-size="17px" font-style="normal" font-weight="normal" text-decoration="normal" x="86.1269741333798" y="16.124000000000002" text-anchor="middle" stroke-miterlimit="2" stroke-width="3" stroke-dasharray="">2</text><text fill="#000000" stroke="none" font-family="Arial" font-size="17px" font-style="normal" font-weight="normal" text-decoration="normal" x="86.1269741333798" y="16.124000000000002" text-anchor="middle">2</text></g></g></g></g><g id="expressions-47eaf3a9"><g id="sketch-47eaf3a9"><title>Expression 4</title><path fill="#2d70b3" stroke="none" paint-order="stroke fill markers" d="" fill-opacity="0.4"/><g><path fill="none" stroke="#2d70b3" class="dcg-svg-curve" paint-order="fill stroke markers" d=" M 30.194064943142337 406.5 L 30.194064943142337 406.5 L 30.46875 405.9384078773787 L 31.152343750000014 405.0786308558912 L 31.73828125 404.72982391657 L 32.32421875 404.715360428998 L 32.91015625 405.00161087902734 L 33.59375 405.6592707178759 L 34.18147976673097 406.5 L 47.04387099177409 406.5 L 47.46093750000001 405.69191737927594 L 48.24218750000001 404.8525607430056 L 48.74053408842913 404.6824115897434 L 49.121093750000014 404.792478044343 L 49.51171875000001 405.1531288676041 L 49.99999999999999 405.99660804901197 L 50.17950846138331 406.5 L 85.23092372228945 406.5 L 85.25390625 406.2488178225543 L 85.54687500000001 404.82639067295486 L 85.7421875 404.72788702954915 L 85.9375 405.3378265745519 L 86.08996733417264 406.5 L 90.82009737599937 406.5 L 90.8203125 406.4954253595302 L 91.015625 404.94510970935124 L 91.13186136223096 404.6824115897434 L 91.2109375 404.8078409854263 L 91.40625 406.22640993560896 L 91.42177504161444 406.5 L 95.05465365858394 406.5 L 95.21484375000001 389.712120659211 L 96.19140625 257.0203187215183 L 96.87500000000001 176.489324885925 L 97.36328125 140.62590713214624 L 97.65625 129.5579114503463 L 97.8515625 126.43338315191431 L 97.94831207739898 126.06260367303332 L 98.04687500000001 126.43195588175121 L 98.24218750000001 129.19163039367126 L 98.53515625000001 137.51166256860176 L 99.12109375 162.64902438164313 L 99.8046875 190.63804137399478 L 100.19531250000001 200.02806093206314 L 100.48828125000001 202.87836566581046 L 100.57667674827864 203.03529956991724 L 100.68359375000001 202.81266073921984 L 100.87890625 201.32551309922792 L 101.171875 196.89099652904798 L 101.7578125 183.48675195346036 L 102.44140625000001 168.92435033328488 L 102.83203125 164.6093755152475 L 103.06519520441725 163.8967024265226 L 103.12500000000001 163.9430214242566 L 103.3203125 164.72415696413225 L 103.61328125 167.5562596036557 L 104.00390625000001 173.7672720940672 L 105.46875 200.05061634198285 L 105.76171875 202.33299521150235 L 105.95703125 202.9769000079731 L 106.03640213965434 203.03529956991713 L 106.25 202.61921510905455 L 106.54296875 200.7590328450677 L 106.93359375000001 196.26357098893274 L 107.51953125000001 186.45139248931258 L 109.375 152.76566323554826 L 110.05859375000001 144.75134631213677 L 110.64453125 140.21038684472177 L 111.1328125 137.83287398251085 L 111.5234375 136.70628547607603 L 111.91406250000001 136.17799744726068 L 112.20703125 136.14003916233492 L 112.5 136.3940703958754 L 112.890625 137.17934239056623 L 113.37890625 138.88599107665854 L 113.8671875 141.41869615744451 L 114.453125 145.55170650093567 L 115.234375 152.74458068191177 L 116.50390625 166.84011697821785 L 117.67578125 179.12655859837088 L 118.45703125 185.35812322369384 L 119.04296875 188.70527039812958 L 119.62890625 190.91716131508056 L 120.1171875 191.947228679985 L 120.5078125 192.27292899315495 L 120.80078125000001 192.23762689068263 L 121.19140625000001 191.82369808884437 L 121.6796875 190.71499536420572 L 122.16796875000001 188.93887291211303 L 122.75390625000001 185.91984729393215 L 123.4375 181.22945523957083 L 124.31640625 173.69173569685674 L 127.1484375 148.04035773646604 L 127.9296875 143.1316663287321 L 128.61328125 139.966243613147 L 129.19921875 138.0542843191081 L 129.78515625 136.8205627342191 L 130.37109375 136.20756349846226 L 130.76171875 136.12305930753885 L 131.15234375 136.29064731888607 L 131.640625 136.854702800427 L 132.2265625 138.06530291156267 L 132.8125 139.88655831677698 L 133.49609375 142.8246858371095 L 134.27734375 147.28312170709842 L 135.15625 153.63533573463982 L 136.328125 163.83212658718213 L 139.0625 188.51387517783724 L 139.94140625 194.52699482890182 L 140.72265625 198.53735542400148 L 141.40625 200.96265554030714 L 141.9921875 202.26652416719153 L 142.578125 202.91965970744496 L 143.06640625 203.0283306621319 L 143.5546875 202.80213789096092 L 144.140625 202.17460074988418 L 145.01953125 200.7231213424036 L 148.73046875 193.84603120723136 L 149.609375 192.97154096439417 L 150.390625 192.56836951710403 L 151.07421875 192.51145517582097 L 151.7578125 192.72599384924746 L 152.5390625 193.28653466937732 L 153.41796875 194.27927816596065 L 154.58984375 196.07913581163433 L 158.30078125 202.2680067650989 L 159.08203125 202.8897428130819 L 159.65329949378372 203.03529956991724 L 160.15625 202.91471566721287 L 160.7421875 202.45438603361055 L 161.42578125 201.45858702089464 L 162.109375 199.96045749911178 L 162.890625 197.6530007316445 L 163.8671875 193.96693092843975 L 165.0390625 188.62439025224495 L 167.1875 177.59369810396538 L 169.140625 168.00572139881515 L 170.5078125 162.30623516412635 L 171.6796875 158.27563810632364 L 172.75390625 155.29808789679876 L 173.828125 152.98058671723666 L 174.90234375 151.27716161958696 L 175.9765625 150.13812320808154 L 176.85546875 149.59631407373843 L 177.63671875 149.39535371341805 L 178.41796875 149.4525933816916 L 179.19921875 149.7678792415263 L 180.078125 150.43748264719585 L 181.0546875 151.58939566822818 L 182.12890625 153.38362369800444 L 183.203125 155.7682021285348 L 184.27734375 158.77513820353875 L 185.44921875 162.77609482886714 L 186.71875 167.91063254459863 L 188.37890625 175.60960747228097 L 191.89453125 192.30715326092655 L 193.06640625 196.72644466863287 L 194.04296875 199.58580162938074 L 194.82421875 201.2616487456209 L 195.60546875 202.37532617860217 L 196.2890625 202.89955749739852 L 196.87375400052167 203.03529956991724 L 197.4609375 202.90797147912278 L 198.14453125000003 202.46889921924878 L 199.0234375 201.53305840454277 L 200.29296875000003 199.6919609725862 L 203.7109375 194.4804004399255 L 204.8828125 193.29932463252348 L 205.859375 192.70509219319533 L 206.640625 192.50885492108165 L 207.421875 192.56845680818344 L 208.203125 192.8827971646521 L 209.08203125 193.52939788161058 L 210.15625000000003 194.70253399991032 L 211.5234375 196.6774695156409 L 215.0390625 202.07335438668088 L 215.91796875 202.8164585214696 L 216.60156250000003 203.03380241359977 L 217.18750000000003 202.91453167010133 L 217.7734375 202.47541494052734 L 218.45703125 201.52090404093775 L 219.140625 200.0613916728625 L 219.921875 197.76066813536926 L 220.80078125 194.3871354322232 L 221.77734375 189.75800630828812 L 223.046875 182.65586156665717 L 228.125 152.88460293149723 L 229.296875 147.8154975517299 L 230.37109375 144.06844863061434 L 231.34765625 141.38645121047412 L 232.32421875 139.3390715464901 L 233.30078125 137.85708045966382 L 234.27734375 136.86881090694268 L 235.15625 136.34694192157224 L 236.03515625 136.1303583356028 L 236.9140625 136.18440740703488 L 237.89062500000003 136.52616880530684 L 238.96484375 137.2029569801797 L 240.234375 138.3460094028586 L 241.89453125 140.2636746876011 L 247.85156250000003 147.5691144627865 L 249.12109375 148.49277943867355 L 250.1953125 148.95242604744485 L 251.13964332238342 149.08519512173737 L 252.05078125000003 148.95831646631737 L 253.02734375 148.53738721413643 L 254.00390625 147.82427169374049 L 255.17578125000003 146.60480954772842 L 256.640625 144.6064675059565 L 259.08203125 140.64327818638026 L 260.83984375 138.00451970029536 L 262.01171875 136.73599324232634 L 262.79296875 136.24497154180835 L 263.4765625 136.12216677898533 L 264.0625 136.29761283801108 L 264.6484375 136.78788558447712 L 265.234375 137.66007733359444 L 265.8203125 138.99794118809686 L 266.40625 140.90233019528299 L 266.9921875 143.48716758010082 L 267.67578125 147.51699740357358 L 268.359375 152.78042569624924 L 269.140625 160.36536093339996 L 270.21484375 173.05518965208825 L 271.875 193.01075869645263 L 272.55859375 198.88170301943285 L 273.046875 201.57588020845384 L 273.4375 202.73567737907507 L 273.7686591699695 203.03529956991719 L 274.0234375 202.8689837261887 L 274.4140625 202.0317967996713 L 274.90234375 200.23180769555023 L 276.5625 193.24935564024074 L 276.953125 192.57692837726728 L 277.24609375 192.5341134252124 L 277.5390625 192.94103345526847 L 277.83203125 193.8280001646621 L 278.22265625 195.74987311698098 L 279.4948906611037 203.03529956991724 L 279.58984375 202.92998797348764 L 279.78515625 201.9352993223589 L 279.98046875 199.63328999014396 L 280.2734375 193.14525475939126 L 280.6640625 178.44622612888793 L 281.54296875 140.13035795588357 L 281.73828125 136.64441892826565 L 281.8413629347423 136.11955409076882 L 281.93359375 136.61189588276912 L 282.03125 138.46477165133732 L 282.2265625 149.23987293728524 L 282.421875 177.14289492857802 L 282.5872014781623 203.03529956991707 L 282.71484375 131.97131247501306 L 282.7566266928585 -6.5" stroke-linecap="round" stroke-linejoin="round" stroke-miterlimit="10" stroke-width="3.5" stroke-dasharray=""/></g></g></g><g id="labels-47eaf3a9"/><g id="labels-47eaf3a9"/></g></svg>