<svg version="1.1" xmlns="http://www.w3.org/2000/svg" xmlns:xlink="http://www.w3.org/1999/xlink" width="800" height="800"><defs/><g transform="scale(2,2)"><g id="background-a3690add"><rect fill="white" stroke="none" x="0" y="0" width="400" height="400" class="dcg-svg-background"/></g><g id="graphpaper-a3690add"><g id="grid-a3690add"><g><path fill="none" stroke="rgb(0,0,0)" class="dcg-svg-minor-gridline" paint-order="fill stroke markers" d=" M 7.5 0 L 7.5 400" stroke-opacity="0.3" stroke-miterlimit="10" stroke-dasharray=""/><path fill="none" stroke="rgb(0,0,0)" class="dcg-svg-minor-gridline" paint-order="fill stroke markers" d=" M 36.5 0 L 36.5 400" stroke-opacity="0.3" stroke-miterlimit="10" stroke-dasharray=""/><path fill="none" stroke="rgb(0,0,0)" class="dcg-svg-minor-gridline" paint-order="fill stroke markers" d=" M 66.5 0 L 66.5 400" stroke-opacity="0.3" stroke-miterlimit="10" stroke-dasharray=""/><path fill="none" stroke="rgb(0,0,0)" class="dcg-svg-minor-gridline" paint-order="fill stroke markers" d=" M 125.5 0 L 125.5 400" stroke-opacity="0.3" stroke-miterlimit="10" stroke-dasharray=""/><path fill="none" stroke="rgb(0,0,0)" class="dcg-svg-minor-gridline" paint-order="fill stroke markers" d=" M 155.5 0 L 155.5 400" stroke-opacity="0.3" stroke-miterlimit="10" stroke-dasharray=""/><path fill="none" stroke="rgb(0,0,0)" class="dcg-svg-minor-gridline" paint-order="fill stroke markers" d=" M 184.5 0 L 184.5 400" stroke-opacity="0.3" stroke-miterlimit="10" stroke-dasharray=""/><path fill="none" stroke="rgb(0,0,0)" class="dcg-svg-minor-gridline" paint-order="fill stroke markers" d=" M 214.5 0 L 214.5 400" stroke-opacity="0.3" stroke-miterlimit="10" stroke-dasharray=""/><path fill="none" stroke="rgb(0,0,0)" class="dcg-svg-minor-gridline" paint-order="fill stroke markers" d=" M 243.5 0 L 243.5 400" stroke-opacity="0.3" stroke-miterlimit="10" stroke-dasharray=""/><path fill="none" stroke="rgb(0,0,0)" class="dcg-svg-minor-gridline" paint-order="fill stroke markers" d=" M 273.5 0 L 273.5 400" stroke-opacity="0.3" stroke-miterlimit="10" stroke-dasharray=""/><path fill="none" stroke="rgb(0,0,0)" class="dcg-svg-minor-gridline" paint-order="fill stroke markers" d=" M 302.5 0 L 302.5 400" stroke-opacity="0.3" stroke-miterlimit="10" stroke-dasharray=""/><path fill="none" stroke="rgb(0,0,0)" class="dcg-svg-minor-gridline" paint-order="fill stroke markers" d=" M 332.5 0 L 332.5 400" stroke-opacity="0.3" stroke-miterlimit="10" stroke-dasharray=""/><path fill="none" stroke="rgb(0,0,0)" class="dcg-svg-minor-gridline" paint-order="fill stroke markers" d=" M 362.5 0 L 362.5 400" stroke-opacity="0.3" stroke-miterlimit="10" stroke-dasharray=""/><path fill="none" stroke="rgb(0,0,0)" class="dcg-svg-minor-gridline" paint-order="fill stroke markers" d=" M 391.5 0 L 391.5 400" stroke-opacity="0.3" stroke-miterlimit="10" stroke-dasharray=""/><path fill="none" stroke="rgb(0,0,0)" class="dcg-svg-minor-gridline" paint-order="fill stroke markers" d=" M 0 392.5 L 400 392.5" stroke-opacity="0.3" stroke-miterlimit="10" stroke-dasharray=""/><path fill="none" stroke="rgb(0,0,0)" class="dcg-svg-minor-gridline" paint-order="fill stroke markers" d=" M 0 363.5 L 400 363.5" stroke-opacity="0.3" stroke-miterlimit="10" stroke-dasharray=""/><path fill="none" stroke="rgb(0,0,0)" class="dcg-svg-minor-gridline" paint-order="fill stroke markers" d=" M 0 333.5 L 400 333.5" stroke-opacity="0.3" stroke-miterlimit="10" stroke-dasharray=""/><path fill="none" stroke="rgb(0,0,0)" class="dcg-svg-minor-gridline" paint-order="fill stroke markers" d=" M 0 274.5 L 400 274.5" stroke-opacity="0.3" stroke-miterlimit="10" stroke-dasharray=""/><path fill="none" stroke="rgb(0,0,0)" class="dcg-svg-minor-gridline" paint-order="fill stroke markers" d=" M 0 244.5 L 400 244.5" stroke-opacity="0.3" stroke-miterlimit="10" stroke-dasharray=""/><path fill="none" stroke="rgb(0,0,0)" class="dcg-svg-minor-gridline" paint-order="fill stroke markers" d=" M 0 215.5 L 400 215.5" stroke-opacity="0.3" stroke-miterlimit="10" stroke-dasharray=""/><path fill="none" stroke="rgb(0,0,0)" class="dcg-svg-minor-gridline" paint-order="fill stroke markers" d=" M 0 185.5 L 400 185.5" stroke-opacity="0.3" stroke-miterlimit="10" stroke-dasharray=""/><path fill="none" stroke="rgb(0,0,0)" class="dcg-svg-minor-gridline" paint-order="fill stroke markers" d=" M 0 155.5 L 400 155.5" stroke-opacity="0.3" stroke-miterlimit="10" stroke-dasharray=""/><path fill="none" stroke="rgb(0,0,0)" class="dcg-svg-minor-gridline" paint-order="fill stroke markers" d=" M 0 126.5 L 400 126.5" stroke-opacity="0.3" stroke-miterlimit="10" stroke-dasharray=""/><path fill="none" stroke="rgb(0,0,0)" class="dcg-svg-minor-gridline" paint-order="fill stroke markers" d=" M 0 96.5 L 400 96.5" stroke-opacity="0.3" stroke-miterlimit="10" stroke-dasharray=""/><path fill="none" stroke="rgb(0,0,0)" class="dcg-svg-minor-gridline" paint-order="fill stroke markers" d=" M 0 67.5 L 400 67.5" stroke-opacity="0.3" stroke-miterlimit="10" stroke-dasharray=""/><path fill="none" stroke="rgb(0,0,0)" class="dcg-svg-minor-gridline" paint-order="fill stroke markers" d=" M 0 37.5 L 400 37.5" stroke-opacity="0.3" stroke-miterlimit="10" stroke-dasharray=""/><path fill="none" stroke="rgb(0,0,0)" class="dcg-svg-minor-gridline" paint-order="fill stroke markers" d=" M 0 8.5 L 400 8.5" stroke-opacity="0.3" stroke-miterlimit="10" stroke-dasharray=""/><path fill="none" stroke="rgb(0,0,0)" class="dcg-svg-major-gridline" paint-order="fill stroke markers" d=" M 243.5 0 L 243.5 400" stroke-opacity="0.4285714285714285" stroke-miterlimit="10" stroke-dasharray=""/><path fill="none" stroke="rgb(0,0,0)" class="dcg-svg-major-gridline" paint-order="fill stroke markers" d=" M 391.5 0 L 391.5 400" stroke-opacity="0.4285714285714285" stroke-miterlimit="10" stroke-dasharray=""/><path fill="none" stroke="rgb(0,0,0)" class="dcg-svg-major-gridline" paint-order="fill stroke markers" d=" M 0 155.5 L 400 155.5" stroke-opacity="0.4285714285714285" stroke-miterlimit="10" stroke-dasharray=""/><path fill="none" stroke="rgb(0,0,0)" class="dcg-svg-major-gridline" paint-order="fill stroke markers" d=" M 0 8.5 L 400 8.5" stroke-opacity="0.4285714285714285" stroke-miterlimit="10" stroke-dasharray=""/></g></g><g id="axis-a3690add"><g id="yaxis-a3690add"><title>Y axis</title><g><path fill="none" stroke="rgb(0,0,0)" class="dcg-svg-axis-line" paint-order="fill stroke markers" d=" M 96 0 L 96 400" stroke-opacity="0.9" stroke-miterlimit="10" stroke-width="2" stroke-dasharray=""/></g></g><g id="xaxis-a3690add"><title>X axis</title><g><path fill="none" stroke="rgb(0,0,0)" class="dcg-svg-axis-line" paint-order="fill stroke markers" d=" M 0 304 L 400 304" stroke-opacity="0.9" stroke-miterlimit="10" stroke-width="2" stroke-dasharray=""/></g></g><g><g class="dcg-svg-axis-value"><text fill="none" stroke="#ffffff" font-family="Arial" font-size="17px" font-style="normal" font-weight="normal" text-decoration="normal" x="86.1269741333798" y="321.98285557983036" text-anchor="middle" stroke-miterlimit="2" stroke-width="3" stroke-dasharray="">0</text><text fill="#000000" stroke="none" font-family="Arial" font-size="17px" font-style="normal" font-weight="normal" text-decoration="normal" x="86.1269741333798" y="321.98285557983036" text-anchor="middle">0</text></g><g class="dcg-svg-axis-value"><text fill="none" stroke="#ffffff" font-family="Arial" font-size="17px" font-style="normal" font-weight="normal" text-decoration="normal" x="243.72593764615348" y="321.98285557983036" text-anchor="middle" stroke-miterlimit="2" stroke-width="3" stroke-dasharray="">1</text><text fill="#000000" stroke="none" font-family="Arial" font-size="17px" font-style="normal" font-weight="normal" text-decoration="normal" x="243.72593764615348" y="321.98285557983036" text-anchor="middle">1</text></g><g class="dcg-svg-axis-value"><text fill="none" stroke="#ffffff" font-family="Arial" font-size="17px" font-style="normal" font-weight="normal" text-decoration="normal" x="391.59760623705216" y="321.98285557983036" text-anchor="middle" stroke-miterlimit="2" stroke-width="3" stroke-dasharray="">2</text><text fill="#000000" stroke="none" font-family="Arial" font-size="17px" font-style="normal" font-weight="normal" text-decoration="normal" x="391.59760623705216" y="321.98285557983036" text-anchor="middle">2</text></g><g class="dcg-svg-axis-value"><text fill="none" stroke="#ffffff" font-family="Arial" font-size="17px" font-style="normal" font-weight="normal" text-decoration="normal" x="86.1269741333798" y="160.61118698893057" text-anchor="middle" stroke-miterlimit="2" stroke-width="3" stroke-dasharray="">1</text><text fill="#000000" stroke="none" font-family="Arial" font-size="17px" font-style="normal" font-weight="normal" text-decoration="normal" x="86.1269741333798" y="160.61118698893057" text-anchor="middle">1</text></g><g class="dcg-svg-axis-value dcg-svg-offcenter-axis-value"><text fill="none" stroke="#ffffff" font-family="Arial" font-size="17px" font-style="normal" font-weight="normal" text-decoration="normal" x="86.1269741333798" y="16.124000000000002" text-anchor="middle" stroke-miterlimit="2" stroke-width="3" stroke-dasharray="">2</text><text fill="#000000" stroke="none" font-family="Arial" font-size="17px" font-style="normal" font-weight="normal" text-decoration="normal" x="86.1269741333798" y="16.124000000000002" text-anchor="middle">2</text></g></g></g></g><g id="expressions-a3690add"><g id="sketch-a3690add"><title>Expression 4</title><path fill="#2d70b3" stroke="none" paint-order="stroke fill markers" d="" fill-opacity="0.4"/><g><path fill="none" stroke="#2d70b3" class="dcg-svg-curve" paint-order="fill stroke markers" d=" M 9.117429693215202 406.5 L 9.117429693215202 406.5 L 9.66796875 405.8389108620036 L 10.546875 405.2332891653167 L 11.5234375 404.89868785493746 L 12.890625 404.73988762638425 L 15.234375 404.7658161589428 L 16.503906250000014 404.9832768440763 L 17.3828125 405.36787683179574 L 18.1640625 405.99599426300136 L 18.547492221956695 406.5 L 56.48788719883943 406.5 L 56.64062500000001 405.70960755964285 L 57.031250000000014 404.798162023342 L 57.324218750000014 404.70253810976317 L 57.61718749999999 405.0409516037889 L 58.0078125 406.0316480196411 L 58.13108259007665 406.5 L 63.811032692249235 406.5 L 63.964843750000014 405.8620689624872 L 64.35546875000001 404.9068509696145 L 64.63381485680532 404.6824115897434 L 64.84375 404.8226489526114 L 65.13671875 405.5223216066296 L 65.35167492598359 406.5 L 76.32835705257364 406.5 L 76.66015625 404.97794175539104 L 76.9038287055542 404.6824115897434 L 77.05078125 404.78258956447775 L 77.34375 405.51810901771194 L 77.55617888225298 406.5 L 81.4922963934464 406.5 L 81.73828125000001 405.2054785680285 L 81.93359375 404.7262863985942 L 82.0086637121093 404.6824115897434 L 82.2265625 405.09507743259195 L 82.42187500000001 406.2601956399266 L 82.44269273728148 406.5 L 92.76960124750396 406.5 L 92.7734375 406.286986146559 L 92.89657350500222 404.68241158974354 L 92.96875 405.25573300238943 L 93.00310828731351 406.5 L 94.41530982657956 406.5 L 94.43359375 405.2417579581386 L 94.48310615107997 404.68241158974354 L 94.53365381719907 406.5 L 95.60785187857785 406.5 L 95.80078125 329.6922271047552 L 96.19140625 164.00518516501492 L 96.38671875 128.81973055296038 L 96.46222146964135 126.06260367303332 L 96.58203125000001 132.03253613297935 L 97.22543195942964 203.03529956991713 L 97.36328125 198.99371086014696 L 97.94831207739898 163.8967024265226 L 98.04687500000001 165.34431935531646 L 98.24218750000001 175.13773633230542 L 98.63281250000001 199.52669390453806 L 98.81196460550738 203.03529956991713 L 98.92578125000001 201.65996817253347 L 99.12109375 193.79054124987528 L 100.09765625 141.47018118180503 L 100.390625 136.84815670362084 L 100.57667674827864 136.11955409076873 L 100.68359375000001 136.3477149921111 L 100.87890625 137.9279031489225 L 101.171875 143.18251441734068 L 101.56250000000001 155.27665179476816 L 102.44140625000001 185.51979424395762 L 102.73437500000001 190.4646923714978 L 102.9296875 191.9890356746681 L 103.06519520441725 192.2875347521013 L 103.12500000000001 192.2302058400731 L 103.3203125 191.2477103596824 L 103.61328125 187.45970361421627 L 104.00390625000001 178.22821207455888 L 105.2734375 142.16319531070388 L 105.6640625 137.47239555481156 L 105.95703125 136.17918685021235 L 106.03640213965434 136.11955409076884 L 106.25 136.5477589783632 L 106.44531250000001 137.69785147808884 L 106.73828125 140.86100136092466 L 107.12890625 147.93869644024306 L 107.6171875 160.98363663640032 L 108.7890625 194.50137139761716 L 109.17968750000001 200.4608320583236 L 109.47265625000001 202.58516337593431 L 109.69987439840031 203.03529956991724 L 109.86328125 202.83499777327202 L 110.15625 201.67055240307536 L 110.74218750000001 197.861382053069 L 111.32812500000001 194.3562734520799 L 111.71875 192.95496026511256 L 112.01171875 192.5229294885628 L 112.20703125 192.53709178668345 L 112.5 192.99520480914111 L 112.890625 194.33844392081778 L 113.47656250000001 197.46726147384936 L 114.35546875 202.16603244699616 L 114.6484375 202.92224255261948 L 114.8047094049554 203.03529956991724 L 115.0390625 202.76230931920625 L 115.33203125 201.60482978296002 L 115.72265625000001 198.60920630391877 L 116.2109375 192.7761071016406 L 117.08984375 178.9450037488189 L 118.06640625 164.3288626847508 L 118.75 156.9607130962425 L 119.3359375 152.77578616471615 L 119.82421875 150.6342495514891 L 120.21484375 149.6958208495569 L 120.61050725243368 149.38545953598714 L 120.89843750000001 149.54759727819635 L 121.2890625 150.28870311324133 L 121.6796875 151.64991183227332 L 122.16796875000001 154.28191976506395 L 122.75390625000001 158.9057211270569 L 123.4375 166.3386975620399 L 124.41406250000001 179.75935512797804 L 125.48828125 194.11076822088438 L 126.07421875 199.54625377525127 L 126.46484375 201.78390086250008 L 126.85546875 202.8821024805829 L 127.1484375 203.0188719793231 L 127.44140625 202.65346661270507 L 127.83203125 201.55878595224 L 128.515625 198.69791746424403 L 129.4921875 194.62645183976167 L 130.078125 193.07592634430432 L 130.46875 192.5782359725099 L 130.76171875 192.50605501534056 L 131.0546875 192.69199828205996 L 131.4453125 193.3256550378017 L 131.93359375 194.67345233160802 L 132.6171875 197.31749872201948 L 133.7890625 201.9551059976556 L 134.1796875 202.82006683969524 L 134.47200840870892 203.03529956991724 L 134.66796875 202.9299690322378 L 134.9609375 202.35254606565135 L 135.25390625 201.23194364238597 L 135.64453125 198.85537367469328 L 136.1328125 194.5010385064887 L 136.81640625 186.2363203074631 L 139.6484375 148.8168084805708 L 140.33203125 143.42984116833244 L 140.91796875 140.19239120447318 L 141.50390625 138.03468838746207 L 141.9921875 136.9167563869502 L 142.48046875 136.3066494392892 L 142.9680040220805 136.11955409076873 L 143.359375 136.22828170531804 L 143.84765625 136.63952294574358 L 144.53125 137.64050464845943 L 145.41015625 139.46607720120303 L 149.0234375 147.67743479637514 L 149.8046875 148.61017681400847 L 150.48828125 149.0234847465869 L 151.07421875 149.06850890413318 L 151.66015625 148.83210726863206 L 152.34375 148.2195836107364 L 153.22265625 146.95996210289096 L 154.296875 144.86726360147557 L 157.71484375 137.69321472229345 L 158.59375 136.61679810580844 L 159.27734375 136.18481922219843 L 159.86328125 136.14065695827333 L 160.3515625 136.36015856255767 L 160.9375 136.96476369828846 L 161.62109375 138.1961911754035 L 162.3046875 140.06479392813105 L 162.98828125 142.63800501348584 L 163.76953125 146.49339457862067 L 164.6484375 151.972950173723 L 165.72265625 160.02903834059785 L 169.140625 186.82951114542726 L 170.1171875 192.3704978085105 L 170.99609375 196.14839476914563 L 171.77734375 198.60754610156897 L 172.55859375 200.34234584895808 L 173.33984375 201.49685701007945 L 174.21875 202.28256719366254 L 175.09765625 202.7010868542248 L 176.26953125 202.93330072953296 L 178.22265625 202.9952309936712 L 180.078125 202.8411560242509 L 181.15234375 202.48902506270883 L 181.93359375 201.97313249755217 L 182.71484375 201.11858655293486 L 183.49609375 199.79991173117517 L 184.27734375 197.8854825018561 L 185.05859375 195.25457448437336 L 185.83984375 191.82006122907933 L 186.71875 186.9634368688951 L 187.79296875 179.7339659507807 L 189.453125 166.8622045885792 L 191.2109375 153.69232877320482 L 192.28515625 147.15465654892319 L 193.1640625 142.98279807538052 L 193.9453125 140.18743400475603 L 194.7265625 138.19478912004888 L 195.41015625 137.04061586835894 L 196.09375 136.3697490352956 L 196.6796875 136.1344788991161 L 197.265625 136.17824738734475 L 197.8515625 136.472108922849 L 198.6328125 137.206178669837 L 199.609375 138.5805050277858 L 200.9765625 141.08860554209696 L 203.90625 146.65615255852651 L 204.98046875 148.07078725280172 L 205.859375 148.79557789473117 L 206.54296875 149.05721289854492 L 207.2265625 149.04302887488305 L 207.91015625000003 148.7528730604767 L 208.69140625 148.09604627573748 L 209.66796875 146.8337922158592 L 210.83984375 144.80604763588346 L 214.84375 137.35879028230227 L 215.72265625 136.47207448763888 L 216.40625 136.14692789891686 L 216.9921875 136.16764495273264 L 217.48046875 136.42582528529778 L 218.06640625 137.06466946577993 L 218.75 138.33271288488965 L 219.43359375 140.25766110642982 L 220.1171875 142.94166568748636 L 220.80078125 146.47180983106762 L 221.58203125 151.59789619600255 L 222.55859375000003 159.55401805793005 L 223.92578125 172.6681472234398 L 225.5859375 188.3399761929684 L 226.46484375000003 194.90345291263947 L 227.1484375 198.7165379109225 L 227.734375 201.00398017514962 L 228.22265625000003 202.23014102925495 L 228.7109375 202.88278542076594 L 229.10552140397297 203.03529956991719 L 229.4921875 202.90290050559776 L 229.98046875 202.40467196195328 L 230.76171875 201.04937822146144 L 232.12890625 197.93547934374976 L 233.49609375000003 195.0480985496789 L 234.47265625 193.57367812485296 L 235.25390625000003 192.84216927986034 L 235.9375 192.5378907600044 L 236.62109375 192.53377619262395 L 237.30468750000003 192.80436253401888 L 238.0859375 193.4051413216656 L 239.16015625 194.62623053966246 L 241.015625 197.30461703792827 L 243.06640625 200.1409083984799 L 244.43359375000003 201.53585924245766 L 245.60546875 202.32962761099245 L 246.77734375 202.78529899603112 L 248.14453125000003 203.002003656596 L 250.390625 203.02485958254488 L 254.98046875 202.85741033667708 L 255.95703125 202.50511898872438 L 256.8359375 201.92818214533503 L 257.8125 200.92375332567852 L 258.88671875 199.34745164591038 L 260.3515625 196.59693463781608 L 261.9140625 193.73685309057544 L 262.6953125 192.8044522716589 L 263.28125 192.50798615887828 L 263.671875 192.55381554381677 L 264.16015625 192.92700494257303 L 264.74609375 193.88105203906588 L 265.33203125 195.39727637686042 L 266.11328125 198.1418649463252 L 267.28515625 202.29659261952912 L 267.67578125 202.97031306633951 L 267.8273192912202 203.03529956991719 L 268.06640625 202.8553541325915 L 268.359375 202.0789771586178 L 268.65234375 200.58956407798956 L 269.04296875 197.35808661751344 L 269.53125 191.23560906314964 L 270.21484375 179.3332128127367 L 271.875 148.36695494717526 L 272.4609375 141.5714783439975 L 272.94921875 138.1246198407738 L 273.33984375 136.6415151371955 L 273.6328125 136.1701220098954 L 273.828125 136.1290304549321 L 274.12109375 136.4418167233355 L 274.51171875 137.4900026232729 L 275 139.64341390973345 L 276.7578125 148.61695232481543 L 277.05078125 149.06298861136477 L 277.24609375 149.0365165262104 L 277.5390625 148.46448689820127 L 277.83203125 147.23464834817804 L 278.22265625 144.65504582552424 L 279.296875 136.51155592169727 L 279.4948906611037 136.11955409076873 L 279.58984375 136.22720051375597 L 279.78515625 137.2682809212149 L 279.98046875 139.84069814343928 L 280.17578125 144.66151322955332 L 280.46875 157.834981635547 L 281.29213274649834 203.03529956991713 L 281.34765625 202.74985841565282 L 281.54296875 198.4435739662938 L 281.8413629347423 192.4996414684603 L 281.93359375 193.37878801172144 L 282.21910024864644 203.03529956991713 L 282.32421875 196.10595745204412 L 282.5872014800002 136.11955409076893 L 282.70285276182386 203.03529956991707 L 282.7030780528939 -6.5" stroke-linecap="round" stroke-linejoin="round" stroke-miterlimit="10" stroke-width="3.5" stroke-dasharray=""/></g></g></g><g id="labels-a3690add"/><g id="labels-a3690add"/></g></svg>