<svg version="1.1" xmlns="http://www.w3.org/2000/svg" xmlns:xlink="http://www.w3.org/1999/xlink" width="800" height="800"><defs/><g transform="scale(2,2)"><g id="background-b1ac46fe"><rect fill="white" stroke="none" x="0" y="0" width="400" height="400" class="dcg-svg-background"/></g><g id="graphpaper-b1ac46fe"><g id="grid-b1ac46fe"><g><path fill="none" stroke="rgb(0,0,0)" class="dcg-svg-minor-gridline" paint-order="fill stroke markers" d=" M 31.5 0 L 31.5 400" stroke-opacity="0.3" stroke-miterlimit="10" stroke-dasharray=""/><path fill="none" stroke="rgb(0,0,0)" class="dcg-svg-minor-gridline" paint-order="fill stroke markers" d=" M 65.5 0 L 65.5 400" stroke-opacity="0.3" stroke-miterlimit="10" stroke-dasharray=""/><path fill="none" stroke="rgb(0,0,0)" class="dcg-svg-minor-gridline" paint-order="fill stroke markers" d=" M 98.5 0 L 98.5 400" stroke-opacity="0.3" stroke-miterlimit="10" stroke-dasharray=""/><path fill="none" stroke="rgb(0,0,0)" class="dcg-svg-minor-gridline" paint-order="fill stroke markers" d=" M 132.5 0 L 132.5 400" stroke-opacity="0.3" stroke-miterlimit="10" stroke-dasharray=""/><path fill="none" stroke="rgb(0,0,0)" class="dcg-svg-minor-gridline" paint-order="fill stroke markers" d=" M 166.5 0 L 166.5 400" stroke-opacity="0.3" stroke-miterlimit="10" stroke-dasharray=""/><path fill="none" stroke="rgb(0,0,0)" class="dcg-svg-minor-gridline" paint-order="fill stroke markers" d=" M 233.5 0 L 233.5 400" stroke-opacity="0.3" stroke-miterlimit="10" stroke-dasharray=""/><path fill="none" stroke="rgb(0,0,0)" class="dcg-svg-minor-gridline" paint-order="fill stroke markers" d=" M 266.5 0 L 266.5 400" stroke-opacity="0.3" stroke-miterlimit="10" stroke-dasharray=""/><path fill="none" stroke="rgb(0,0,0)" class="dcg-svg-minor-gridline" paint-order="fill stroke markers" d=" M 300.5 0 L 300.5 400" stroke-opacity="0.3" stroke-miterlimit="10" stroke-dasharray=""/><path fill="none" stroke="rgb(0,0,0)" class="dcg-svg-minor-gridline" paint-order="fill stroke markers" d=" M 334.5 0 L 334.5 400" stroke-opacity="0.3" stroke-miterlimit="10" stroke-dasharray=""/><path fill="none" stroke="rgb(0,0,0)" class="dcg-svg-minor-gridline" paint-order="fill stroke markers" d=" M 367.5 0 L 367.5 400" stroke-opacity="0.3" stroke-miterlimit="10" stroke-dasharray=""/><path fill="none" stroke="rgb(0,0,0)" class="dcg-svg-minor-gridline" paint-order="fill stroke markers" d=" M 0 368.5 L 400 368.5" stroke-opacity="0.3" stroke-miterlimit="10" stroke-dasharray=""/><path fill="none" stroke="rgb(0,0,0)" class="dcg-svg-minor-gridline" paint-order="fill stroke markers" d=" M 0 334.5 L 400 334.5" stroke-opacity="0.3" stroke-miterlimit="10" stroke-dasharray=""/><path fill="none" stroke="rgb(0,0,0)" class="dcg-svg-minor-gridline" paint-order="fill stroke markers" d=" M 0 300.5 L 400 300.5" stroke-opacity="0.3" stroke-miterlimit="10" stroke-dasharray=""/><path fill="none" stroke="rgb(0,0,0)" class="dcg-svg-minor-gridline" paint-order="fill stroke markers" d=" M 0 267.5 L 400 267.5" stroke-opacity="0.3" stroke-miterlimit="10" stroke-dasharray=""/><path fill="none" stroke="rgb(0,0,0)" class="dcg-svg-minor-gridline" paint-order="fill stroke markers" d=" M 0 233.5 L 400 233.5" stroke-opacity="0.3" stroke-miterlimit="10" stroke-dasharray=""/><path fill="none" stroke="rgb(0,0,0)" class="dcg-svg-minor-gridline" paint-order="fill stroke markers" d=" M 0 166.5 L 400 166.5" stroke-opacity="0.3" stroke-miterlimit="10" stroke-dasharray=""/><path fill="none" stroke="rgb(0,0,0)" class="dcg-svg-minor-gridline" paint-order="fill stroke markers" d=" M 0 132.5 L 400 132.5" stroke-opacity="0.3" stroke-miterlimit="10" stroke-dasharray=""/><path fill="none" stroke="rgb(0,0,0)" class="dcg-svg-minor-gridline" paint-order="fill stroke markers" d=" M 0 99.5 L 400 99.5" stroke-opacity="0.3" stroke-miterlimit="10" stroke-dasharray=""/><path fill="none" stroke="rgb(0,0,0)" class="dcg-svg-minor-gridline" paint-order="fill stroke markers" d=" M 0 65.5 L 400 65.5" stroke-opacity="0.3" stroke-miterlimit="10" stroke-dasharray=""/><path fill="none" stroke="rgb(0,0,0)" class="dcg-svg-minor-gridline" paint-order="fill stroke markers" d=" M 0 32.5 L 400 32.5" stroke-opacity="0.3" stroke-miterlimit="10" stroke-dasharray=""/><path fill="none" stroke="rgb(0,0,0)" class="dcg-svg-major-gridline" paint-order="fill stroke markers" d=" M 65.5 0 L 65.5 400" stroke-opacity="0.4285714285714285" stroke-miterlimit="10" stroke-dasharray=""/><path fill="none" stroke="rgb(0,0,0)" class="dcg-svg-major-gridline" paint-order="fill stroke markers" d=" M 334.5 0 L 334.5 400" stroke-opacity="0.4285714285714285" stroke-miterlimit="10" stroke-dasharray=""/><path fill="none" stroke="rgb(0,0,0)" class="dcg-svg-major-gridline" paint-order="fill stroke markers" d=" M 0 334.5 L 400 334.5" stroke-opacity="0.4285714285714285" stroke-miterlimit="10" stroke-dasharray=""/><path fill="none" stroke="rgb(0,0,0)" class="dcg-svg-major-gridline" paint-order="fill stroke markers" d=" M 0 65.5 L 400 65.5" stroke-opacity="0.4285714285714285" stroke-miterlimit="10" stroke-dasharray=""/></g></g><g id="axis-b1ac46fe"><g id="yaxis-b1ac46fe"><title>Y axis</title><g><path fill="none" stroke="rgb(0,0,0)" class="dcg-svg-axis-line" paint-order="fill stroke markers" d=" M 200 0 L 200 400" stroke-opacity="0.9" stroke-miterlimit="10" stroke-width="2" stroke-dasharray=""/></g></g><g id="xaxis-b1ac46fe"><title>X axis</title><g><path fill="none" stroke="rgb(0,0,0)" class="dcg-svg-axis-line" paint-order="fill stroke markers" d=" M 0 200 L 400 200" stroke-opacity="0.9" stroke-miterlimit="10" stroke-width="2" stroke-dasharray=""/></g></g><g><g class="dcg-svg-axis-value"><text fill="none" stroke="#ffffff" font-family="Arial" font-size="17px" font-style="normal" font-weight="normal" text-decoration="normal" x="189.99164880589112" y="218.2342214951307" text-anchor="middle" stroke-miterlimit="2" stroke-width="3" stroke-dasharray="">0</text><text fill="#000000" stroke="none" font-family="Arial" font-size="17px" font-style="normal" font-weight="normal" text-decoration="normal" x="189.99164880589112" y="218.2342214951307" text-anchor="middle">0</text></g><g class="dcg-svg-axis-value"><text fill="none" stroke="#ffffff" font-family="Arial" font-size="17px" font-style="normal" font-weight="normal" text-decoration="normal" x="62.414240341196944" y="218.2342214951307" text-anchor="middle" stroke-miterlimit="2" stroke-width="3" stroke-dasharray="">-2</text><text fill="#000000" stroke="none" font-family="Arial" font-size="17px" font-style="normal" font-weight="normal" text-decoration="normal" x="62.414240341196944" y="218.2342214951307" text-anchor="middle">-2</text></g><g class="dcg-svg-axis-value"><text fill="none" stroke="#ffffff" font-family="Arial" font-size="17px" font-style="normal" font-weight="normal" text-decoration="normal" x="334.1930807080853" y="218.2342214951307" text-anchor="middle" stroke-miterlimit="2" stroke-width="3" stroke-dasharray="">2</text><text fill="#000000" stroke="none" font-family="Arial" font-size="17px" font-style="normal" font-weight="normal" text-decoration="normal" x="334.1930807080853" y="218.2342214951307" text-anchor="middle">2</text></g><g class="dcg-svg-axis-value"><text fill="none" stroke="#ffffff" font-family="Arial" font-size="17px" font-style="normal" font-weight="normal" text-decoration="normal" x="187.16108239964112" y="339.2083584754504" text-anchor="middle" stroke-miterlimit="2" stroke-width="3" stroke-dasharray="">-2</text><text fill="#000000" stroke="none" font-family="Arial" font-size="17px" font-style="normal" font-weight="normal" text-decoration="normal" x="187.16108239964112" y="339.2083584754504" text-anchor="middle">-2</text></g><g class="dcg-svg-axis-value"><text fill="none" stroke="#ffffff" font-family="Arial" font-size="17px" font-style="normal" font-weight="normal" text-decoration="normal" x="189.99164880589112" y="70.26008451481101" text-anchor="middle" stroke-miterlimit="2" stroke-width="3" stroke-dasharray="">2</text><text fill="#000000" stroke="none" font-family="Arial" font-size="17px" font-style="normal" font-weight="normal" text-decoration="normal" x="189.99164880589112" y="70.26008451481101" text-anchor="middle">2</text></g></g></g></g><g id="expressions-b1ac46fe"><g id="sketch-b1ac46fe"><title>Expression 2</title><path fill="#2d70b3" stroke="none" paint-order="stroke fill markers" d="" fill-opacity="0.4"/><g><path fill="none" stroke="#2d70b3" class="dcg-svg-curve" paint-order="fill stroke markers" d=" M 49.37614913071409 406.5 L 49.37614913071409 406.5 L 49.51171875 216.9005309340549 L 49.70703125 141.6718968239815 L 49.824978581873324 132.87315300497085 L 49.90234375 135.66641105335722 L 50.1953125 173.47710534537433 L 50.68359375000003 237.00687532486302 L 50.9765625 256.08011524392526 L 51.26953125 264.3441424706768 L 51.5625 266.90345137704884 L 51.7578125 267.2866409562413 L 52.1484375 267.34717476364176 L 52.44140625 267.27703402507456 L 52.63671875 266.99617299182546 L 52.83203125 266.3098452754124 L 53.125 264.1260383604068 L 53.41796875 260.17368366683127 L 53.80859375 251.8950774933299 L 54.39453125 233.94541341304557 L 56.4453125 164.6316708231423 L 57.03125 152.37486947096403 L 57.6171875 144.05843810477853 L 58.10546875 139.54348966331904 L 58.59375 136.65156391884614 L 59.08203125 134.8982439531228 L 59.5703125 133.89443282742906 L 60.15625 133.28307922030825 L 60.83984375 132.9946951132533 L 61.9140625 132.88466086579572 L 67.28515625 132.87324965519704 L 70.703125 133.00072369798903 L 71.77734375 133.29708461761896 L 72.65625 133.82532383536244 L 73.43750000000001 134.63949825768708 L 74.21874999999999 135.90367393921866 L 75.00000000000001 137.7417866010712 L 75.78124999999999 140.2675039201824 L 76.5625 143.57084908643614 L 77.44140625 148.283257513408 L 78.41796874999999 154.7659687131487 L 79.49218750000001 163.30107802563816 L 80.859375 175.86250219471475 L 83.59374999999999 203.46361107465492 L 85.44921875 221.1194047199326 L 86.81640625000001 232.4021684009913 L 88.08593749999999 241.2269577841165 L 89.16015625 247.3991088814098 L 90.234375 252.43193789462197 L 91.21093749999999 256.10339073080644 L 92.18749999999999 259.0164765227033 L 93.16406249999999 261.2804500314238 L 94.23828125 263.15158494311345 L 95.41015624999999 264.60761562025266 L 96.58203125 265.60284281512617 L 97.8515625 266.30795164653847 L 99.31640625000001 266.79686481466484 L 101.17187499999999 267.11576059515824 L 103.90625 267.29067927585834 L 110.05859374999999 267.34608983756874 L 166.89453125 267.2643532497736 L 170.8984375 267.0089357454518 L 173.53515625 266.5862783571629 L 175.5859375 265.9964213999971 L 177.34375 265.2174791241578 L 178.90625 264.23942187714187 L 180.37109375 263.01380419446 L 181.8359375 261.42615739073665 L 183.3984375 259.2622729880478 L 184.86328125 256.72827390615595 L 186.328125 253.649917761256 L 187.79296875 249.98475799436102 L 189.2578125 245.70653426535222 L 190.8203125 240.46116352833283 L 192.578125 233.74807557424214 L 194.53125 225.38038673254545 L 196.87499999999997 214.34024415209933 L 200.87890625 194.2493703056551 L 204.1015625 178.52746152702497 L 206.34765625 168.57970773147974 L 208.203125 161.26662396224467 L 209.86328125 155.52076927540455 L 211.42578125 150.83630992107805 L 212.98828125 146.85168761378003 L 214.45312499999997 143.7260890726777 L 215.91796875 141.14887130081956 L 217.48046874999997 138.94418811178735 L 219.04296875 137.22939324689497 L 220.60546875 135.9276952950301 L 222.265625 134.91335009903804 L 224.0234375 134.16304715509915 L 225.9765625 133.61793681592755 L 228.41796875 133.22505027171738 L 231.640625 132.98932316355882 L 237.20703125 132.88490659970427 L 263.8671875 132.87315300497085 L 297.0703125 133.00075725182967 L 299.51171875 133.29042854334125 L 301.171875 133.74506331571925 L 302.44140625 134.3511725311427 L 303.61328125 135.21534664476576 L 304.6875 136.36658130124437 L 305.76171875 137.97519936750675 L 306.73828125 139.9428248265246 L 307.71484375 142.50169090914517 L 308.69140625 145.7621751909157 L 309.66796875 149.83028036268541 L 310.64453125 154.79700437632187 L 311.71875 161.37259176877984 L 312.890625 169.89948288163848 L 314.16015625 180.63378859960378 L 315.8203125 196.5182091228382 L 319.921875 236.7151285713057 L 321.09375 245.98909233604925 L 322.16796875 252.94090861404382 L 323.046875 257.4447201292635 L 323.92578125 260.90694163057947 L 324.70703125 263.1841473569633 L 325.48828125 264.8108950165839 L 326.26953125 265.90593483987277 L 327.1484375 266.6569233067774 L 328.02734375 267.0575233016002 L 329.19921875 267.27813465947537 L 331.34765625 267.3461033214438 L 338.4765625 267.251302063119 L 339.16015625 267.01275568474387 L 339.6484375 266.612303522886 L 340.13671875 265.846005474853 L 340.625 264.4709257485064 L 341.015625 262.7060121678804 L 341.40625 260.1113692833178 L 341.89453125 255.30458234184903 L 342.3828125 248.25589336460456 L 342.87109375 238.48240305030313 L 343.45703125 222.80586452711532 L 344.23828125 196.05390569896264 L 345.5078125 151.56505347022397 L 345.99609375 140.45323864822234 L 346.38671875 135.39065069035314 L 346.6796875 133.59119348510674 L 346.97265625 132.9625252181908 L 347.3596683959942 132.87315300497085 L 347.65625 132.917186462536 L 347.8515625 133.23679133847872 L 348.046875 134.37197957694343 L 348.2421875 137.2380328877057 L 348.4375 143.13788009156713 L 348.73046875 161.1356193700458 L 349.0234375 193.86927968426045 L 349.6129088736589 267.34728998529056 L 349.70703125 261.9479554391253 L 349.8046875 241.25825261077526 L 350 123.54545072536503 L 350.0859212327006 -6.5" stroke-linecap="round" stroke-linejoin="round" stroke-miterlimit="10" stroke-width="3.5" stroke-dasharray=""/></g></g></g><g id="labels-b1ac46fe"/><g id="labels-b1ac46fe"/></g></svg>