<svg version="1.1" xmlns="http://www.w3.org/2000/svg" xmlns:xlink="http://www.w3.org/1999/xlink" width="800" height="800"><defs/><g transform="scale(2,2)"><g id="background-a4fad914"><rect fill="white" stroke="none" x="0" y="0" width="400" height="400" class="dcg-svg-background"/></g><g id="graphpaper-a4fad914"><g id="grid-a4fad914"><g><path fill="none" stroke="rgb(0,0,0)" class="dcg-svg-minor-gridline" paint-order="fill stroke markers" d=" M 31.5 0 L 31.5 400" stroke-opacity="0.3" stroke-miterlimit="10" stroke-dasharray=""/><path fill="none" stroke="rgb(0,0,0)" class="dcg-svg-minor-gridline" paint-order="fill stroke markers" d=" M 65.5 0 L 65.5 400" stroke-opacity="0.3" stroke-miterlimit="10" stroke-dasharray=""/><path fill="none" stroke="rgb(0,0,0)" class="dcg-svg-minor-gridline" paint-order="fill stroke markers" d=" M 98.5 0 L 98.5 400" stroke-opacity="0.3" stroke-miterlimit="10" stroke-dasharray=""/><path fill="none" stroke="rgb(0,0,0)" class="dcg-svg-minor-gridline" paint-order="fill stroke markers" d=" M 132.5 0 L 132.5 400" stroke-opacity="0.3" stroke-miterlimit="10" stroke-dasharray=""/><path fill="none" stroke="rgb(0,0,0)" class="dcg-svg-minor-gridline" paint-order="fill stroke markers" d=" M 166.5 0 L 166.5 400" stroke-opacity="0.3" stroke-miterlimit="10" stroke-dasharray=""/><path fill="none" stroke="rgb(0,0,0)" class="dcg-svg-minor-gridline" paint-order="fill stroke markers" d=" M 233.5 0 L 233.5 400" stroke-opacity="0.3" stroke-miterlimit="10" stroke-dasharray=""/><path fill="none" stroke="rgb(0,0,0)" class="dcg-svg-minor-gridline" paint-order="fill stroke markers" d=" M 266.5 0 L 266.5 400" stroke-opacity="0.3" stroke-miterlimit="10" stroke-dasharray=""/><path fill="none" stroke="rgb(0,0,0)" class="dcg-svg-minor-gridline" paint-order="fill stroke markers" d=" M 300.5 0 L 300.5 400" stroke-opacity="0.3" stroke-miterlimit="10" stroke-dasharray=""/><path fill="none" stroke="rgb(0,0,0)" class="dcg-svg-minor-gridline" paint-order="fill stroke markers" d=" M 334.5 0 L 334.5 400" stroke-opacity="0.3" stroke-miterlimit="10" stroke-dasharray=""/><path fill="none" stroke="rgb(0,0,0)" class="dcg-svg-minor-gridline" paint-order="fill stroke markers" d=" M 367.5 0 L 367.5 400" stroke-opacity="0.3" stroke-miterlimit="10" stroke-dasharray=""/><path fill="none" stroke="rgb(0,0,0)" class="dcg-svg-minor-gridline" paint-order="fill stroke markers" d=" M 0 368.5 L 400 368.5" stroke-opacity="0.3" stroke-miterlimit="10" stroke-dasharray=""/><path fill="none" stroke="rgb(0,0,0)" class="dcg-svg-minor-gridline" paint-order="fill stroke markers" d=" M 0 334.5 L 400 334.5" stroke-opacity="0.3" stroke-miterlimit="10" stroke-dasharray=""/><path fill="none" stroke="rgb(0,0,0)" class="dcg-svg-minor-gridline" paint-order="fill stroke markers" d=" M 0 300.5 L 400 300.5" stroke-opacity="0.3" stroke-miterlimit="10" stroke-dasharray=""/><path fill="none" stroke="rgb(0,0,0)" class="dcg-svg-minor-gridline" paint-order="fill stroke markers" d=" M 0 267.5 L 400 267.5" stroke-opacity="0.3" stroke-miterlimit="10" stroke-dasharray=""/><path fill="none" stroke="rgb(0,0,0)" class="dcg-svg-minor-gridline" paint-order="fill stroke markers" d=" M 0 233.5 L 400 233.5" stroke-opacity="0.3" stroke-miterlimit="10" stroke-dasharray=""/><path fill="none" stroke="rgb(0,0,0)" class="dcg-svg-minor-gridline" paint-order="fill stroke markers" d=" M 0 166.5 L 400 166.5" stroke-opacity="0.3" stroke-miterlimit="10" stroke-dasharray=""/><path fill="none" stroke="rgb(0,0,0)" class="dcg-svg-minor-gridline" paint-order="fill stroke markers" d=" M 0 132.5 L 400 132.5" stroke-opacity="0.3" stroke-miterlimit="10" stroke-dasharray=""/><path fill="none" stroke="rgb(0,0,0)" class="dcg-svg-minor-gridline" paint-order="fill stroke markers" d=" M 0 99.5 L 400 99.5" stroke-opacity="0.3" stroke-miterlimit="10" stroke-dasharray=""/><path fill="none" stroke="rgb(0,0,0)" class="dcg-svg-minor-gridline" paint-order="fill stroke markers" d=" M 0 65.5 L 400 65.5" stroke-opacity="0.3" stroke-miterlimit="10" stroke-dasharray=""/><path fill="none" stroke="rgb(0,0,0)" class="dcg-svg-minor-gridline" paint-order="fill stroke markers" d=" M 0 32.5 L 400 32.5" stroke-opacity="0.3" stroke-miterlimit="10" stroke-dasharray=""/><path fill="none" stroke="rgb(0,0,0)" class="dcg-svg-major-gridline" paint-order="fill stroke markers" d=" M 65.5 0 L 65.5 400" stroke-opacity="0.4285714285714285" stroke-miterlimit="10" stroke-dasharray=""/><path fill="none" stroke="rgb(0,0,0)" class="dcg-svg-major-gridline" paint-order="fill stroke markers" d=" M 334.5 0 L 334.5 400" stroke-opacity="0.4285714285714285" stroke-miterlimit="10" stroke-dasharray=""/><path fill="none" stroke="rgb(0,0,0)" class="dcg-svg-major-gridline" paint-order="fill stroke markers" d=" M 0 334.5 L 400 334.5" stroke-opacity="0.4285714285714285" stroke-miterlimit="10" stroke-dasharray=""/><path fill="none" stroke="rgb(0,0,0)" class="dcg-svg-major-gridline" paint-order="fill stroke markers" d=" M 0 65.5 L 400 65.5" stroke-opacity="0.4285714285714285" stroke-miterlimit="10" stroke-dasharray=""/></g></g><g id="axis-a4fad914"><g id="yaxis-a4fad914"><title>Y axis</title><g><path fill="none" stroke="rgb(0,0,0)" class="dcg-svg-axis-line" paint-order="fill stroke markers" d=" M 200 0 L 200 400" stroke-opacity="0.9" stroke-miterlimit="10" stroke-width="2" stroke-dasharray=""/></g></g><g id="xaxis-a4fad914"><title>X axis</title><g><path fill="none" stroke="rgb(0,0,0)" class="dcg-svg-axis-line" paint-order="fill stroke markers" d=" M 0 200 L 400 200" stroke-opacity="0.9" stroke-miterlimit="10" stroke-width="2" stroke-dasharray=""/></g></g><g><g class="dcg-svg-axis-value"><text fill="none" stroke="#ffffff" font-family="Arial" font-size="17px" font-style="normal" font-weight="normal" text-decoration="normal" x="189.99164880589112" y="218.2342214951307" text-anchor="middle" stroke-miterlimit="2" stroke-width="3" stroke-dasharray="">0</text><text fill="#000000" stroke="none" font-family="Arial" font-size="17px" font-style="normal" font-weight="normal" text-decoration="normal" x="189.99164880589112" y="218.2342214951307" text-anchor="middle">0</text></g><g class="dcg-svg-axis-value"><text fill="none" stroke="#ffffff" font-family="Arial" font-size="17px" font-style="normal" font-weight="normal" text-decoration="normal" x="62.414240341196944" y="218.2342214951307" text-anchor="middle" stroke-miterlimit="2" stroke-width="3" stroke-dasharray="">-2</text><text fill="#000000" stroke="none" font-family="Arial" font-size="17px" font-style="normal" font-weight="normal" text-decoration="normal" x="62.414240341196944" y="218.2342214951307" text-anchor="middle">-2</text></g><g class="dcg-svg-axis-value"><text fill="none" stroke="#ffffff" font-family="Arial" font-size="17px" font-style="normal" font-weight="normal" text-decoration="normal" x="334.1930807080853" y="218.2342214951307" text-anchor="middle" stroke-miterlimit="2" stroke-width="3" stroke-dasharray="">2</text><text fill="#000000" stroke="none" font-family="Arial" font-size="17px" font-style="normal" font-weight="normal" text-decoration="normal" x="334.1930807080853" y="218.2342214951307" text-anchor="middle">2</text></g><g class="dcg-svg-axis-value"><text fill="none" stroke="#ffffff" font-family="Arial" font-size="17px" font-style="normal" font-weight="normal" text-decoration="normal" x="187.16108239964112" y="339.2083584754504" text-anchor="middle" stroke-miterlimit="2" stroke-width="3" stroke-dasharray="">-2</text><text fill="#000000" stroke="none" font-family="Arial" font-size="17px" font-style="normal" font-weight="normal" text-decoration="normal" x="187.16108239964112" y="339.2083584754504" text-anchor="middle">-2</text></g><g class="dcg-svg-axis-value"><text fill="none" stroke="#ffffff" font-family="Arial" font-size="17px" font-style="normal" font-weight="normal" text-decoration="normal" x="189.99164880589112" y="70.26008451481101" text-anchor="middle" stroke-miterlimit="2" stroke-width="3" stroke-dasharray="">2</text><text fill="#000000" stroke="none" font-family="Arial" font-size="17px" font-style="normal" font-weight="normal" text-decoration="normal" x="189.99164880589112" y="70.26008451481101" text-anchor="middle">2</text></g></g></g></g><g id="expressions-a4fad914"><g id="sketch-a4fad914"><title>Expression 2</title><path fill="#2d70b3" stroke="none" paint-order="stroke fill markers" d="" fill-opacity="0.4"/><g><path fill="none" stroke="#2d70b3" class="dcg-svg-curve" paint-order="fill stroke markers" d=" M 47.95690895985283 406.5 L 47.95690895985283 406.5 L 49.0234375 363.27278990637586 L 50.390625 315.91281933456594 L 51.66015625 278.4298650029623 L 52.9296875 246.57729138229922 L 54.1015625 221.68517981573592 L 55.2734375 200.70023562252493 L 56.4453125 183.24064623480922 L 57.51953125000003 170.02970604071285 L 58.59375 159.22891913094205 L 59.5703125 151.30205437258888 L 60.54687499999997 145.00536290059893 L 61.42578125 140.60362801251682 L 62.20703125 137.60792642872957 L 62.98828125 135.40193966287018 L 63.671875 134.06722361236024 L 64.35546875 133.24408166309132 L 64.94140625 132.91527311806956 L 65.52734375 132.90878866731182 L 66.11328125000003 133.20162833782456 L 66.796875 133.89232006059478 L 67.67578125000003 135.28186865126406 L 68.65234375000003 137.41309087771236 L 69.7265625 140.37444404165456 L 70.99609375 144.57162168234126 L 72.55859375 150.56047508656337 L 74.51171874999999 158.96703907577785 L 77.34375 172.19314252746085 L 83.59374999999999 201.60141118354375 L 86.23046875 212.89677051122203 L 88.57421875000001 222.04530253973124 L 90.72265625000001 229.60738374134243 L 92.7734375 236.05805684709833 L 94.72656249999999 241.50137036321468 L 96.67968749999999 246.27632969815576 L 98.53515624999999 250.2186697445136 L 100.390625 253.61506052388393 L 102.34374999999999 256.6425109124232 L 104.39453125 259.27017805417404 L 106.34765625000001 261.30262216773247 L 108.30078125000001 262.93113729899375 L 110.25390625 264.20919344405735 L 112.30468749999999 265.23069861304805 L 114.453125 266.0097147188111 L 116.89453125000001 266.6086515709794 L 119.72656249999999 267.02139223929925 L 123.33984375000001 267.2633629173214 L 129.1015625 267.34579322606976 L 142.67578125 267.2403843034392 L 146.97265625 266.93462538751675 L 150.29296875 266.4482178666316 L 153.22265625 265.76401010185305 L 155.95703125 264.8563133643821 L 158.49609375 263.74083410815064 L 161.03515625 262.32956704324545 L 163.4765625 260.66745843761055 L 166.015625 258.5993124788906 L 168.5546875 256.1681226379612 L 171.19140625 253.2478961472354 L 174.0234375 249.6582941091186 L 177.05078125 245.30904895950172 L 180.17578125 240.28666071189215 L 183.49609375 234.4006060387198 L 187.109375 227.42676000832518 L 191.2109375 218.9248413936725 L 196.484375 207.36978398442105 L 209.375 178.86264105285343 L 213.4765625 170.5194180056785 L 217.08984375 163.72412974648086 L 220.41015625 158.02786073059593 L 223.53515625 153.20075585454998 L 226.5625 149.05056615276655 L 229.49218749999997 145.54225061432157 L 232.2265625 142.71999968646932 L 234.86328125 140.4037762477094 L 237.40234375 138.53445820914007 L 239.94140625 136.99867099645152 L 242.48046875 135.770300320775 L 245.1171875 134.78700868069745 L 247.94921875 134.01896223105342 L 250.9765625 133.47096470178568 L 254.4921875 133.10521007276955 L 258.984375 132.9142369872071 L 267.578125 132.873154678295 L 277.05078125 132.99877885749004 L 280.6640625 133.31038445771037 L 283.49609375 133.81416611306145 L 285.83984375 134.48896729827865 L 287.98828125 135.37938510938224 L 289.94140625 136.46863764549857 L 291.89453125 137.87633196964407 L 293.75 139.5565156326848 L 295.60546875 141.61768015612944 L 297.55859375 144.2494593863158 L 299.51171875 147.4063409195689 L 301.3671875 150.93600522068485 L 303.22265625 155.0203295090358 L 305.078125 159.6897200727815 L 307.03125 165.26064250246725 L 308.984375 171.51565402838523 L 311.03515625 178.81346633325234 L 313.28125 187.62625270735646 L 315.72265625 198.07806568719988 L 318.75 212.01931105485707 L 326.171875 246.71328798209097 L 328.02734375 254.13946928791628 L 329.4921875 259.17156174061483 L 330.6640625 262.50304258105376 L 331.73828125 264.89361539395964 L 332.6171875 266.2976536653058 L 333.3984375 267.0714303170993 L 333.984375 267.32778456956873 L 334.5703125 267.2819734673306 L 335.15625 266.9108660863347 L 335.7421875 266.1902737100512 L 336.42578125 264.87408403745934 L 337.109375 263.0056667790148 L 337.890625 260.13727568250704 L 338.671875 256.4201082717519 L 339.55078125 251.13193039667217 L 340.4296875 244.56516657054232 L 341.40625 235.62542875262636 L 342.3828125 224.78899537683412 L 343.45703125 210.4583973554644 L 344.53125 193.34830628397668 L 345.60546875 173.17835384268284 L 346.77734375 147.3319769815982 L 347.94921875 117.06925273967673 L 349.21875 78.78024190182278 L 350.48828125 34.16856693599743 L 351.48896849268306 -6.5" stroke-linecap="round" stroke-linejoin="round" stroke-miterlimit="10" stroke-width="3.5" stroke-dasharray=""/></g></g></g><g id="labels-a4fad914"/><g id="labels-a4fad914"/></g></svg>