<svg version="1.1" xmlns="http://www.w3.org/2000/svg" xmlns:xlink="http://www.w3.org/1999/xlink" width="800" height="800"><defs/><g transform="scale(2,2)"><g id="background-d4593bbb"><rect fill="white" stroke="none" x="0" y="0" width="400" height="400" class="dcg-svg-background"/></g><g id="graphpaper-d4593bbb"><g id="grid-d4593bbb"><g><path fill="none" stroke="rgb(0,0,0)" class="dcg-svg-minor-gridline" paint-order="fill stroke markers" d=" M 31.5 0 L 31.5 400" stroke-opacity="0.3" stroke-miterlimit="10" stroke-dasharray=""/><path fill="none" stroke="rgb(0,0,0)" class="dcg-svg-minor-gridline" paint-order="fill stroke markers" d=" M 65.5 0 L 65.5 400" stroke-opacity="0.3" stroke-miterlimit="10" stroke-dasharray=""/><path fill="none" stroke="rgb(0,0,0)" class="dcg-svg-minor-gridline" paint-order="fill stroke markers" d=" M 98.5 0 L 98.5 400" stroke-opacity="0.3" stroke-miterlimit="10" stroke-dasharray=""/><path fill="none" stroke="rgb(0,0,0)" class="dcg-svg-minor-gridline" paint-order="fill stroke markers" d=" M 132.5 0 L 132.5 400" stroke-opacity="0.3" stroke-miterlimit="10" stroke-dasharray=""/><path fill="none" stroke="rgb(0,0,0)" class="dcg-svg-minor-gridline" paint-order="fill stroke markers" d=" M 166.5 0 L 166.5 400" stroke-opacity="0.3" stroke-miterlimit="10" stroke-dasharray=""/><path fill="none" stroke="rgb(0,0,0)" class="dcg-svg-minor-gridline" paint-order="fill stroke markers" d=" M 233.5 0 L 233.5 400" stroke-opacity="0.3" stroke-miterlimit="10" stroke-dasharray=""/><path fill="none" stroke="rgb(0,0,0)" class="dcg-svg-minor-gridline" paint-order="fill stroke markers" d=" M 266.5 0 L 266.5 400" stroke-opacity="0.3" stroke-miterlimit="10" stroke-dasharray=""/><path fill="none" stroke="rgb(0,0,0)" class="dcg-svg-minor-gridline" paint-order="fill stroke markers" d=" M 300.5 0 L 300.5 400" stroke-opacity="0.3" stroke-miterlimit="10" stroke-dasharray=""/><path fill="none" stroke="rgb(0,0,0)" class="dcg-svg-minor-gridline" paint-order="fill stroke markers" d=" M 334.5 0 L 334.5 400" stroke-opacity="0.3" stroke-miterlimit="10" stroke-dasharray=""/><path fill="none" stroke="rgb(0,0,0)" class="dcg-svg-minor-gridline" paint-order="fill stroke markers" d=" M 367.5 0 L 367.5 400" stroke-opacity="0.3" stroke-miterlimit="10" stroke-dasharray=""/><path fill="none" stroke="rgb(0,0,0)" class="dcg-svg-minor-gridline" paint-order="fill stroke markers" d=" M 0 368.5 L 400 368.5" stroke-opacity="0.3" stroke-miterlimit="10" stroke-dasharray=""/><path fill="none" stroke="rgb(0,0,0)" class="dcg-svg-minor-gridline" paint-order="fill stroke markers" d=" M 0 334.5 L 400 334.5" stroke-opacity="0.3" stroke-miterlimit="10" stroke-dasharray=""/><path fill="none" stroke="rgb(0,0,0)" class="dcg-svg-minor-gridline" paint-order="fill stroke markers" d=" M 0 300.5 L 400 300.5" stroke-opacity="0.3" stroke-miterlimit="10" stroke-dasharray=""/><path fill="none" stroke="rgb(0,0,0)" class="dcg-svg-minor-gridline" paint-order="fill stroke markers" d=" M 0 267.5 L 400 267.5" stroke-opacity="0.3" stroke-miterlimit="10" stroke-dasharray=""/><path fill="none" stroke="rgb(0,0,0)" class="dcg-svg-minor-gridline" paint-order="fill stroke markers" d=" M 0 233.5 L 400 233.5" stroke-opacity="0.3" stroke-miterlimit="10" stroke-dasharray=""/><path fill="none" stroke="rgb(0,0,0)" class="dcg-svg-minor-gridline" paint-order="fill stroke markers" d=" M 0 166.5 L 400 166.5" stroke-opacity="0.3" stroke-miterlimit="10" stroke-dasharray=""/><path fill="none" stroke="rgb(0,0,0)" class="dcg-svg-minor-gridline" paint-order="fill stroke markers" d=" M 0 132.5 L 400 132.5" stroke-opacity="0.3" stroke-miterlimit="10" stroke-dasharray=""/><path fill="none" stroke="rgb(0,0,0)" class="dcg-svg-minor-gridline" paint-order="fill stroke markers" d=" M 0 99.5 L 400 99.5" stroke-opacity="0.3" stroke-miterlimit="10" stroke-dasharray=""/><path fill="none" stroke="rgb(0,0,0)" class="dcg-svg-minor-gridline" paint-order="fill stroke markers" d=" M 0 65.5 L 400 65.5" stroke-opacity="0.3" stroke-miterlimit="10" stroke-dasharray=""/><path fill="none" stroke="rgb(0,0,0)" class="dcg-svg-minor-gridline" paint-order="fill stroke markers" d=" M 0 32.5 L 400 32.5" stroke-opacity="0.3" stroke-miterlimit="10" stroke-dasharray=""/><path fill="none" stroke="rgb(0,0,0)" class="dcg-svg-major-gridline" paint-order="fill stroke markers" d=" M 65.5 0 L 65.5 400" stroke-opacity="0.4285714285714285" stroke-miterlimit="10" stroke-dasharray=""/><path fill="none" stroke="rgb(0,0,0)" class="dcg-svg-major-gridline" paint-order="fill stroke markers" d=" M 334.5 0 L 334.5 400" stroke-opacity="0.4285714285714285" stroke-miterlimit="10" stroke-dasharray=""/><path fill="none" stroke="rgb(0,0,0)" class="dcg-svg-major-gridline" paint-order="fill stroke markers" d=" M 0 334.5 L 400 334.5" stroke-opacity="0.4285714285714285" stroke-miterlimit="10" stroke-dasharray=""/><path fill="none" stroke="rgb(0,0,0)" class="dcg-svg-major-gridline" paint-order="fill stroke markers" d=" M 0 65.5 L 400 65.5" stroke-opacity="0.4285714285714285" stroke-miterlimit="10" stroke-dasharray=""/></g></g><g id="axis-d4593bbb"><g id="yaxis-d4593bbb"><title>Y axis</title><g><path fill="none" stroke="rgb(0,0,0)" class="dcg-svg-axis-line" paint-order="fill stroke markers" d=" M 200 0 L 200 400" stroke-opacity="0.9" stroke-miterlimit="10" stroke-width="2" stroke-dasharray=""/></g></g><g id="xaxis-d4593bbb"><title>X axis</title><g><path fill="none" stroke="rgb(0,0,0)" class="dcg-svg-axis-line" paint-order="fill stroke markers" d=" M 0 200 L 400 200" stroke-opacity="0.9" stroke-miterlimit="10" stroke-width="2" stroke-dasharray=""/></g></g><g><g class="dcg-svg-axis-value"><text fill="none" stroke="#ffffff" font-family="Arial" font-size="17px" font-style="normal" font-weight="normal" text-decoration="normal" x="189.99164880589112" y="218.2342214951307" text-anchor="middle" stroke-miterlimit="2" stroke-width="3" stroke-dasharray="">0</text><text fill="#000000" stroke="none" font-family="Arial" font-size="17px" font-style="normal" font-weight="normal" text-decoration="normal" x="189.99164880589112" y="218.2342214951307" text-anchor="middle">0</text></g><g class="dcg-svg-axis-value"><text fill="none" stroke="#ffffff" font-family="Arial" font-size="17px" font-style="normal" font-weight="normal" text-decoration="normal" x="62.414240341196944" y="218.2342214951307" text-anchor="middle" stroke-miterlimit="2" stroke-width="3" stroke-dasharray="">-2</text><text fill="#000000" stroke="none" font-family="Arial" font-size="17px" font-style="normal" font-weight="normal" text-decoration="normal" x="62.414240341196944" y="218.2342214951307" text-anchor="middle">-2</text></g><g class="dcg-svg-axis-value"><text fill="none" stroke="#ffffff" font-family="Arial" font-size="17px" font-style="normal" font-weight="normal" text-decoration="normal" x="334.1930807080853" y="218.2342214951307" text-anchor="middle" stroke-miterlimit="2" stroke-width="3" stroke-dasharray="">2</text><text fill="#000000" stroke="none" font-family="Arial" font-size="17px" font-style="normal" font-weight="normal" text-decoration="normal" x="334.1930807080853" y="218.2342214951307" text-anchor="middle">2</text></g><g class="dcg-svg-axis-value"><text fill="none" stroke="#ffffff" font-family="Arial" font-size="17px" font-style="normal" font-weight="normal" text-decoration="normal" x="187.16108239964112" y="339.2083584754504" text-anchor="middle" stroke-miterlimit="2" stroke-width="3" stroke-dasharray="">-2</text><text fill="#000000" stroke="none" font-family="Arial" font-size="17px" font-style="normal" font-weight="normal" text-decoration="normal" x="187.16108239964112" y="339.2083584754504" text-anchor="middle">-2</text></g><g class="dcg-svg-axis-value"><text fill="none" stroke="#ffffff" font-family="Arial" font-size="17px" font-style="normal" font-weight="normal" text-decoration="normal" x="189.99164880589112" y="70.26008451481101" text-anchor="middle" stroke-miterlimit="2" stroke-width="3" stroke-dasharray="">2</text><text fill="#000000" stroke="none" font-family="Arial" font-size="17px" font-style="normal" font-weight="normal" text-decoration="normal" x="189.99164880589112" y="70.26008451481101" text-anchor="middle">2</text></g></g></g></g><g id="expressions-d4593bbb"><g id="sketch-d4593bbb"><title>Expression 1</title><path fill="#2d70b3" stroke="none" paint-order="stroke fill markers" d="" fill-opacity="0.4"/><g><path fill="none" stroke="#2d70b3" class="dcg-svg-curve" paint-order="fill stroke markers" d=" M 40.66316533149289 -6.5 L 40.66316533149289 -6.5 L 43.26171875 11.21226756492402 L 46.875 34.46701200120549 L 50.390625 55.821973720831835 L 53.90625 75.95217548529361 L 57.32421875 94.376392326977 L 60.7421875 111.69669885463952 L 64.06249999999997 127.49022027524938 L 67.38281250000003 142.2913067164635 L 70.60546875 155.73098859575785 L 73.828125 168.2808482458718 L 76.95312500000001 179.62162106737617 L 80.07812499999999 190.1668187150908 L 83.10546875 199.64291866566597 L 86.13281249999999 208.40980686007654 L 89.16015625 216.48589478788574 L 92.08984375 223.66107157932348 L 95.01953125 230.22322642919573 L 97.94921874999999 236.18904592802312 L 100.87890624999999 241.5752166663263 L 103.80859375000001 246.39842523462585 L 106.73828125 250.67535822344226 L 109.66796874999999 254.42270222329623 L 112.5 257.5574162929548 L 115.23437499999999 260.1434011823768 L 117.77343749999999 262.1690492875427 L 120.3125 263.84412667346896 L 122.75390625 265.1342856056501 L 125.1953125 266.12002164839856 L 127.53906250000001 266.78889098427766 L 129.8828125 267.1946472345464 L 132.32421875 267.3467350459773 L 134.765625 267.2322538075824 L 137.20703125 266.8608601110982 L 139.74609375 266.2124582265609 L 142.3828125 265.2677037512872 L 145.1171875 264.0087192403496 L 148.046875 262.35953755232583 L 151.07421875 260.3463909510287 L 154.296875 257.87870911506906 L 157.8125 254.83044034598782 L 161.62109375 251.14118813336228 L 165.72265625 246.75908077903256 L 170.21484375 241.52584017458815 L 175.29296875 235.13739496101687 L 181.15234375 227.25225782066624 L 188.0859375 217.38561898043676 L 197.75390625 203.05693851274165 L 213.28125 180.0426629803675 L 220.3125 170.18581900364066 L 226.171875 162.4780887055625 L 231.34765625 156.16658025546198 L 235.9375 151.03706218252339 L 240.0390625 146.87970722952636 L 243.84765625 143.42136733011532 L 247.36328125 140.6052344183895 L 250.58593749999997 138.36635533678074 L 253.61328125 136.58209587218903 L 256.4453125 135.2093247040337 L 259.1796875 134.1702043430481 L 261.81640625 133.4474451617923 L 264.35546875 133.02208061332425 L 266.796875 132.87371753005726 L 269.23828125 132.9906704698087 L 271.58203125 133.36151839564468 L 273.92578125 133.99432461758536 L 276.26953125 134.8976326699772 L 278.61328125 136.0799860871668 L 281.0546875 137.6175432580204 L 283.49609375 139.47681094763337 L 286.03515625 141.7621001584783 L 288.671875 144.52627863538245 L 291.40625 147.82645847121807 L 294.23828125 151.72424640576025 L 297.0703125 156.12509512748414 L 299.90234375 161.04407757180485 L 302.734375 166.4962666741374 L 305.56640625 172.49673536989687 L 308.49609375 179.29712547866268 L 311.42578125 186.71707646565156 L 314.35546875 194.77327492138426 L 317.28515625 203.48240743638112 L 320.3125 213.18551284218398 L 323.33984375 223.62203578693124 L 326.46484375 235.18402744012042 L 329.58984375 247.5673869014038 L 332.8125 261.21942828188713 L 336.03515625 275.78872175361886 L 339.35546875 291.7823397096265 L 342.67578125 308.79751011110045 L 346.09375 327.4058111262266 L 349.51171875 347.1488779016854 L 353.02734375 368.66780144324366 L 356.54296875 391.44412874275815 L 358.74102761343454 406.5" stroke-linecap="round" stroke-linejoin="round" stroke-miterlimit="10" stroke-width="3.5" stroke-dasharray=""/></g></g></g><g id="labels-d4593bbb"/><g id="labels-d4593bbb"/></g></svg>