<svg version="1.1" xmlns="http://www.w3.org/2000/svg" xmlns:xlink="http://www.w3.org/1999/xlink" width="800" height="800"><defs/><g transform="scale(2,2)"><g id="background-5f3c2a41"><rect fill="white" stroke="none" x="0" y="0" width="400" height="400" class="dcg-svg-background"/></g><g id="graphpaper-5f3c2a41"><g id="grid-5f3c2a41"><g><path fill="none" stroke="rgb(0,0,0)" class="dcg-svg-minor-gridline" paint-order="fill stroke markers" d=" M 31.5 0 L 31.5 400" stroke-opacity="0.3" stroke-miterlimit="10" stroke-dasharray=""/><path fill="none" stroke="rgb(0,0,0)" class="dcg-svg-minor-gridline" paint-order="fill stroke markers" d=" M 65.5 0 L 65.5 400" stroke-opacity="0.3" stroke-miterlimit="10" stroke-dasharray=""/><path fill="none" stroke="rgb(0,0,0)" class="dcg-svg-minor-gridline" paint-order="fill stroke markers" d=" M 98.5 0 L 98.5 400" stroke-opacity="0.3" stroke-miterlimit="10" stroke-dasharray=""/><path fill="none" stroke="rgb(0,0,0)" class="dcg-svg-minor-gridline" paint-order="fill stroke markers" d=" M 132.5 0 L 132.5 400" stroke-opacity="0.3" stroke-miterlimit="10" stroke-dasharray=""/><path fill="none" stroke="rgb(0,0,0)" class="dcg-svg-minor-gridline" paint-order="fill stroke markers" d=" M 166.5 0 L 166.5 400" stroke-opacity="0.3" stroke-miterlimit="10" stroke-dasharray=""/><path fill="none" stroke="rgb(0,0,0)" class="dcg-svg-minor-gridline" paint-order="fill stroke markers" d=" M 233.5 0 L 233.5 400" stroke-opacity="0.3" stroke-miterlimit="10" stroke-dasharray=""/><path fill="none" stroke="rgb(0,0,0)" class="dcg-svg-minor-gridline" paint-order="fill stroke markers" d=" M 266.5 0 L 266.5 400" stroke-opacity="0.3" stroke-miterlimit="10" stroke-dasharray=""/><path fill="none" stroke="rgb(0,0,0)" class="dcg-svg-minor-gridline" paint-order="fill stroke markers" d=" M 300.5 0 L 300.5 400" stroke-opacity="0.3" stroke-miterlimit="10" stroke-dasharray=""/><path fill="none" stroke="rgb(0,0,0)" class="dcg-svg-minor-gridline" paint-order="fill stroke markers" d=" M 334.5 0 L 334.5 400" stroke-opacity="0.3" stroke-miterlimit="10" stroke-dasharray=""/><path fill="none" stroke="rgb(0,0,0)" class="dcg-svg-minor-gridline" paint-order="fill stroke markers" d=" M 367.5 0 L 367.5 400" stroke-opacity="0.3" stroke-miterlimit="10" stroke-dasharray=""/><path fill="none" stroke="rgb(0,0,0)" class="dcg-svg-minor-gridline" paint-order="fill stroke markers" d=" M 0 368.5 L 400 368.5" stroke-opacity="0.3" stroke-miterlimit="10" stroke-dasharray=""/><path fill="none" stroke="rgb(0,0,0)" class="dcg-svg-minor-gridline" paint-order="fill stroke markers" d=" M 0 334.5 L 400 334.5" stroke-opacity="0.3" stroke-miterlimit="10" stroke-dasharray=""/><path fill="none" stroke="rgb(0,0,0)" class="dcg-svg-minor-gridline" paint-order="fill stroke markers" d=" M 0 300.5 L 400 300.5" stroke-opacity="0.3" stroke-miterlimit="10" stroke-dasharray=""/><path fill="none" stroke="rgb(0,0,0)" class="dcg-svg-minor-gridline" paint-order="fill stroke markers" d=" M 0 267.5 L 400 267.5" stroke-opacity="0.3" stroke-miterlimit="10" stroke-dasharray=""/><path fill="none" stroke="rgb(0,0,0)" class="dcg-svg-minor-gridline" paint-order="fill stroke markers" d=" M 0 233.5 L 400 233.5" stroke-opacity="0.3" stroke-miterlimit="10" stroke-dasharray=""/><path fill="none" stroke="rgb(0,0,0)" class="dcg-svg-minor-gridline" paint-order="fill stroke markers" d=" M 0 166.5 L 400 166.5" stroke-opacity="0.3" stroke-miterlimit="10" stroke-dasharray=""/><path fill="none" stroke="rgb(0,0,0)" class="dcg-svg-minor-gridline" paint-order="fill stroke markers" d=" M 0 132.5 L 400 132.5" stroke-opacity="0.3" stroke-miterlimit="10" stroke-dasharray=""/><path fill="none" stroke="rgb(0,0,0)" class="dcg-svg-minor-gridline" paint-order="fill stroke markers" d=" M 0 99.5 L 400 99.5" stroke-opacity="0.3" stroke-miterlimit="10" stroke-dasharray=""/><path fill="none" stroke="rgb(0,0,0)" class="dcg-svg-minor-gridline" paint-order="fill stroke markers" d=" M 0 65.5 L 400 65.5" stroke-opacity="0.3" stroke-miterlimit="10" stroke-dasharray=""/><path fill="none" stroke="rgb(0,0,0)" class="dcg-svg-minor-gridline" paint-order="fill stroke markers" d=" M 0 32.5 L 400 32.5" stroke-opacity="0.3" stroke-miterlimit="10" stroke-dasharray=""/><path fill="none" stroke="rgb(0,0,0)" class="dcg-svg-major-gridline" paint-order="fill stroke markers" d=" M 65.5 0 L 65.5 400" stroke-opacity="0.4285714285714285" stroke-miterlimit="10" stroke-dasharray=""/><path fill="none" stroke="rgb(0,0,0)" class="dcg-svg-major-gridline" paint-order="fill stroke markers" d=" M 334.5 0 L 334.5 400" stroke-opacity="0.4285714285714285" stroke-miterlimit="10" stroke-dasharray=""/><path fill="none" stroke="rgb(0,0,0)" class="dcg-svg-major-gridline" paint-order="fill stroke markers" d=" M 0 334.5 L 400 334.5" stroke-opacity="0.4285714285714285" stroke-miterlimit="10" stroke-dasharray=""/><path fill="none" stroke="rgb(0,0,0)" class="dcg-svg-major-gridline" paint-order="fill stroke markers" d=" M 0 65.5 L 400 65.5" stroke-opacity="0.4285714285714285" stroke-miterlimit="10" stroke-dasharray=""/></g></g><g id="axis-5f3c2a41"><g id="yaxis-5f3c2a41"><title>Y axis</title><g><path fill="none" stroke="rgb(0,0,0)" class="dcg-svg-axis-line" paint-order="fill stroke markers" d=" M 200 0 L 200 400" stroke-opacity="0.9" stroke-miterlimit="10" stroke-width="2" stroke-dasharray=""/></g></g><g id="xaxis-5f3c2a41"><title>X axis</title><g><path fill="none" stroke="rgb(0,0,0)" class="dcg-svg-axis-line" paint-order="fill stroke markers" d=" M 0 200 L 400 200" stroke-opacity="0.9" stroke-miterlimit="10" stroke-width="2" stroke-dasharray=""/></g></g><g><g class="dcg-svg-axis-value"><text fill="none" stroke="#ffffff" font-family="Arial" font-size="17px" font-style="normal" font-weight="normal" text-decoration="normal" x="189.99164880589112" y="218.2342214951307" text-anchor="middle" stroke-miterlimit="2" stroke-width="3" stroke-dasharray="">0</text><text fill="#000000" stroke="none" font-family="Arial" font-size="17px" font-style="normal" font-weight="normal" text-decoration="normal" x="189.99164880589112" y="218.2342214951307" text-anchor="middle">0</text></g><g class="dcg-svg-axis-value"><text fill="none" stroke="#ffffff" font-family="Arial" font-size="17px" font-style="normal" font-weight="normal" text-decoration="normal" x="62.414240341196944" y="218.2342214951307" text-anchor="middle" stroke-miterlimit="2" stroke-width="3" stroke-dasharray="">-2</text><text fill="#000000" stroke="none" font-family="Arial" font-size="17px" font-style="normal" font-weight="normal" text-decoration="normal" x="62.414240341196944" y="218.2342214951307" text-anchor="middle">-2</text></g><g class="dcg-svg-axis-value"><text fill="none" stroke="#ffffff" font-family="Arial" font-size="17px" font-style="normal" font-weight="normal" text-decoration="normal" x="334.1930807080853" y="218.2342214951307" text-anchor="middle" stroke-miterlimit="2" stroke-width="3" stroke-dasharray="">2</text><text fill="#000000" stroke="none" font-family="Arial" font-size="17px" font-style="normal" font-weight="normal" text-decoration="normal" x="334.1930807080853" y="218.2342214951307" text-anchor="middle">2</text></g><g class="dcg-svg-axis-value"><text fill="none" stroke="#ffffff" font-family="Arial" font-size="17px" font-style="normal" font-weight="normal" text-decoration="normal" x="187.16108239964112" y="339.2083584754504" text-anchor="middle" stroke-miterlimit="2" stroke-width="3" stroke-dasharray="">-2</text><text fill="#000000" stroke="none" font-family="Arial" font-size="17px" font-style="normal" font-weight="normal" text-decoration="normal" x="187.16108239964112" y="339.2083584754504" text-anchor="middle">-2</text></g><g class="dcg-svg-axis-value"><text fill="none" stroke="#ffffff" font-family="Arial" font-size="17px" font-style="normal" font-weight="normal" text-decoration="normal" x="189.99164880589112" y="70.26008451481101" text-anchor="middle" stroke-miterlimit="2" stroke-width="3" stroke-dasharray="">2</text><text fill="#000000" stroke="none" font-family="Arial" font-size="17px" font-style="normal" font-weight="normal" text-decoration="normal" x="189.99164880589112" y="70.26008451481101" text-anchor="middle">2</text></g></g></g></g><g id="expressions-5f3c2a41"><g id="sketch-5f3c2a41"><title>Expression 2</title><path fill="#2d70b3" stroke="none" paint-order="stroke fill markers" d="" fill-opacity="0.4"/><g><path fill="none" stroke="#2d70b3" class="dcg-svg-curve" paint-order="fill stroke markers" d=" M 49.13570373298256 -6.5 L 49.13570373298256 -6.5 L 49.70703125 113.88706033502137 L 50.1953125 181.9103138036133 L 50.68359375000003 225.9853350914428 L 51.171875 251.93847689780836 L 51.5625 262.83618703441937 L 51.85546875 266.5670343385799 L 52.0782190577458 267.34728998529056 L 52.1484375 267.2754107924129 L 52.34375 266.3701015974879 L 52.63671875 263.34008122583623 L 53.02734375 256.8885360026554 L 53.7109375 241.42212715557608 L 56.34765625 177.21466163743509 L 57.2265625 162.13138423981326 L 58.00781249999997 152.05326898818336 L 58.69140625 145.53201663600052 L 59.375 140.82009913909283 L 60.05859375000003 137.5711350217079 L 60.64453125 135.69588040962822 L 61.23046874999997 134.45671943832798 L 61.9140625 133.59265500069898 L 62.59765625000003 133.14740113772106 L 63.4765625 132.92440236783625 L 65.13671875000003 132.873153632092 L 67.67578125000003 133.00104290731315 L 68.65234375000003 133.32261803952088 L 69.53124999999997 133.90460315759037 L 70.41015624999997 134.86187571012118 L 71.2890625 136.27516833151645 L 72.16796875000001 138.20556714004564 L 73.14453125000001 141.00272877424123 L 74.12109375 144.50341668988193 L 75.1953125 149.14692381054326 L 76.46484375 155.61826450820064 L 77.9296875 164.19727032953108 L 79.8828125 176.9338273663681 L 85.9375 217.30986467704741 L 87.6953125 227.31336246021652 L 89.35546874999999 235.59578616713713 L 90.8203125 241.90922650609926 L 92.28515625000001 247.29707809741254 L 93.65234375000001 251.52985224580692 L 95.01953125 255.0525333157962 L 96.38671874999997 257.93525907416785 L 97.75390625000001 260.25487798986234 L 99.21874999999999 262.2044943864144 L 100.68359375 263.6914295291806 L 102.24609375000001 264.8651453168777 L 103.80859375000001 265.70468930474016 L 105.56640624999999 266.34871887535854 L 107.61718750000001 266.81544549973586 L 110.25390625 267.13101539405955 L 114.0625 267.3000938765758 L 122.65625 267.34700758871656 L 155.56640625 267.2261812251993 L 159.9609375 266.92809709962546 L 163.0859375 266.4644390036876 L 165.625 265.8364168468235 L 167.87109375 265.0208443409707 L 169.921875 264.0049815493171 L 171.875 262.74673711535814 L 173.828125 261.157742911951 L 175.78125 259.19342045241797 L 177.734375 256.8132796527745 L 179.78515625 253.8295666403567 L 181.8359375 250.32139360601917 L 183.88671875 246.27368046654624 L 186.03515625 241.4555666487358 L 188.28125 235.80977320597106 L 190.72265625 229.02554419663485 L 193.45703125 220.74604087100545 L 196.97265625 209.33625668923617 L 206.93359375 176.51782600802383 L 209.765625 168.19862563397436 L 212.20703125 161.69544660244583 L 214.45312499999997 156.33622625210256 L 216.6015625 151.80580756419485 L 218.65234375 148.0353910040448 L 220.703125 144.7986411310443 L 222.75390625 142.07320234908025 L 224.8046875 139.824493134171 L 226.85546875 138.0086352051217 L 228.90625 136.57555928602937 L 230.95703125 135.47207041373457 L 233.10546875 134.6112773339206 L 235.54687499999997 133.92636992638626 L 238.28125 133.43724563599045 L 241.69921875 133.10416704811004 L 246.484375 132.92355881290084 L 256.54296875 132.8734534303309 L 287.6953125 132.9966937792458 L 291.015625 133.28188213180545 L 293.359375 133.73082139564139 L 295.21484375 134.33868501068412 L 296.875 135.16086865125587 L 298.33984375 136.1800822054077 L 299.8046875 137.5522324336368 L 301.171875 139.22563243444847 L 302.63671875 141.52614605995535 L 304.00390625 144.22988937448804 L 305.2734375 147.29148010586178 L 306.54296875 150.94378732505032 L 307.91015625 155.59572726761365 L 309.27734375 161.0387827353655 L 310.7421875 167.77434891824862 L 312.3046875 175.97436848403936 L 314.0625 186.3499661959831 L 316.2109375 200.3396525076847 L 322.16796875 240.0164875303407 L 323.6328125 248.09017882602453 L 324.90234375 254.02144972072392 L 325.9765625 258.1590943698555 L 326.953125 261.1841765451468 L 327.9296875 263.5142558716795 L 328.80859375 265.05161560493275 L 329.78515625 266.20787971725804 L 330.6640625 266.83634054787933 L 331.640625 267.19363254583874 L 332.91015625 267.3362614838463 L 335.9375 267.298833918902 L 336.81640625 267.0832188710814 L 337.5 266.6492270937498 L 338.0859375 265.9569582546979 L 338.671875 264.8278106613242 L 339.2578125 263.0994749696699 L 339.84375 260.5846245241727 L 340.4296875 257.07607549858733 L 341.015625 252.35570422744033 L 341.69921875 245.03086331592462 L 342.3828125 235.46602951290313 L 343.1640625 221.55283601849922 L 344.04296875 202.1760696078897 L 345.5078125 164.38481443644798 L 346.38671875 143.7959099487117 L 346.875 135.9491923005832 L 347.16796875 133.39230054436683 L 347.35966839778644 132.87315300497085 L 347.4609375 133.02943790886076 L 347.65625 134.28300401244053 L 347.8515625 136.95192556443175 L 348.14453125 144.07224550358728 L 348.53515625 160.65011791055082 L 348.92578125 187.37706838343172 L 349.31640625 226.89858821113282 L 349.8046875 299.1316503912517 L 350.29296875 403.7172722045509 L 350.3022751246651 406.5" stroke-linecap="round" stroke-linejoin="round" stroke-miterlimit="10" stroke-width="3.5" stroke-dasharray=""/></g></g></g><g id="labels-5f3c2a41"/><g id="labels-5f3c2a41"/></g></svg>