<svg version="1.1" xmlns="http://www.w3.org/2000/svg" xmlns:xlink="http://www.w3.org/1999/xlink" width="800" height="800"><defs/><g transform="scale(2,2)"><g id="background-a0cf68c4"><rect fill="white" stroke="none" x="0" y="0" width="400" height="400" class="dcg-svg-background"/></g><g id="graphpaper-a0cf68c4"><g id="grid-a0cf68c4"><g><path fill="none" stroke="rgb(0,0,0)" class="dcg-svg-minor-gridline" paint-order="fill stroke markers" d=" M 31.5 0 L 31.5 400" stroke-opacity="0.3" stroke-miterlimit="10" stroke-dasharray=""/><path fill="none" stroke="rgb(0,0,0)" class="dcg-svg-minor-gridline" paint-order="fill stroke markers" d=" M 65.5 0 L 65.5 400" stroke-opacity="0.3" stroke-miterlimit="10" stroke-dasharray=""/><path fill="none" stroke="rgb(0,0,0)" class="dcg-svg-minor-gridline" paint-order="fill stroke markers" d=" M 98.5 0 L 98.5 400" stroke-opacity="0.3" stroke-miterlimit="10" stroke-dasharray=""/><path fill="none" stroke="rgb(0,0,0)" class="dcg-svg-minor-gridline" paint-order="fill stroke markers" d=" M 132.5 0 L 132.5 400" stroke-opacity="0.3" stroke-miterlimit="10" stroke-dasharray=""/><path fill="none" stroke="rgb(0,0,0)" class="dcg-svg-minor-gridline" paint-order="fill stroke markers" d=" M 166.5 0 L 166.5 400" stroke-opacity="0.3" stroke-miterlimit="10" stroke-dasharray=""/><path fill="none" stroke="rgb(0,0,0)" class="dcg-svg-minor-gridline" paint-order="fill stroke markers" d=" M 233.5 0 L 233.5 400" stroke-opacity="0.3" stroke-miterlimit="10" stroke-dasharray=""/><path fill="none" stroke="rgb(0,0,0)" class="dcg-svg-minor-gridline" paint-order="fill stroke markers" d=" M 266.5 0 L 266.5 400" stroke-opacity="0.3" stroke-miterlimit="10" stroke-dasharray=""/><path fill="none" stroke="rgb(0,0,0)" class="dcg-svg-minor-gridline" paint-order="fill stroke markers" d=" M 300.5 0 L 300.5 400" stroke-opacity="0.3" stroke-miterlimit="10" stroke-dasharray=""/><path fill="none" stroke="rgb(0,0,0)" class="dcg-svg-minor-gridline" paint-order="fill stroke markers" d=" M 334.5 0 L 334.5 400" stroke-opacity="0.3" stroke-miterlimit="10" stroke-dasharray=""/><path fill="none" stroke="rgb(0,0,0)" class="dcg-svg-minor-gridline" paint-order="fill stroke markers" d=" M 367.5 0 L 367.5 400" stroke-opacity="0.3" stroke-miterlimit="10" stroke-dasharray=""/><path fill="none" stroke="rgb(0,0,0)" class="dcg-svg-minor-gridline" paint-order="fill stroke markers" d=" M 0 368.5 L 400 368.5" stroke-opacity="0.3" stroke-miterlimit="10" stroke-dasharray=""/><path fill="none" stroke="rgb(0,0,0)" class="dcg-svg-minor-gridline" paint-order="fill stroke markers" d=" M 0 334.5 L 400 334.5" stroke-opacity="0.3" stroke-miterlimit="10" stroke-dasharray=""/><path fill="none" stroke="rgb(0,0,0)" class="dcg-svg-minor-gridline" paint-order="fill stroke markers" d=" M 0 300.5 L 400 300.5" stroke-opacity="0.3" stroke-miterlimit="10" stroke-dasharray=""/><path fill="none" stroke="rgb(0,0,0)" class="dcg-svg-minor-gridline" paint-order="fill stroke markers" d=" M 0 267.5 L 400 267.5" stroke-opacity="0.3" stroke-miterlimit="10" stroke-dasharray=""/><path fill="none" stroke="rgb(0,0,0)" class="dcg-svg-minor-gridline" paint-order="fill stroke markers" d=" M 0 233.5 L 400 233.5" stroke-opacity="0.3" stroke-miterlimit="10" stroke-dasharray=""/><path fill="none" stroke="rgb(0,0,0)" class="dcg-svg-minor-gridline" paint-order="fill stroke markers" d=" M 0 166.5 L 400 166.5" stroke-opacity="0.3" stroke-miterlimit="10" stroke-dasharray=""/><path fill="none" stroke="rgb(0,0,0)" class="dcg-svg-minor-gridline" paint-order="fill stroke markers" d=" M 0 132.5 L 400 132.5" stroke-opacity="0.3" stroke-miterlimit="10" stroke-dasharray=""/><path fill="none" stroke="rgb(0,0,0)" class="dcg-svg-minor-gridline" paint-order="fill stroke markers" d=" M 0 99.5 L 400 99.5" stroke-opacity="0.3" stroke-miterlimit="10" stroke-dasharray=""/><path fill="none" stroke="rgb(0,0,0)" class="dcg-svg-minor-gridline" paint-order="fill stroke markers" d=" M 0 65.5 L 400 65.5" stroke-opacity="0.3" stroke-miterlimit="10" stroke-dasharray=""/><path fill="none" stroke="rgb(0,0,0)" class="dcg-svg-minor-gridline" paint-order="fill stroke markers" d=" M 0 32.5 L 400 32.5" stroke-opacity="0.3" stroke-miterlimit="10" stroke-dasharray=""/><path fill="none" stroke="rgb(0,0,0)" class="dcg-svg-major-gridline" paint-order="fill stroke markers" d=" M 65.5 0 L 65.5 400" stroke-opacity="0.4285714285714285" stroke-miterlimit="10" stroke-dasharray=""/><path fill="none" stroke="rgb(0,0,0)" class="dcg-svg-major-gridline" paint-order="fill stroke markers" d=" M 334.5 0 L 334.5 400" stroke-opacity="0.4285714285714285" stroke-miterlimit="10" stroke-dasharray=""/><path fill="none" stroke="rgb(0,0,0)" class="dcg-svg-major-gridline" paint-order="fill stroke markers" d=" M 0 334.5 L 400 334.5" stroke-opacity="0.4285714285714285" stroke-miterlimit="10" stroke-dasharray=""/><path fill="none" stroke="rgb(0,0,0)" class="dcg-svg-major-gridline" paint-order="fill stroke markers" d=" M 0 65.5 L 400 65.5" stroke-opacity="0.4285714285714285" stroke-miterlimit="10" stroke-dasharray=""/></g></g><g id="axis-a0cf68c4"><g id="yaxis-a0cf68c4"><title>Y axis</title><g><path fill="none" stroke="rgb(0,0,0)" class="dcg-svg-axis-line" paint-order="fill stroke markers" d=" M 200 0 L 200 400" stroke-opacity="0.9" stroke-miterlimit="10" stroke-width="2" stroke-dasharray=""/></g></g><g id="xaxis-a0cf68c4"><title>X axis</title><g><path fill="none" stroke="rgb(0,0,0)" class="dcg-svg-axis-line" paint-order="fill stroke markers" d=" M 0 200 L 400 200" stroke-opacity="0.9" stroke-miterlimit="10" stroke-width="2" stroke-dasharray=""/></g></g><g><g class="dcg-svg-axis-value"><text fill="none" stroke="#ffffff" font-family="Arial" font-size="17px" font-style="normal" font-weight="normal" text-decoration="normal" x="189.99164880589112" y="218.2342214951307" text-anchor="middle" stroke-miterlimit="2" stroke-width="3" stroke-dasharray="">0</text><text fill="#000000" stroke="none" font-family="Arial" font-size="17px" font-style="normal" font-weight="normal" text-decoration="normal" x="189.99164880589112" y="218.2342214951307" text-anchor="middle">0</text></g><g class="dcg-svg-axis-value"><text fill="none" stroke="#ffffff" font-family="Arial" font-size="17px" font-style="normal" font-weight="normal" text-decoration="normal" x="62.414240341196944" y="218.2342214951307" text-anchor="middle" stroke-miterlimit="2" stroke-width="3" stroke-dasharray="">-2</text><text fill="#000000" stroke="none" font-family="Arial" font-size="17px" font-style="normal" font-weight="normal" text-decoration="normal" x="62.414240341196944" y="218.2342214951307" text-anchor="middle">-2</text></g><g class="dcg-svg-axis-value"><text fill="none" stroke="#ffffff" font-family="Arial" font-size="17px" font-style="normal" font-weight="normal" text-decoration="normal" x="334.1930807080853" y="218.2342214951307" text-anchor="middle" stroke-miterlimit="2" stroke-width="3" stroke-dasharray="">2</text><text fill="#000000" stroke="none" font-family="Arial" font-size="17px" font-style="normal" font-weight="normal" text-decoration="normal" x="334.1930807080853" y="218.2342214951307" text-anchor="middle">2</text></g><g class="dcg-svg-axis-value"><text fill="none" stroke="#ffffff" font-family="Arial" font-size="17px" font-style="normal" font-weight="normal" text-decoration="normal" x="187.16108239964112" y="339.2083584754504" text-anchor="middle" stroke-miterlimit="2" stroke-width="3" stroke-dasharray="">-2</text><text fill="#000000" stroke="none" font-family="Arial" font-size="17px" font-style="normal" font-weight="normal" text-decoration="normal" x="187.16108239964112" y="339.2083584754504" text-anchor="middle">-2</text></g><g class="dcg-svg-axis-value"><text fill="none" stroke="#ffffff" font-family="Arial" font-size="17px" font-style="normal" font-weight="normal" text-decoration="normal" x="189.99164880589112" y="70.26008451481101" text-anchor="middle" stroke-miterlimit="2" stroke-width="3" stroke-dasharray="">2</text><text fill="#000000" stroke="none" font-family="Arial" font-size="17px" font-style="normal" font-weight="normal" text-decoration="normal" x="189.99164880589112" y="70.26008451481101" text-anchor="middle">2</text></g></g></g></g><g id="expressions-a0cf68c4"><g id="sketch-a0cf68c4"><title>Expression 2</title><path fill="#2d70b3" stroke="none" paint-order="stroke fill markers" d="" fill-opacity="0.4"/><g><path fill="none" stroke="#2d70b3" class="dcg-svg-curve" paint-order="fill stroke markers" d=" M 49.41508654339474 -6.5 L 49.41508654339474 -6.5 L 49.447783789649066 267.34728998529056 L 49.70703125 134.52494019304856 L 49.824978582175305 132.87315300497085 L 49.90234375 133.04480487966663 L 50 136.03234220050484 L 50.1953125 162.24993198603516 L 50.68359375000003 249.89982687001068 L 50.87890625 261.9894038725423 L 51.07421875 266.11335768526396 L 51.26953125 267.14908194231145 L 51.5625 267.3429049208077 L 52.9296875 267.2912284301856 L 53.125 267.11949702626055 L 53.3203125 266.6567710475303 L 53.515625 265.6498936693345 L 53.80859375 262.42858179477264 L 54.1015625 256.2580457504769 L 54.4921875 242.586009982897 L 55.078125 212.93004594377794 L 55.95703125 168.3298448514385 L 56.4453125 151.83152113924226 L 56.93359375 141.88808002450648 L 57.32421875 137.45846062519735 L 57.71484375 135.0461559023217 L 58.10546875 133.8329372008684 L 58.49609375 133.2678850437393 L 58.98437499999997 132.99031268936056 L 59.86328125 132.88271473741565 L 65.234375 132.87315300497085 L 73.828125 132.99331350383028 L 74.8046875 133.28596417177647 L 75.48828124999999 133.74716377832004 L 76.171875 134.5788119359978 L 76.75781249999999 135.72725178694793 L 77.34375 137.4209161352101 L 77.9296875 139.80136004520824 L 78.61328125 143.62065794637775 L 79.296875 148.71157626016432 L 80.07812499999999 156.174412699891 L 80.95703124999999 166.5643256864057 L 82.12890625 182.96259183861042 L 85.25390625 228.21225947308656 L 86.328125 240.25540324120496 L 87.20703125 248.0684238963589 L 88.08593749999999 254.09741456470107 L 88.8671875 258.1217280378596 L 89.64843749999999 261.09126831624593 L 90.4296875 263.2133806568496 L 91.21093749999999 264.6840715093886 L 92.08984375 265.77085668920733 L 93.06640625 266.4982673410034 L 94.14062499999999 266.93565593326935 L 95.5078125 267.1937145583177 L 97.8515625 267.323315303532 L 105.76171875000001 267.3472813005475 L 177.83203125 267.2199879397524 L 180.37109375 266.93734522003405 L 182.12890625 266.49278970941884 L 183.49609375 265.8951046799542 L 184.765625 265.04429760001557 L 185.9375 263.91345389995325 L 187.109375 262.3521664111566 L 188.28125 260.2550564806597 L 189.35546875 257.7699539448429 L 190.4296875 254.6659379604019 L 191.50390625 250.8770660283619 L 192.67578125 245.90944350668136 L 193.9453125 239.52306020144547 L 195.3125 231.52151910234386 L 196.87499999999997 221.13656489161517 L 199.0234375 205.38319499297796 L 202.9296875 176.543256326229 L 204.58984375 165.85654811783417 L 205.95703125 158.24053803299964 L 207.2265625 152.2357949891674 L 208.3984375 147.61765799212702 L 209.5703125 143.84862898403028 L 210.64453125 141.07765210618163 L 211.71875 138.88574624858018 L 212.890625 137.0591387357786 L 214.16015625 135.6238139257666 L 215.4296875 134.6285118437034 L 216.796875 133.91974638742664 L 218.359375 133.4280845442778 L 220.3125 133.10792854635952 L 223.14453125 132.9318693109409 L 229.39453125 132.87460515371714 L 302.734375 132.93428900867823 L 304.78515625 133.1600885469091 L 306.0546875 133.56216953072737 L 307.03125 134.16821572512512 L 307.8125 134.96103896539262 L 308.59375 136.15727076396732 L 309.375 137.91079989753615 L 310.05859375 140.04606278045432 L 310.7421875 142.88453801638323 L 311.42578125 146.5651806524324 L 312.20703125 151.96572853863412 L 312.98828125 158.77472452892863 L 313.8671875 168.1804508500271 L 314.94140625 181.99383024997786 L 316.50390625 205.0895899935339 L 318.359375 232.07276892085986 L 319.43359375 244.82578319021275 L 320.3125 252.91120473270723 L 321.09375 258.248051326045 L 321.77734375 261.60661635849715 L 322.4609375 263.9312112712663 L 323.14453125 265.44145350431796 L 323.828125 266.35739605344463 L 324.609375 266.9229170210972 L 325.48828125 267.20557341190806 L 326.85546875 267.32953689973374 L 332.03125 267.3472899847882 L 340.4296875 267.2372111562018 L 340.91796875 266.9742583560366 L 341.30859375 266.43625930254643 L 341.6015625 265.6491353872387 L 341.89453125 264.30503259161526 L 342.1875 262.1085540294192 L 342.578125 257.1857438730108 L 342.96875 249.01520118958456 L 343.359375 236.66113955185062 L 343.84765625 214.98834132414973 L 345.21484375 147.54330462240506 L 345.60546875 138.17179591685283 L 345.8984375 134.74548017926253 L 346.19140625 133.34020728273885 L 346.484375 132.94099808358737 L 346.97265625 132.87333111773737 L 348.046875 132.92289762957006 L 348.2421875 133.28899285203224 L 348.33984375 133.88173353798032 L 348.53515625 137.42621217957338 L 348.73046875 148.19615041531227 L 348.92578125 172.54642122850137 L 349.51171875 266.88509583426924 L 349.6129088733579 267.34728998529056 L 349.70703125 266.7143252696796 L 349.8046875 254.1267891394541 L 349.99010366588317 132.87315300497085 L 350.0397131137322 406.5" stroke-linecap="round" stroke-linejoin="round" stroke-miterlimit="10" stroke-width="3.5" stroke-dasharray=""/></g></g></g><g id="labels-a0cf68c4"/><g id="labels-a0cf68c4"/></g></svg>