<svg version="1.1" xmlns="http://www.w3.org/2000/svg" xmlns:xlink="http://www.w3.org/1999/xlink" width="800" height="800"><defs/><g transform="scale(2,2)"><g id="background-e09a4039"><rect fill="white" stroke="none" x="0" y="0" width="400" height="400" class="dcg-svg-background"/></g><g id="graphpaper-e09a4039"><g id="grid-e09a4039"><g><path fill="none" stroke="rgb(0,0,0)" class="dcg-svg-minor-gridline" paint-order="fill stroke markers" d=" M 33.5 0 L 33.5 400" stroke-opacity="0.3" stroke-miterlimit="10" stroke-dasharray=""/><path fill="none" stroke="rgb(0,0,0)" class="dcg-svg-minor-gridline" paint-order="fill stroke markers" d=" M 66.5 0 L 66.5 400" stroke-opacity="0.3" stroke-miterlimit="10" stroke-dasharray=""/><path fill="none" stroke="rgb(0,0,0)" class="dcg-svg-minor-gridline" paint-order="fill stroke markers" d=" M 100.5 0 L 100.5 400" stroke-opacity="0.3" stroke-miterlimit="10" stroke-dasharray=""/><path fill="none" stroke="rgb(0,0,0)" class="dcg-svg-minor-gridline" paint-order="fill stroke markers" d=" M 133.5 0 L 133.5 400" stroke-opacity="0.3" stroke-miterlimit="10" stroke-dasharray=""/><path fill="none" stroke="rgb(0,0,0)" class="dcg-svg-minor-gridline" paint-order="fill stroke markers" d=" M 166.5 0 L 166.5 400" stroke-opacity="0.3" stroke-miterlimit="10" stroke-dasharray=""/><path fill="none" stroke="rgb(0,0,0)" class="dcg-svg-minor-gridline" paint-order="fill stroke markers" d=" M 233.5 0 L 233.5 400" stroke-opacity="0.3" stroke-miterlimit="10" stroke-dasharray=""/><path fill="none" stroke="rgb(0,0,0)" class="dcg-svg-minor-gridline" paint-order="fill stroke markers" d=" M 266.5 0 L 266.5 400" stroke-opacity="0.3" stroke-miterlimit="10" stroke-dasharray=""/><path fill="none" stroke="rgb(0,0,0)" class="dcg-svg-minor-gridline" paint-order="fill stroke markers" d=" M 300.5 0 L 300.5 400" stroke-opacity="0.3" stroke-miterlimit="10" stroke-dasharray=""/><path fill="none" stroke="rgb(0,0,0)" class="dcg-svg-minor-gridline" paint-order="fill stroke markers" d=" M 333.5 0 L 333.5 400" stroke-opacity="0.3" stroke-miterlimit="10" stroke-dasharray=""/><path fill="none" stroke="rgb(0,0,0)" class="dcg-svg-minor-gridline" paint-order="fill stroke markers" d=" M 366.5 0 L 366.5 400" stroke-opacity="0.3" stroke-miterlimit="10" stroke-dasharray=""/><path fill="none" stroke="rgb(0,0,0)" class="dcg-svg-minor-gridline" paint-order="fill stroke markers" d=" M 0 366.5 L 400 366.5" stroke-opacity="0.3" stroke-miterlimit="10" stroke-dasharray=""/><path fill="none" stroke="rgb(0,0,0)" class="dcg-svg-minor-gridline" paint-order="fill stroke markers" d=" M 0 333.5 L 400 333.5" stroke-opacity="0.3" stroke-miterlimit="10" stroke-dasharray=""/><path fill="none" stroke="rgb(0,0,0)" class="dcg-svg-minor-gridline" paint-order="fill stroke markers" d=" M 0 300.5 L 400 300.5" stroke-opacity="0.3" stroke-miterlimit="10" stroke-dasharray=""/><path fill="none" stroke="rgb(0,0,0)" class="dcg-svg-minor-gridline" paint-order="fill stroke markers" d=" M 0 266.5 L 400 266.5" stroke-opacity="0.3" stroke-miterlimit="10" stroke-dasharray=""/><path fill="none" stroke="rgb(0,0,0)" class="dcg-svg-minor-gridline" paint-order="fill stroke markers" d=" M 0 233.5 L 400 233.5" stroke-opacity="0.3" stroke-miterlimit="10" stroke-dasharray=""/><path fill="none" stroke="rgb(0,0,0)" class="dcg-svg-minor-gridline" paint-order="fill stroke markers" d=" M 0 166.5 L 400 166.5" stroke-opacity="0.3" stroke-miterlimit="10" stroke-dasharray=""/><path fill="none" stroke="rgb(0,0,0)" class="dcg-svg-minor-gridline" paint-order="fill stroke markers" d=" M 0 133.5 L 400 133.5" stroke-opacity="0.3" stroke-miterlimit="10" stroke-dasharray=""/><path fill="none" stroke="rgb(0,0,0)" class="dcg-svg-minor-gridline" paint-order="fill stroke markers" d=" M 0 100.5 L 400 100.5" stroke-opacity="0.3" stroke-miterlimit="10" stroke-dasharray=""/><path fill="none" stroke="rgb(0,0,0)" class="dcg-svg-minor-gridline" paint-order="fill stroke markers" d=" M 0 66.5 L 400 66.5" stroke-opacity="0.3" stroke-miterlimit="10" stroke-dasharray=""/><path fill="none" stroke="rgb(0,0,0)" class="dcg-svg-minor-gridline" paint-order="fill stroke markers" d=" M 0 33.5 L 400 33.5" stroke-opacity="0.3" stroke-miterlimit="10" stroke-dasharray=""/><path fill="none" stroke="rgb(0,0,0)" class="dcg-svg-major-gridline" paint-order="fill stroke markers" d=" M 66.5 0 L 66.5 400" stroke-opacity="0.4285714285714285" stroke-miterlimit="10" stroke-dasharray=""/><path fill="none" stroke="rgb(0,0,0)" class="dcg-svg-major-gridline" paint-order="fill stroke markers" d=" M 333.5 0 L 333.5 400" stroke-opacity="0.4285714285714285" stroke-miterlimit="10" stroke-dasharray=""/><path fill="none" stroke="rgb(0,0,0)" class="dcg-svg-major-gridline" paint-order="fill stroke markers" d=" M 0 333.5 L 400 333.5" stroke-opacity="0.4285714285714285" stroke-miterlimit="10" stroke-dasharray=""/><path fill="none" stroke="rgb(0,0,0)" class="dcg-svg-major-gridline" paint-order="fill stroke markers" d=" M 0 66.5 L 400 66.5" stroke-opacity="0.4285714285714285" stroke-miterlimit="10" stroke-dasharray=""/></g></g><g id="axis-e09a4039"><g id="yaxis-e09a4039"><title>Y axis</title><g><path fill="none" stroke="rgb(0,0,0)" class="dcg-svg-axis-line" paint-order="fill stroke markers" d=" M 200 0 L 200 400" stroke-opacity="0.9" stroke-miterlimit="10" stroke-width="2" stroke-dasharray=""/></g></g><g id="xaxis-e09a4039"><title>X axis</title><g><path fill="none" stroke="rgb(0,0,0)" class="dcg-svg-axis-line" paint-order="fill stroke markers" d=" M 0 200 L 400 200" stroke-opacity="0.9" stroke-miterlimit="10" stroke-width="2" stroke-dasharray=""/></g></g><g><g class="dcg-svg-axis-value"><text fill="none" stroke="#ffffff" font-family="Arial" font-size="17px" font-style="normal" font-weight="normal" text-decoration="normal" x="190.272705078125" y="218.124" text-anchor="middle" stroke-miterlimit="2" stroke-width="3" stroke-dasharray="">0</text><text fill="#000000" stroke="none" font-family="Arial" font-size="17px" font-style="normal" font-weight="normal" text-decoration="normal" x="190.272705078125" y="218.124" text-anchor="middle">0</text></g><g class="dcg-svg-axis-value"><text fill="none" stroke="#ffffff" font-family="Arial" font-size="17px" font-style="normal" font-weight="normal" text-decoration="normal" x="63.83610026041666" y="218.124" text-anchor="middle" stroke-miterlimit="2" stroke-width="3" stroke-dasharray="">-2</text><text fill="#000000" stroke="none" font-family="Arial" font-size="17px" font-style="normal" font-weight="normal" text-decoration="normal" x="63.83610026041666" y="218.124" text-anchor="middle">-2</text></g><g class="dcg-svg-axis-value"><text fill="none" stroke="#ffffff" font-family="Arial" font-size="17px" font-style="normal" font-weight="normal" text-decoration="normal" x="333.33333333333337" y="218.124" text-anchor="middle" stroke-miterlimit="2" stroke-width="3" stroke-dasharray="">2</text><text fill="#000000" stroke="none" font-family="Arial" font-size="17px" font-style="normal" font-weight="normal" text-decoration="normal" x="333.33333333333337" y="218.124" text-anchor="middle">2</text></g><g class="dcg-svg-axis-value"><text fill="none" stroke="#ffffff" font-family="Arial" font-size="17px" font-style="normal" font-weight="normal" text-decoration="normal" x="187.442138671875" y="337.9573333333334" text-anchor="middle" stroke-miterlimit="2" stroke-width="3" stroke-dasharray="">-2</text><text fill="#000000" stroke="none" font-family="Arial" font-size="17px" font-style="normal" font-weight="normal" text-decoration="normal" x="187.442138671875" y="337.9573333333334" text-anchor="middle">-2</text></g><g class="dcg-svg-axis-value"><text fill="none" stroke="#ffffff" font-family="Arial" font-size="17px" font-style="normal" font-weight="normal" text-decoration="normal" x="190.272705078125" y="71.29066666666665" text-anchor="middle" stroke-miterlimit="2" stroke-width="3" stroke-dasharray="">2</text><text fill="#000000" stroke="none" font-family="Arial" font-size="17px" font-style="normal" font-weight="normal" text-decoration="normal" x="190.272705078125" y="71.29066666666665" text-anchor="middle">2</text></g></g></g></g><g id="expressions-e09a4039"><g id="sketch-e09a4039"><title>Expression 1</title><path fill="#2d70b3" stroke="none" paint-order="stroke fill markers" d="" fill-opacity="0.4"/><g><path fill="none" stroke="#2d70b3" class="dcg-svg-curve" paint-order="fill stroke markers" d=" M 119.00038101766374 406.5 L 119.00038101766374 406.5 L 120.3125 379.83366518701587 L 121.875 352.0670561149018 L 123.33984375 329.3811569110152 L 124.8046875 309.68172894493375 L 126.171875 293.78277632959475 L 127.5390625 280.0979380004316 L 128.80859375 269.21991615748647 L 130.078125 259.96549531722576 L 131.34765625 252.20575218050232 L 132.51953125 246.2626328389519 L 133.69140625 241.39462815430613 L 134.765625 237.80035734607725 L 135.83984375 234.96825703709803 L 136.81640625 233.00151780947556 L 137.79296875 231.5662602116822 L 138.76953125 230.61829773270838 L 139.6484375 230.14660366067494 L 140.4296875 230.00561211851112 L 141.2109375 230.1054300578307 L 142.08984375 230.48120406679627 L 143.06640625 231.19443744856557 L 144.23828125 232.41303559963677 L 145.703125 234.40895029265107 L 147.4609375 237.35704008876246 L 149.609375 241.54526301412113 L 152.9296875 248.67522927253788 L 157.32421875 258.02613678068633 L 159.765625 262.6335754663329 L 161.81640625 265.97023199510073 L 163.671875 268.4767192796547 L 165.33203125 270.2537457843245 L 166.796875 271.42656664482104 L 168.1640625 272.16888580633145 L 169.43359375 272.5425809451852 L 170.60546875 272.61131533583074 L 171.77734375 272.41086544602445 L 172.94921875 271.93900442058754 L 174.21875 271.1208299854917 L 175.5859375 269.88407483133653 L 177.05078125 268.15430810479376 L 178.7109375 265.6981743592121 L 180.37109375 262.731612696469 L 182.12890625 259.0582840931753 L 184.08203125 254.37206236493068 L 186.1328125 248.81950769750398 L 188.37890625 242.07240110064382 L 190.91796875 233.72569723908464 L 193.9453125 222.98197422116644 L 197.94921875 207.905010009286 L 206.8359375 174.17683090013642 L 209.9609375 163.30729039222336 L 212.5 155.21018207073212 L 214.84375 148.45954541571302 L 216.89453125 143.20801680109176 L 218.84765625 138.83504947958502 L 220.60546875 135.46266124586128 L 222.36328125 132.65311907780153 L 224.0234375 130.53653210026704 L 225.48828125 129.11323479247704 L 226.85546875 128.16609412525997 L 228.125 127.6180707354797 L 229.296875 127.39506605962107 L 230.46875 127.4414932373503 L 231.640625 127.75361814103466 L 232.91015625 128.38523242850516 L 234.27734375 129.39629698454766 L 235.7421875 130.84369010736992 L 237.40234375 132.91089670617635 L 239.35546875 135.86938589973028 L 241.50390625 139.68732289348304 L 244.04296875 144.78248220767085 L 248.4375 154.310523658296 L 251.5625 160.8035942385868 L 253.61328125 164.50772031790825 L 255.2734375 166.9754062134844 L 256.73828125 168.62856170096737 L 257.91015625 169.51879593320373 L 258.88671875 169.91954065715848 L 259.765625 169.9824954547636 L 260.546875 169.7781638703131 L 261.328125 169.30760983640124 L 262.20703125 168.4337397883178 L 263.18359375 166.99848219052444 L 264.16015625 165.03174296290197 L 265.13671875 162.48762827359366 L 266.11328125 159.31851058162903 L 267.1875 155.0516053434876 L 268.26171875 149.9004161072871 L 269.43359375 143.18904117168267 L 270.60546875 135.24517279116117 L 271.875 125.1328731450485 L 273.14453125 113.32528275913192 L 274.4140625 99.68498499359127 L 275.78125 82.78161704372165 L 277.1484375 63.4006017462564 L 278.61328125 39.66522896288666 L 280.078125 12.61397903904205 L 280.9923270196998 -6.5" stroke-linecap="round" stroke-linejoin="round" stroke-miterlimit="10" stroke-width="3.5" stroke-dasharray=""/></g></g><g id="sketch-e09a4039"><title>Expression 2</title><path fill="#348543" stroke="none" paint-order="stroke fill markers" d="" fill-opacity="0.4"/><g><path fill="none" stroke="#348543" class="dcg-svg-curve" paint-order="fill stroke markers" d=" M 112.8850498862983 406.5 L 112.8850498862983 406.5 L 114.2578125 380.7843556046056 L 115.8203125 355.0536286331377 L 117.3828125 332.5002345741642 L 118.84765625 314.02943547149096 L 120.3125 297.9522617028408 L 121.77734375 284.08756223956533 L 123.14453125 272.99005360349014 L 124.51171875 263.53321565450335 L 125.78125 256.107378690986 L 127.05078125 249.88445981745417 L 128.22265625 245.1249979608667 L 129.39453125 241.2364476706161 L 130.46875 238.37750896472 L 131.54296875 236.1402490602335 L 132.6171875 234.4749687565844 L 133.69140625 233.33384163764154 L 134.66796875 232.71256875630365 L 135.546875 232.46378221736387 L 136.42578125 232.4847405816973 L 137.40234375 232.7969336592283 L 138.4765625 233.45715882390786 L 139.6484375 234.5125365378419 L 141.11328125 236.25372940179517 L 142.87109375 238.84782485508163 L 145.01953125 242.57399487868895 L 147.94921875 248.24775492254128 L 154.39453125 260.87623764118484 L 156.93359375 265.189313837582 L 159.08203125 268.31478334526855 L 161.03515625 270.65551643580244 L 162.79296875 272.3056846318607 L 164.35546875 273.38127796019654 L 165.72265625 274.00503796451613 L 166.9921875 274.3100864892342 L 168.26171875 274.345172428257 L 169.53125 274.1062818676143 L 170.80078125 273.5910946686704 L 172.16796875 272.7265217061726 L 173.6328125 271.44508638101684 L 175.1953125 269.6777726587869 L 176.953125 267.20528762631926 L 178.80859375 264.05627469972234 L 180.76171875 260.1694942525544 L 182.8125 255.4939938524342 L 184.9609375 249.99281914042533 L 187.3046875 243.3584317556813 L 189.94140625 235.21200659925847 L 193.06640625 224.80342885510007 L 197.0703125 210.64904393647745 L 208.0078125 171.5399958458274 L 211.1328125 161.3897534133309 L 213.76953125 153.52392193677133 L 216.2109375 146.93343083098904 L 218.359375 141.76221331227077 L 220.41015625 137.429758232067 L 222.36328125 133.8915724287558 L 224.21875 131.09005289212928 L 225.9765625 128.95823377246677 L 227.5390625 127.50046309844029 L 229.00390625 126.5127538444978 L 230.37109375 125.92351993197089 L 231.640625 125.66343701731219 L 232.91015625 125.67756834509422 L 234.1796875 125.96203269711846 L 235.44921875 126.51119254045493 L 236.81640625 127.39001580337177 L 238.37890625 128.74442492986608 L 240.0390625 130.56895608212758 L 241.9921875 133.18088484202613 L 244.140625 136.56250364035992 L 246.6796875 141.10894392931516 L 250.1953125 148.01764326838503 L 255.17578125 157.7843311625549 L 257.421875 161.61724822573206 L 259.27734375 164.25200478767937 L 260.83984375 165.96678585088733 L 262.109375 166.9419252473799 L 263.18359375 167.42529916468365 L 264.08792067721197 167.5589519983248 L 264.94140625 167.43278379736452 L 265.8203125 167.0240831481437 L 266.69921875 166.30890753351306 L 267.67578125 165.12482451896068 L 268.75 163.30837115528993 L 269.82421875 160.90657083047955 L 270.8984375 157.8692084842567 L 271.97265625 154.14415886965068 L 273.14453125 149.23258224169106 L 274.31640625 143.3653571120317 L 275.48828125 136.46678434549665 L 276.7578125 127.73827598003399 L 278.02734375 117.60331432117816 L 279.39453125 104.9920128474973 L 280.76171875 90.48423939549981 L 282.2265625 72.66988412472604 L 283.69140625 52.32418839746319 L 285.15625 29.252607129246627 L 286.71875 1.4101210871286014 L 287.1119882184416 -6.5" stroke-linecap="round" stroke-linejoin="round" stroke-miterlimit="10" stroke-width="3.5" stroke-dasharray=""/></g></g><g id="sketch-e09a4039"><title>Expression 3</title><path fill="#6042a6" stroke="none" paint-order="stroke fill markers" d="" fill-opacity="0.4"/><g><path fill="none" stroke="#6042a6" class="dcg-svg-curve" paint-order="fill stroke markers" d=" M 111.20277313401225 406.5 L 111.20277313401225 406.5 L 112.109375 389.11581928827286 L 113.671875 362.6921098709443 L 115.234375 339.450324071297 L 116.796875 319.1572200188285 L 118.26171875 302.6114463640177 L 119.7265625 288.2839557879904 L 121.09375 276.7633479473984 L 122.4609375 266.8950516323835 L 123.73046875 259.09998989752245 L 125 252.52228379249573 L 126.171875 247.44972379232593 L 127.34375 243.26323575211842 L 128.515625 239.89437449576846 L 129.58984375 237.46824060132246 L 130.6640625 235.6249793578987 L 131.73828125 234.31756418136789 L 132.71484375 233.55587048937235 L 133.59375 233.18987012090258 L 134.47265625 233.10262017090162 L 135.3515625 233.2717957979328 L 136.328125 233.73429240531553 L 137.40234375 234.54390342525613 L 138.671875 235.85881347099064 L 140.234375 237.92945242646033 L 142.08984375 240.90680705857048 L 144.43359375 245.24360102074314 L 148.046875 252.58261867896644 L 152.734375 262.01445805955325 L 155.37109375 266.7427339390766 L 157.6171875 270.2310605101707 L 159.66796875 272.8849054895156 L 161.42578125 274.70319894409295 L 162.98828125 275.9362336610724 L 164.453125 276.74660977496853 L 165.8203125 277.1898521992821 L 167.08308350820573 277.32377627496476 L 168.359375 277.18576147123906 L 169.62890625 276.773041082204 L 170.8984375 276.084398661642 L 172.265625 275.03457319580986 L 173.73046875 273.55761981904067 L 175.390625 271.449792673641 L 177.1484375 268.72732310866627 L 179.00390625 265.32506682349543 L 180.95703125 261.18493337564286 L 183.0078125 256.2591220416982 L 185.25390625 250.23922866991683 L 187.6953125 243.03432453267683 L 190.4296875 234.26650966008899 L 193.75 222.84013626049273 L 198.14453125 206.87459807521014 L 207.12890625 174.06647925521884 L 210.44921875 162.84325435513335 L 213.28125 154.0068656888062 L 215.8203125 146.80418022450192 L 218.06640625 141.089427905378 L 220.1171875 136.46898729812332 L 222.0703125 132.64035366937628 L 223.92578125 129.54980521315017 L 225.68359375 127.13412086811891 L 227.34375 125.32382254366307 L 228.90625 124.04603767418666 L 230.2734375 123.27013001418943 L 231.54296875 122.83620836555998 L 232.8125 122.67714422137601 L 234.08203125 122.79028197225476 L 235.3515625 123.17134233220295 L 236.71875 123.87446325859254 L 238.18359375 124.95381507072014 L 239.74609375 126.46010931315976 L 241.50390625 128.56498437683388 L 243.5546875 131.5190233741279 L 245.80078125 135.2847891930924 L 248.4375 140.25556834400845 L 252.5390625 148.62999371855943 L 256.54296875 156.62512579406274 L 258.7890625 160.5645723136143 L 260.64453125 163.2914163757207 L 262.20703125 165.09043207893464 L 263.4765625 166.14094514927515 L 264.55078125 166.69452270273086 L 265.52734375 166.89737982909838 L 266.40625 166.81012987909742 L 267.28515625 166.44412951062765 L 268.1640625 165.77629902332 L 269.140625 164.6512391408055 L 270.21484375 162.90885040215167 L 271.2890625 160.59227134853114 L 272.36328125 157.6530161115171 L 273.4375 154.04079048118433 L 274.609375 149.27135568065458 L 275.78125 143.5687478643283 L 276.953125 136.86007785483383 L 278.22265625 128.36927628080255 L 279.4921875 118.50916583496887 L 280.859375 106.24023228889759 L 282.2265625 92.12834928874803 L 283.69140625 74.80423692518401 L 285.15625 55.024613554414486 L 286.62109375 32.603010829282766 L 288.18359375 5.555931576359768 L 288.8008342860281 -6.5" stroke-linecap="round" stroke-linejoin="round" stroke-miterlimit="10" stroke-width="3.5" stroke-dasharray=""/></g></g><g id="sketch-e09a4039"><title>Expression 4</title><path fill="#000000" stroke="none" paint-order="stroke fill markers" d="" fill-opacity="0.4"/><g><path fill="none" stroke="#000000" class="dcg-svg-curve" paint-order="fill stroke markers" d=" M 108.48474007424561 406.5 L 108.48474007424561 406.5 L 109.66796875 384.53176232402757 L 111.23046875 358.9456988786568 L 112.79296875 336.44315834820657 L 114.35546875 316.80165325496375 L 115.8203125 300.7961358050705 L 117.28515625 286.9485416940016 L 118.65234375 275.82783602685174 L 120.01953125 266.3188056946197 L 121.2890625 258.8255291954422 L 122.55859375 252.52298656349228 L 123.73046875 247.68396771134266 L 124.90234375 243.7141597216878 L 125.9765625 240.78240287273397 L 127.05078125 238.47663474457227 L 128.125 236.7495831433189 L 129.19921875 235.55565056149533 L 130.17578125 234.89586946003178 L 131.0546875 234.62135580964008 L 131.93359375 234.6260129477229 L 132.8125 234.8880888488452 L 133.7890625 235.45561376869944 L 134.9609375 236.48267800453402 L 136.328125 238.09985798742738 L 137.98828125 240.57460922826604 L 139.94140625 244.05444920477228 L 142.28515625 248.80612898488258 L 145.99609375 256.98335632009764 L 150.68359375 267.19300078460526 L 153.3203125 272.3495725205105 L 155.56640625 276.199795306579 L 157.6171875 279.18165011550843 L 159.47265625 281.38188959068475 L 161.1328125 282.91475079448264 L 162.59765625 283.9055834220245 L 163.96484375 284.5123376758505 L 165.234375 284.7933987529617 L 166.50390625 284.7975200320682 L 167.7734375 284.5213716053996 L 169.04296875 283.96312362881685 L 170.41015625 283.04603672331376 L 171.875 281.7014401563938 L 173.4375 279.8587984195933 L 175.1953125 277.29122412372476 L 176.953125 274.2143202535718 L 178.80859375 270.43484150771894 L 180.76171875 265.89564042449626 L 182.91015625 260.2811602492058 L 185.25390625 253.47714020423533 L 187.79296875 245.3971961731889 L 190.72265625 235.30138731704642 L 194.140625 222.71566849639532 L 199.0234375 203.8315106024138 L 206.8359375 173.61630060211186 L 210.3515625 160.91124768770493 L 213.28125 151.10102124810504 L 215.8203125 143.32104610663617 L 218.1640625 136.83333322248322 L 220.3125 131.53861321724207 L 222.265625 127.31188344205589 L 224.12109375 123.84577880388504 L 225.87890625 121.07814224089023 L 227.63671875 118.82938327808257 L 229.19921875 117.27602033501799 L 230.6640625 116.20583369171376 L 232.03125 115.54612511828104 L 233.30078125 115.22665907672227 L 234.5703125 115.18784046941524 L 235.83984375 115.42657386814814 L 237.109375 115.93821567408145 L 238.4765625 116.78721608845396 L 239.94140625 118.02865184516804 L 241.6015625 119.83155474625144 L 243.45703125 122.31198933925799 L 245.5078125 125.5711941365891 L 247.75390625 129.6781479752213 L 250.390625 135.06061692777325 L 254.39453125 143.89169154116826 L 258.69140625 153.23366228812705 L 261.03515625 157.75205340662382 L 262.890625 160.79892082797653 L 264.55078125 162.98824182177142 L 265.91796875 164.32141733140125 L 266.9921875 165.0208452335653 L 267.96875 165.35718849549033 L 268.84765625 165.39150900709933 L 269.7265625 165.14911048268178 L 270.60546875 164.6076108733944 L 271.484375 163.7439108145856 L 272.4609375 162.37735117297552 L 273.53515625 160.34039497089788 L 274.609375 157.6991465895133 L 275.68359375 154.40540997544255 L 276.7578125 150.4092762768942 L 277.9296875 145.1880424596362 L 279.1015625 138.99995728899697 L 280.37109375 131.12159009694852 L 281.640625 121.92907567746958 L 283.0078125 110.4466910757401 L 284.375 97.19809349662681 L 285.7421875 82.05048740370272 L 287.20703125 63.556841651793405 L 288.671875 42.548693452416444 L 290.234375 17.16204016489607 L 291.5231778221609 -6.5" stroke-linecap="round" stroke-linejoin="round" stroke-miterlimit="10" stroke-width="3.5" stroke-dasharray=""/></g></g><g id="sketch-e09a4039"><title>Expression 5</title><path fill="#c74440" stroke="none" paint-order="stroke fill markers" d="" fill-opacity="0.4"/><g><path fill="none" stroke="#c74440" class="dcg-svg-curve" paint-order="fill stroke markers" d=" M 97.13378659286789 406.5 L 97.13378659286789 406.5 L 97.94921874999999 395.29015410806306 L 99.70703124999999 373.7129015994458 L 101.46484375 354.48012998557857 L 103.22265625 337.4284870918308 L 104.8828125 323.1854422757488 L 106.54296875 310.6210095428694 L 108.203125 299.6132413816279 L 109.765625 290.57009925932346 L 111.328125 282.7084465243873 L 112.79296875 276.33110321483366 L 114.2578125 270.841815787532 L 115.72265625 266.1721137392152 L 117.1875 262.25624809095507 L 118.5546875 259.2258871863097 L 119.921875 256.7480181531355 L 121.38671875 254.65261008075214 L 122.8515625 253.08156004837218 L 124.21875 252.04139466943226 L 125.48828125 251.4069045508473 L 126.7578125 251.05902211206404 L 128.125 250.97015197497967 L 129.4921875 251.14235634282434 L 131.0546875 251.61473917156843 L 132.8125 252.43953256748455 L 134.86328125 253.71102513951854 L 137.5 255.6891057640314 L 142.08984375 259.55239345275373 L 146.484375 263.1140137805179 L 149.31640625 265.0604705283826 L 151.66015625 266.357067011859 L 153.80859375 267.2423361500831 L 155.76171875 267.7631843970503 L 157.6171875 267.9859060414997 L 159.375 267.93768875104433 L 161.1328125 267.62645157203974 L 162.890625 267.04429431224395 L 164.6484375 266.1858749279821 L 166.50390625 264.9768873717782 L 168.45703125 263.3676462524611 L 170.5078125 261.30921689488355 L 172.75390625 258.6293449652102 L 175.1953125 255.2278711016325 L 177.734375 251.1758555258021 L 180.46875 246.26425153039014 L 183.3984375 240.42792022617306 L 186.5234375 233.62775260119275 L 190.13671875 225.15189744959557 L 194.43359375 214.43753737734355 L 201.5625 195.91776051141778 L 208.10546875 179.16262353927297 L 212.20703125 169.28273360350516 L 215.625 161.6375979876466 L 218.75 155.2367175114341 L 221.58203125 150.00052151411091 L 224.21875 145.6617467013263 L 226.7578125 142.01087222527082 L 229.19921875 139.01533781443518 L 231.4453125 136.72184648448308 L 233.49609375 135.02311262822178 L 235.44921875 133.75912753055195 L 237.3046875 132.87745516203069 L 239.0625 132.32570972708118 L 240.8203125 132.04413501816148 L 242.578125 132.02453946262335 L 244.43359375 132.27600750186207 L 246.2890625 132.79103657748226 L 248.33984375 133.642932988141 L 250.5859375 134.8792976310399 L 253.125 136.59669864973694 L 256.34765625 139.13212175212098 L 265.33203125 146.4219467074066 L 267.48046875 147.7168630257889 L 269.3359375 148.52840040805853 L 270.8984375 148.93144471813866 L 272.265625 149.0326460408886 L 273.53515625 148.88452730277479 L 274.8046875 148.4732443360935 L 276.07421875 147.76816716838022 L 277.34375 146.7373262897528 L 278.61328125 145.34738991924786 L 279.98046875 143.40909160613 L 281.34765625 140.9688551071283 L 282.71484375 137.97956659476833 L 284.08203125 134.3921529015311 L 285.44921875 130.1555485897681 L 286.81640625 125.21666302161668 L 288.28125 119.0829850518849 L 289.74609375 112.00928289394874 L 291.2109375 103.92225859350994 L 292.7734375 94.09334339514749 L 294.3359375 82.92877071211161 L 295.8984375 70.32868213635095 L 297.55859375 55.25208978328587 L 299.21875 38.30847766106052 L 300.87890625 19.363434591757425 L 302.63671875 -3.032749621428735 L 302.8808148507908 -6.5" stroke-linecap="round" stroke-linejoin="round" stroke-miterlimit="10" stroke-width="3.5" stroke-dasharray=""/></g></g><g id="sketch-e09a4039"><title>Expression 6</title><path fill="#fa7e19" stroke="none" paint-order="stroke fill markers" d="" fill-opacity="0.4"/><g><path fill="none" stroke="#fa7e19" class="dcg-svg-curve" paint-order="fill stroke markers" d=" M 93.01875841420865 406.5 L 93.01875841420865 406.5 L 94.33593749999999 393.0828535078541 L 96.28906249999999 375.248990662299 L 98.14453124999999 360.0818700108223 L 100 346.52099609375 L 101.85546875 334.4501561583684 L 103.61328125 324.28805844067097 L 105.37109375 315.2724067504945 L 107.12890625 307.31608840700153 L 108.88671875 300.3356462119006 L 110.546875 294.56704226492513 L 112.20703125 289.533226132946 L 113.8671875 285.1725474920347 L 115.52734375 281.4260542937892 L 117.28515625 278.0660889914435 L 119.04296875 275.2679309061324 L 120.8984375 272.85704085362573 L 122.75390625 270.93742979624074 L 124.51171875 269.5143897541515 L 126.3671875 268.37246661161186 L 128.22265625 267.5450723636951 L 130.17578125 266.95584068047685 L 132.421875 266.56214525756303 L 135.05859375 266.38358313897766 L 138.671875 266.4323944445961 L 146.09375 266.5977015578992 L 149.12109375 266.36801147120593 L 151.7578125 265.9168492189367 L 154.296875 265.2150643385834 L 156.73828125 264.26112669920667 L 159.08203125 263.0659970175382 L 161.5234375 261.5136147140789 L 163.96484375 259.63643955432536 L 166.50390625 257.33352389561963 L 169.23828125 254.4532198922243 L 172.0703125 251.0395970427814 L 175.1953125 246.782912273757 L 178.515625 241.7306607988794 L 182.03125 235.83988614872845 L 185.83984375 228.91067977558177 L 190.234375 220.34170247478568 L 195.703125 209.08217171602857 L 211.42578125 176.3590435302781 L 215.72265625 168.18376784225597 L 219.53125 161.4773449200822 L 223.046875 155.82657135171348 L 226.3671875 151.02608115357833 L 229.4921875 147.02357896358512 L 232.421875 143.74872538426422 L 235.15625 141.120121232478 L 237.79296875 138.97890904268178 L 240.33203125 137.2774616840496 L 242.7734375 135.964693260169 L 245.21484375 134.95296706795799 L 247.65625 134.22042627281564 L 250.29296875 133.71000772631234 L 253.125 133.4362941368454 L 256.4453125 133.38671158702232 L 267.3828125 133.46026919526156 L 269.7265625 133.0670601555359 L 271.77734375 132.4549276363049 L 273.6328125 131.62753338838814 L 275.390625 130.5544506386279 L 277.1484375 129.15121475772867 L 278.90625 127.36702509266387 L 280.6640625 125.14810077243898 L 282.421875 122.43761280439092 L 284.08203125 119.37236576854914 L 285.7421875 115.76210707801063 L 287.40234375 111.55114740319387 L 289.0625 106.68116216878616 L 290.72265625 101.09114052962333 L 292.3828125 94.71733434657003 L 294.04296875 87.49320716239907 L 295.703125 79.3493831776719 L 297.4609375 69.6437130360481 L 299.21875 58.73653270968083 L 300.9765625 46.534697300878776 L 302.734375 32.94122912529815 L 304.58984375 16.971290559751793 L 306.4453125 -0.7850844924310252 L 306.9843650079114 -6.5" stroke-linecap="round" stroke-linejoin="round" stroke-miterlimit="10" stroke-width="3.5" stroke-dasharray=""/></g></g></g><g id="labels-e09a4039"/><g id="labels-e09a4039"/></g></svg>